<?xml version="1.0" standalone="no"?>
<!DOCTYPE svg PUBLIC "-//W3C//DTD SVG 1.1//EN" "http://www.w3.org/Graphics/SVG/1.1/DTD/svg11.dtd" >
<svg>
<metadata>
Created by FontForge 20090622 at Mon Oct 31 22:36:47 2016
 By deploy user
Copyright (C) 2002, 2007 Hoefler &#38; Frere-Jones. http://www.typography.com
</metadata>
<defs>
<font id="ChronicleDisplay-BlackItalic" horiz-adv-x="722" >
  <font-face 
    font-family="Chronicle Display Black"
    font-weight="450"
    font-style="italic"
    font-stretch="normal"
    units-per-em="1000"
    panose-1="0 0 0 0 0 0 0 0 0 0"
    ascent="800"
    descent="-200"
    x-height="464"
    cap-height="697"
    bbox="-225 -326 1227 1205"
    underline-thickness="50"
    underline-position="-50"
    slope="-12"
    unicode-range="U+0020-U+FB04"
  />
<missing-glyph horiz-adv-x="500" 
d="M0 -200v1000h500v-1000h-500zM71 750l179 -390l179 390h-358zM50 -76l172 376l-172 376v-752zM450 676l-172 -376l172 -376v752zM250 240l-179 -390h358z" />
    <glyph glyph-name="f_f" unicode="ff" horiz-adv-x="678" 
d="M423 711q108 0 150 -54q64 66 165 66q72 0 114.5 -27t42.5 -78q0 -36 -20.5 -58.5t-56.5 -22.5q-34 0 -55 21t-21 54q0 43 38 72q-15 19 -41 19q-29 0 -49 -32.5t-37 -105.5l-24 -106h127l-9 -29h-126l-67 -312q-37 -172 -99.5 -245t-176.5 -73q-65 0 -100.5 22t-38.5 63
q-65 -85 -185 -85q-67 0 -103 23.5t-36 67.5q0 30 21 50.5t54 20.5q31 0 49.5 -21t18.5 -49q0 -21 -11.5 -38.5t-29.5 -24.5q18 -9 37 -9q63 0 88 113l111 497h-117l9 29h114l12 44q27 100 91.5 154t160.5 54zM230 118q-22 -102 -50 -162q15 6 34 6q31 0 49.5 -21t18.5 -49
q0 -21 -11.5 -38.5t-29.5 -24.5q18 -9 37 -9q63 0 88 113l111 497h-180zM483 459l10 41q3 15 7 26q-29 4 -46 24t-17 50q0 43 38 72q-5 7 -20 13t-27 6q-37 0 -60.5 -31.5t-40.5 -106.5l-22 -94h178z" />
    <glyph glyph-name="fi" unicode="fi" horiz-adv-x="646" 
d="M297 430l-67 -312q-37 -172 -99.5 -245t-176.5 -73q-67 0 -103 23.5t-36 67.5q0 30 21 50.5t54 20.5q31 0 49.5 -21t18.5 -49q0 -21 -11.5 -38.5t-29.5 -24.5q18 -9 37 -9q63 0 88 113l111 497h-117l9 29h114l10 41q26 111 95.5 167t172.5 56q74 0 125.5 -28t51.5 -77
q0 -36 -20.5 -58.5t-56.5 -22.5q-34 0 -55 21t-21 54q0 43 38 72q-5 7 -23 13t-31 6q-46 0 -72.5 -29.5t-43.5 -108.5l-24 -106h169l147 8l-106 -356q-8 -26 -8 -40q0 -24 23 -31.5t79 -3.5v-12q-75 -32 -146 -32q-104 0 -104 74q0 18 8 47l95 317h-165z" />
    <glyph glyph-name="fl" unicode="fl" horiz-adv-x="643" 
d="M297 430l-67 -312q-37 -172 -99.5 -245t-176.5 -73q-67 0 -103 23.5t-36 67.5q0 30 21 50.5t54 20.5q31 0 49.5 -21t18.5 -49q0 -21 -11.5 -38.5t-29.5 -24.5q18 -9 37 -9q63 0 88 113l111 497h-117l9 29h114l10 41q27 110 92.5 166.5t163.5 56.5q80 0 127 -32l128 29
l9 -3l-175 -606q-7 -26 -7 -39q0 -25 23 -32.5t80 -3.5v-12q-75 -32 -146 -32q-104 0 -104 73q0 19 8 48l93 317h-164zM469 459l21 81q-23 8 -37 27t-14 45q0 43 38 72q-5 7 -20 13t-27 6q-37 0 -60.5 -31.5t-40.5 -106.5l-24 -106h164z" />
    <glyph glyph-name="f_f_i" unicode="ffi" horiz-adv-x="970" 
d="M761 723q74 0 125.5 -28t51.5 -77q0 -36 -20.5 -58.5t-56.5 -22.5q-34 0 -55 21t-21 54q0 43 38 72q-5 7 -23 13t-31 6q-45 0 -72 -30t-44 -108l-24 -106h169l147 8l-106 -356q-8 -26 -8 -40q0 -24 23 -31.5t79 -3.5v-12q-75 -32 -146 -32q-104 0 -104 74q0 18 8 47
l95 317h-165l-67 -312q-37 -172 -99.5 -245t-176.5 -73q-65 0 -100.5 22t-38.5 63q-65 -85 -185 -85q-67 0 -103 23.5t-36 67.5q0 30 21 50.5t54 20.5q31 0 49.5 -21t18.5 -49q0 -21 -11.5 -38.5t-29.5 -24.5q18 -9 37 -9q63 0 88 113l111 497h-117l9 29h114l12 44
q27 100 91.5 154t160.5 54q113 0 152 -56q71 68 186 68zM230 118q-22 -102 -50 -162q15 6 34 6q31 0 49.5 -21t18.5 -49q0 -21 -11.5 -38.5t-29.5 -24.5q18 -9 37 -9q63 0 88 113l111 497h-180zM493 500q3 15 7 26q-29 4 -46 24t-17 50q0 43 38 72q-5 7 -20 13t-27 6
q-37 0 -60.5 -31.5t-40.5 -106.5l-22 -94h178z" />
    <glyph glyph-name="f_f_l" unicode="ffl" horiz-adv-x="967" 
d="M159 459l12 44q27 100 91.5 154t160.5 54q111 0 151 -55q69 67 175 67q80 0 127 -32l128 29l9 -3l-175 -606q-7 -26 -7 -39q0 -25 23 -32.5t80 -3.5v-12q-75 -32 -146 -32q-104 0 -104 73q0 19 8 48l93 317h-164l-67 -312q-37 -172 -99.5 -245t-176.5 -73
q-65 0 -100.5 22t-38.5 63q-65 -85 -185 -85q-67 0 -103 23.5t-36 67.5q0 30 21 50.5t54 20.5q31 0 49.5 -21t18.5 -49q0 -21 -11.5 -38.5t-29.5 -24.5q18 -9 37 -9q63 0 88 113l111 497h-117l9 29h114zM230 118q-22 -102 -50 -162q15 6 34 6q31 0 49.5 -21t18.5 -49
q0 -21 -11.5 -38.5t-29.5 -24.5q18 -9 37 -9q63 0 88 113l111 497h-180zM793 459l21 81q-23 8 -37 27t-14 45q0 43 38 72q-5 7 -20 13t-27 6q-37 0 -60.5 -31.5t-40.5 -106.5l-24 -106h164zM493 500q3 15 7 26q-29 4 -46 24t-17 50q0 43 38 72q-5 7 -20 13t-27 6
q-37 0 -60.5 -31.5t-40.5 -106.5l-22 -94h178z" />
    <glyph glyph-name="f_b" unicode="fb" horiz-adv-x="903" 
d="M607 414l3 -2q68 60 136 60q58 0 96 -45t38 -122q0 -136 -88 -224.5t-236 -88.5q-108 0 -197 60l58 203l44 175h-164l-67 -312q-37 -172 -99.5 -245t-176.5 -73q-67 0 -103 23.5t-36 67.5q0 30 21 50.5t54 20.5q31 0 49.5 -21t18.5 -49q0 -21 -11.5 -38.5t-29.5 -24.5
q18 -9 37 -9q63 0 88 113l111 497h-117l9 29h114l10 41q27 110 92.5 166.5t163.5 56.5q80 0 127 -32l127 29l9 -3zM468 459l21 81q-50 17 -50 72q0 43 38 72q-5 7 -20 13t-27 6q-37 0 -60.5 -31.5t-40.5 -106.5l-24 -106h163zM573 12q38 0 74 55t57 128.5t21 133.5
q0 89 -63 89q-25 0 -60 -27l-89 -335q4 -21 21.5 -32.5t38.5 -11.5z" />
    <glyph glyph-name="f_h" unicode="fh" horiz-adv-x="923" 
d="M297 430l-68 -312q-37 -172 -99.5 -245t-176.5 -73q-67 0 -103 23.5t-36 67.5q0 30 21 50.5t54 20.5q31 0 49.5 -21t18.5 -49q0 -21 -11.5 -38.5t-29.5 -24.5q18 -9 37 -9q63 0 88 113l112 497h-117l9 29h114l10 41q27 110 92.5 166.5t163.5 56.5q80 0 127 -32l127 29
l9 -3l-94 -345l3 -2q87 99 181 99q50 0 77 -26t27 -73q0 -33 -11 -69l-61 -199q-10 -33 -10 -46q0 -20 19.5 -25t72.5 -2v-12q-69 -25 -134 -25q-105 0 -105 71q0 21 9 50l61 200q10 34 10 56q0 40 -36 40q-47 0 -107 -58l-90 -351h-153l47 162l67 268h-164zM468 459l21 81
q-50 17 -50 72q0 43 38 72q-5 7 -20 13t-27 6q-37 0 -60.5 -31.5t-40.5 -106.5l-24 -106h163z" />
    <glyph glyph-name="f_j" unicode="fj" horiz-adv-x="634" 
d="M255 -200q-113 0 -135 63q-62 -63 -166 -63q-67 0 -103 23.5t-36 67.5q0 30 21 50.5t54 20.5q31 0 49.5 -21t18.5 -49q0 -21 -11.5 -38.5t-29.5 -24.5q18 -9 37 -9q63 0 88 113l111 497h-117l9 29h114l10 41q26 111 95.5 167t172.5 56q74 0 125.5 -28t51.5 -77
q0 -36 -20.5 -58.5t-56.5 -22.5q-34 0 -55 21t-21 54q0 43 38 72q-5 7 -23 13t-31 6q-46 0 -72.5 -29.5t-43.5 -108.5l-24 -106h172l147 8l-122 -471q-24 -96 -81 -146t-166 -50zM297 430l-67 -312q-22 -98 -47 -156h8q31 0 49.5 -21t18.5 -49q0 -21 -10.5 -38t-27.5 -25
q18 -9 37 -9q27 0 46.5 24.5t35.5 88.5l122 497h-165z" />
    <glyph glyph-name="f_k" unicode="fk" horiz-adv-x="891" 
d="M297 430l-67 -312q-37 -172 -99.5 -245t-176.5 -73q-67 0 -103 23.5t-36 67.5q0 30 21 50.5t54 20.5q31 0 49.5 -21t18.5 -49q0 -21 -11.5 -38.5t-29.5 -24.5q18 -9 37 -9q63 0 88 113l111 497h-117l9 29h114l10 41q27 110 92.5 166.5t163.5 56.5q80 0 127 -32l127 29
l9 -3l-118 -444h21q25 0 46.5 20.5t38.5 49.5l35.5 58.5t46.5 50t63 20.5q39 0 60.5 -22t21.5 -53q0 -37 -19 -58.5t-51 -21.5q-31 0 -51 15.5t-20 43.5q0 27 16 48q-24 -4 -44 -27t-32 -48t-30 -48.5t-39 -28.5v-4q163 10 163 -98q0 -13 -3.5 -48t-3.5 -52q0 -26 15 -34.5
t64 -6.5v-12q-69 -25 -124 -25q-62 0 -83.5 24t-21.5 69q0 18 6 57.5t6 47.5q0 39 -15.5 53.5t-53.5 14.5h-16l-66 -258h-153l47 162l67 268h-164zM468 459l21 81q-50 17 -50 72q0 43 38 72q-5 7 -20 13t-27 6q-37 0 -60.5 -31.5t-40.5 -106.5l-24 -106h163z" />
    <glyph glyph-name="f_f_b" unicode="ffb" horiz-adv-x="1227" 
d="M749 723q80 0 127 -32l127 29l9 -3l-81 -303l3 -2q68 60 136 60q58 0 96 -45t38 -122q0 -136 -88 -224.5t-236 -88.5q-108 0 -197 60l58 203l44 175h-164l-67 -312q-37 -172 -99.5 -245t-176.5 -73q-65 0 -100.5 22t-38.5 63q-65 -85 -185 -85q-67 0 -103 23.5t-36 67.5
q0 30 21 50.5t54 20.5q31 0 49.5 -21t18.5 -49q0 -21 -11.5 -38.5t-29.5 -24.5q18 -9 37 -9q63 0 88 113l111 497h-117l9 29h114l12 44q27 100 91.5 154t160.5 54q111 0 151 -55q69 67 175 67zM230 118q-22 -102 -50 -162q15 6 34 6q31 0 49.5 -21t18.5 -49
q0 -21 -11.5 -38.5t-29.5 -24.5q18 -9 37 -9q63 0 88 113l111 497h-180zM897 12q38 0 74 55t57 128.5t21 133.5q0 89 -63 89q-25 0 -60 -27l-89 -335q4 -21 21.5 -32.5t38.5 -11.5zM792 459l21 81q-50 17 -50 72q0 43 38 72q-5 7 -20 13t-27 6q-37 0 -60.5 -31.5
t-40.5 -106.5l-24 -106h163zM493 500q3 15 7 26q-29 4 -46 24t-17 50q0 43 38 72q-5 7 -20 13t-27 6q-37 0 -60.5 -31.5t-40.5 -106.5l-22 -94h178z" />
    <glyph glyph-name="f_f_h" unicode="ffh" horiz-adv-x="1247" 
d="M159 459l12 44q27 100 91.5 154t160.5 54q111 0 151 -55q69 67 175 67q80 0 127 -32l127 29l9 -3l-94 -345l3 -2q87 99 181 99q50 0 77 -26t27 -73q0 -33 -11 -69l-61 -199q-10 -33 -10 -46q0 -20 19.5 -25t72.5 -2v-12q-69 -25 -134 -25q-105 0 -105 71q0 21 9 50
l61 200q10 34 10 56q0 40 -36 40q-47 0 -107 -58l-90 -351h-153l47 162l67 268h-164l-67 -312q-37 -172 -99.5 -245t-176.5 -73q-65 0 -100.5 22t-38.5 63q-65 -85 -185 -85q-67 0 -103 23.5t-36 67.5q0 30 21 50.5t54 20.5q31 0 49.5 -21t18.5 -49q0 -21 -11.5 -38.5
t-29.5 -24.5q18 -9 37 -9q63 0 88 113l111 497h-117l9 29h114zM230 118q-22 -102 -50 -162q15 6 34 6q31 0 49.5 -21t18.5 -49q0 -21 -11.5 -38.5t-29.5 -24.5q18 -9 37 -9q63 0 88 113l111 497h-180zM792 459l21 81q-50 17 -50 72q0 43 38 72q-5 7 -20 13t-27 6
q-37 0 -60.5 -31.5t-40.5 -106.5l-24 -106h163zM493 500q3 15 7 26q-29 4 -46 24t-17 50q0 43 38 72q-5 7 -20 13t-27 6q-37 0 -60.5 -31.5t-40.5 -106.5l-22 -94h178z" />
    <glyph glyph-name="f_f_j" unicode="ffj" horiz-adv-x="958" 
d="M159 459l12 44q27 100 91.5 154t160.5 54q113 0 152 -56q71 68 186 68q74 0 125.5 -28t51.5 -77q0 -36 -20.5 -58.5t-56.5 -22.5q-34 0 -55 21t-21 54q0 43 38 72q-5 7 -23 13t-31 6q-45 0 -72 -30t-44 -108l-24 -106h172l147 8l-122 -471q-24 -96 -81 -146t-166 -50
q-113 0 -135 63q-62 -63 -166 -63q-65 0 -100.5 22t-38.5 63q-65 -85 -185 -85q-67 0 -103 23.5t-36 67.5q0 30 21 50.5t54 20.5q31 0 49.5 -21t18.5 -49q0 -21 -11.5 -38.5t-29.5 -24.5q18 -9 37 -9q63 0 88 113l111 497h-117l9 29h114zM230 118q-22 -102 -50 -162
q15 6 34 6q31 0 49.5 -21t18.5 -49q0 -21 -11.5 -38.5t-29.5 -24.5q18 -9 37 -9q63 0 88 113l111 497h-180zM554 118q-22 -98 -47 -156h8q31 0 49.5 -21t18.5 -49q0 -21 -10.5 -38t-27.5 -25q18 -9 37 -9q27 0 46.5 24.5t35.5 88.5l122 497h-165zM493 500q3 15 7 26
q-29 4 -46 24t-17 50q0 43 38 72q-5 7 -20 13t-27 6q-37 0 -60.5 -31.5t-40.5 -106.5l-22 -94h178z" />
    <glyph glyph-name="f_f_k" unicode="ffk" horiz-adv-x="1215" 
d="M159 459l12 44q27 100 91.5 154t160.5 54q111 0 151 -55q69 67 175 67q80 0 127 -32l127 29l9 -3l-118 -444h21q25 0 46.5 20.5t38.5 49.5l35.5 58.5t46.5 50t63 20.5q39 0 60.5 -22t21.5 -53q0 -37 -19 -58.5t-51 -21.5q-31 0 -51 15.5t-20 43.5q0 27 16 48
q-24 -4 -44 -27t-32 -48t-30 -48.5t-39 -28.5v-4q163 10 163 -98q0 -13 -3.5 -48t-3.5 -52q0 -26 15 -34.5t64 -6.5v-12q-69 -25 -124 -25q-62 0 -83.5 24t-21.5 69q0 18 6 57.5t6 47.5q0 39 -15.5 53.5t-53.5 14.5h-16l-66 -258h-153l47 162l67 268h-164l-67 -312
q-37 -172 -99.5 -245t-176.5 -73q-65 0 -100.5 22t-38.5 63q-65 -85 -185 -85q-67 0 -103 23.5t-36 67.5q0 30 21 50.5t54 20.5q31 0 49.5 -21t18.5 -49q0 -21 -11.5 -38.5t-29.5 -24.5q18 -9 37 -9q63 0 88 113l111 497h-117l9 29h114zM230 118q-22 -102 -50 -162
q15 6 34 6q31 0 49.5 -21t18.5 -49q0 -21 -11.5 -38.5t-29.5 -24.5q18 -9 37 -9q63 0 88 113l111 497h-180zM792 459l21 81q-50 17 -50 72q0 43 38 72q-5 7 -20 13t-27 6q-37 0 -60.5 -31.5t-40.5 -106.5l-24 -106h163zM493 500q3 15 7 26q-29 4 -46 24t-17 50q0 43 38 72
q-5 7 -20 13t-27 6q-37 0 -60.5 -31.5t-40.5 -106.5l-22 -94h178z" />
    <glyph glyph-name=".notdef" horiz-adv-x="500" 
d="M0 -200v1000h500v-1000h-500zM71 750l179 -390l179 390h-358zM50 -76l172 376l-172 376v-752zM450 676l-172 -376l172 -376v752zM250 240l-179 -390h358z" />
    <glyph glyph-name=".null" horiz-adv-x="0" 
 />
    <glyph glyph-name="nonmarkingreturn" horiz-adv-x="333" 
 />
    <glyph glyph-name="space" unicode=" " horiz-adv-x="184" 
 />
    <glyph glyph-name="exclam" unicode="!" horiz-adv-x="288" 
d="M147 204l-16 4q9 66 19 233t20 203q10 38 34 59.5t55 21.5q36 0 57.5 -22t21.5 -60q0 -37 -31 -106.5t-83 -170.5t-77 -162zM100 -17q-38 0 -63.5 25t-25.5 61t26.5 62t64.5 26t63.5 -25t25.5 -61t-26.5 -62t-64.5 -26z" />
    <glyph glyph-name="quotedbl" unicode="&#x22;" horiz-adv-x="484" 
d="M99 395l-9 6l67 173q30 78 53.5 106.5t58.5 28.5q26 0 42.5 -19.5t16.5 -39.5q0 -28 -18 -55t-72 -76zM307 395l-9 6l67 173q30 78 53.5 106.5t58.5 28.5q26 0 42.5 -19.5t16.5 -39.5q0 -28 -18 -55t-72 -76z" />
    <glyph glyph-name="numbersign" unicode="#" horiz-adv-x="703" 
d="M391 703l-70 -226h210l70 226h25l-70 -226h155l-1 -21h-160l-78 -252h168l-1 -21h-174l-69 -226h-25l69 226h-210l-69 -226h-25l69 226h-154l1 21h160l78 252h-167l1 21h172l70 226h25zM315 456l-78 -252h210l78 252h-210z" />
    <glyph glyph-name="dollar" unicode="$" horiz-adv-x="582" 
d="M231 -68l-26 5l22 84q-97 10 -150.5 51t-53.5 99q0 38 24 67.5t70 29.5q35 0 56 -23.5t21 -56.5q0 -31 -21 -53.5t-56 -26.5q13 -18 45.5 -36.5t71.5 -27.5l60 222l-20 10q-38 17 -61.5 30.5t-50.5 35t-40.5 48.5t-13.5 61q0 88 75 142t208 54q3 0 8 -0.5t7 -0.5l20 76
l26 -5l-19 -73q81 -9 130.5 -48.5t49.5 -92.5q0 -36 -22.5 -62.5t-57.5 -26.5q-36 0 -58.5 19.5t-22.5 51.5q0 27 15.5 48t41.5 32q-25 39 -84 55l-54 -201q3 -2 9 -4q40 -20 63 -33.5t52 -37t43 -53.5t14 -67q0 -84 -73 -144.5t-196 -60.5h-29zM414 147q0 36 -25 61t-72 47
l-58 -215q8 -1 24 -1q62 0 96.5 29t34.5 79zM244 533q0 -33 26.5 -56t77.5 -47l52 195q-16 2 -24 2q-63 0 -97.5 -26.5t-34.5 -67.5z" />
    <glyph glyph-name="percent" unicode="%" horiz-adv-x="815" 
d="M414 629q44 -27 107 -27q46 0 89 21.5t96 71.5h32l-567 -721h-49l541 656l-3 3q-84 -64 -188 -64q-15 0 -45 4v-11q0 -57 -24 -118t-77 -108t-121 -47q-58 0 -92 36.5t-34 100.5q0 93 73 174t171 81q67 0 91 -52zM565 -14q-58 0 -92 36.5t-34 100.5q0 93 73 174t171 81
q104 0 104 -119q0 -57 -24 -118t-77 -108t-121 -47zM592 14q67 0 118.5 82t51.5 164q0 81 -55 81q-57 0 -114 -90.5t-57 -169.5q0 -33 15 -50t41 -17zM401 579q-56 15 -98 50q-49 -30 -88 -106t-39 -139q0 -33 15 -50t41 -17q67 0 118.5 82t51.5 164q0 11 -1 16z" />
    <glyph glyph-name="ampersand" unicode="&#x26;" 
d="M367 387q50 32 75 84.5t25 107.5q0 39 -19.5 59t-48.5 20q-36 0 -62 -35t-26 -95q0 -46 10.5 -71.5t45.5 -69.5zM237 328q-88 -65 -88 -156q0 -55 29.5 -85t77.5 -30q59 0 111 49q-29 93 -130 222zM479 220q76 150 167 150q39 0 62.5 -23.5t23.5 -61.5q0 -33 -22.5 -57.5
t-57.5 -24.5q-32 0 -53.5 20t-21.5 51q0 5 2 15l-3 2q-41 -13 -88 -88q17 -47 33.5 -76t34 -41.5t31 -16t33.5 -3.5q29 0 67 27l8 -7q-75 -103 -169 -103q-120 0 -153 106q-86 -106 -213 -106q-70 0 -117.5 39.5t-47.5 105.5q0 78 60 135t169 81q-27 32 -36 61.5t-9 69.5
q0 80 66 139t151 59q88 0 135 -40t47 -99q0 -50 -54.5 -95t-143.5 -69q78 -87 99 -150z" />
    <glyph glyph-name="quotesingle" unicode="'" horiz-adv-x="276" 
d="M99 395l-9 6l67 173q30 78 53.5 106.5t58.5 28.5q26 0 42.5 -19.5t16.5 -39.5q0 -28 -18 -55t-72 -76z" />
    <glyph glyph-name="parenleft" unicode="(" horiz-adv-x="383" 
d="M317 -166q-249 130 -249 401q0 104 46.5 199t120 161t158 110t166.5 59l2 -12q-86 -29 -155.5 -97.5t-111 -154t-63 -176t-21.5 -174.5q0 -103 25.5 -172t86.5 -136z" />
    <glyph glyph-name="parenright" unicode=")" horiz-adv-x="383" 
d="M-138 -164l-2 12q86 29 155.5 97.5t111 154t63 176t21.5 174.5q0 103 -25.5 172t-86.5 136l5 8q249 -130 249 -401q0 -104 -46.5 -199t-120 -161t-158 -110t-166.5 -59z" />
    <glyph glyph-name="asterisk" unicode="*" horiz-adv-x="423" 
d="M371 379q-43 -18 -61 23q-8 18 -8 133l-10 2q-52 -100 -65 -113q-17 -15 -33.5 -12.5t-30.5 17.5q-31 35 3 66q11 10 122 47v10q-4 1 -27.5 4t-40.5 5.5t-35.5 7t-25.5 8.5q-19 12 -22.5 30t7.5 35q10 17 26.5 22t36.5 -7q20 -13 83 -101l10 4q0 1 -6.5 37t-9.5 60t0 34
q12 44 57 34q19 -5 29.5 -20t6.5 -36q-1 -6 -7 -17t-16 -25.5l-18 -25.5l-19 -25.5t-13 -17.5l7 -7q105 55 119 56q22 1 35 -11t15 -32t-9 -34.5t-33 -16.5q-21 -2 -126 33l-5 -9q83 -79 90 -97q8 -21 0.5 -37t-26.5 -24z" />
    <glyph glyph-name="plus" unicode="+" horiz-adv-x="541" 
d="M377 547l-56 -211h210l-6 -22h-210l-57 -214h-26l57 214h-212l6 22h212l56 211h26z" />
    <glyph glyph-name="comma" unicode="," horiz-adv-x="273" 
d="M-61 -152l-4 12q135 61 156 124l-3 5q-33 -2 -55 20.5t-22 59.5t25 62.5t61 25.5q41 0 66 -28t25 -69q0 -72 -62.5 -127.5t-186.5 -84.5z" />
    <glyph glyph-name="hyphen" unicode="-" horiz-adv-x="366" 
d="M57 240l11 41h256l-11 -41h-256z" />
    <glyph glyph-name="period" unicode="." horiz-adv-x="273" 
d="M100 -17q-38 0 -63.5 25t-25.5 61t26.5 62t64.5 26t63.5 -25t25.5 -61t-26.5 -62t-64.5 -26z" />
    <glyph glyph-name="slash" unicode="/" horiz-adv-x="457" 
d="M-119 -215l340 480l339 481h31l-340 -481l-339 -480h-31z" />
    <glyph glyph-name="zero" unicode="0" horiz-adv-x="653" 
d="M204 153q0 -145 83 -145q52 0 97.5 57t72.5 139.5t42.5 165.5t15.5 144q0 145 -83 145q-52 0 -97.5 -57t-72.5 -139.5t-42.5 -165.5t-15.5 -144zM666 412q0 -58 -15.5 -117.5t-47 -114.5t-74.5 -98.5t-104 -69.5t-130 -26q-113 0 -177.5 72.5t-64.5 196.5
q0 58 15.5 117.5t47 114.5t74.5 98.5t104 69.5t130 26q113 0 177.5 -72.5t64.5 -196.5z" />
    <glyph glyph-name="one" unicode="1" horiz-adv-x="432" 
d="M-26 0l3 13q74 4 98.5 14t31.5 36l125 477q9 33 9 55.5t-23.5 34.5t-79.5 13l3 13l283 21l-162 -614q-7 -27 14.5 -36.5t100.5 -13.5l-3 -13h-400z" />
    <glyph glyph-name="two" unicode="2" horiz-adv-x="575" 
d="M-13 0l18 97l209 126q128 77 183.5 144t55.5 167q0 127 -106 127q-36 0 -70 -16.5t-54 -46.5q84 -21 84 -94q0 -38 -25.5 -65.5t-67.5 -27.5q-41 0 -65.5 26t-24.5 71q0 75 70.5 124t179.5 49q118 0 175.5 -50t57.5 -124q0 -81 -87 -149t-323 -181l-98 -47v-5h297
q42 0 68.5 19.5t68.5 79.5l13 -1l-62 -223h-497z" />
    <glyph glyph-name="three" unicode="3" horiz-adv-x="575" 
d="M220 332l6 22q126 0 182 56q47 47 47 132q0 119 -108 119q-33 0 -62 -15.5t-42 -35.5q31 -8 50 -30t19 -55q0 -35 -24 -61t-63 -26q-38 0 -64 25t-26 62q0 73 66.5 114.5t174.5 41.5q112 0 174 -42t62 -116q0 -75 -74 -123t-232 -57l-1 -5q117 -7 176.5 -50.5
t59.5 -115.5q0 -88 -84 -137t-221 -49q-111 0 -165.5 43t-54.5 107q0 48 28.5 77.5t69.5 29.5q39 0 64 -27t25 -64q0 -33 -21.5 -58.5t-60.5 -36.5q14 -22 44 -37.5t65 -15.5q55 0 95 40q55 55 55 155q0 65 -38 98t-122 35z" />
    <glyph glyph-name="four" unicode="4" horiz-adv-x="615" 
d="M590 185h-121l-33 -130q-6 -24 9 -32.5t72 -9.5l-4 -13h-341l2 13q88 1 99 42l34 130h-296l14 46l455 437h113l-99 -385h114zM405 565l-292 -282h220l76 282h-4z" />
    <glyph glyph-name="five" unicode="5" horiz-adv-x="577" 
d="M233 -14q-86 0 -150 44t-64 109q0 43 28 72t71 29q40 0 63 -25t23 -60q0 -73 -72 -97q26 -54 111 -54q45 0 77 29t46 75t19.5 83.5t5.5 72.5q0 121 -106 121q-75 0 -147 -65l-21 7l90 340h425l-49 -138h-389l-53 -186q88 70 181 70q105 0 166 -46t61 -132
q0 -110 -87.5 -179.5t-228.5 -69.5z" />
    <glyph glyph-name="six" unicode="6" horiz-adv-x="591" 
d="M272 -14q-104 0 -162 65t-58 176q0 92 38.5 174t112 145.5t189.5 101t261 37.5v-14q-182 -29 -281 -106t-145 -199l5 -4q40 50 80 72t101 22q76 0 120 -53t44 -128q0 -112 -85 -200.5t-220 -88.5zM271 5q41 0 79 58t58.5 135t20.5 143q0 89 -57 89q-51 0 -94 -49
t-65.5 -118t-22.5 -136q0 -68 20.5 -95t60.5 -27z" />
    <glyph glyph-name="seven" unicode="7" horiz-adv-x="536" 
d="M31 -10v10l496 527h-269q-48 0 -75 -21.5t-70 -97.5l-12 2l60 257h479l3 -13l-254 -351l-195 -313h-163z" />
    <glyph glyph-name="eight" unicode="8" horiz-adv-x="577" 
d="M274 -14q-115 0 -176.5 45t-61.5 109q0 132 187 182q-97 66 -97 156q0 85 73 144t176 59q106 0 167.5 -43t61.5 -110q0 -52 -45.5 -94.5t-133.5 -66.5q56 -39 87.5 -80t31.5 -100q0 -93 -78 -147t-192 -54zM268 293q-9 5 -27 17q-75 -57 -75 -158q0 -61 29.5 -103
t84.5 -42q53 0 87 34t34 94q0 22 -8 42.5t-18 34t-31.5 30.5t-34.5 25.5t-41 25.5zM265 541q0 -25 9.5 -46t32.5 -42t38 -31.5l50 -33.5q2 -2 6 -4q73 66 73 165q0 51 -26.5 81.5t-73.5 30.5q-49 0 -79 -33t-30 -87z" />
    <glyph glyph-name="nine" unicode="9" horiz-adv-x="584" 
d="M392 681q104 0 161.5 -65t57.5 -176q0 -93 -37 -174t-109 -144.5t-189 -100.5t-265 -37v14q171 28 276 102.5t142 186.5l-5 4q-39 -43 -70.5 -60.5t-87.5 -17.5q-86 0 -132.5 52t-46.5 127q0 112 85 200.5t220 88.5zM393 662q-41 0 -79 -57.5t-58.5 -131t-20.5 -132.5
q0 -103 72 -103q48 0 86.5 49t56.5 115t18 129q0 131 -75 131z" />
    <glyph glyph-name="colon" unicode=":" horiz-adv-x="293" 
d="M110 -17q-38 0 -63.5 25t-25.5 61t26.5 62t64.5 26t63.5 -25t25.5 -61t-26.5 -62t-64.5 -26zM174 247q-38 0 -63.5 25t-25.5 61t26.5 62t64.5 26t63.5 -25t25.5 -61t-26.5 -62t-64.5 -26z" />
    <glyph glyph-name="semicolon" unicode=";" horiz-adv-x="293" 
d="M174 247q-38 0 -63.5 25t-25.5 61t26.5 62t64.5 26t63.5 -25t25.5 -61t-26.5 -62t-64.5 -26zM-51 -152l-4 12q135 61 156 124l-3 5q-33 -2 -55 20.5t-22 59.5t25 62.5t61 25.5q41 0 66 -28t25 -69q0 -72 -62.5 -127.5t-186.5 -84.5z" />
    <glyph glyph-name="less" unicode="&#x3c;" horiz-adv-x="550" 
d="M445 103l-338 213l6 23l445 214l-9 -32l-411 -196l315 -197z" />
    <glyph glyph-name="equal" unicode="=" horiz-adv-x="543" 
d="M488 217h-438l5 22h438zM538 415h-438l5 22h438z" />
    <glyph glyph-name="greater" unicode="&#x3e;" horiz-adv-x="550" 
d="M155 553l338 -213l-6 -23l-445 -214l9 32l411 196l-315 197z" />
    <glyph glyph-name="question" unicode="?" horiz-adv-x="524" 
d="M216 204l-27 6l42 128q95 33 141 108t46 158q0 98 -103 98q-37 0 -71 -18t-48 -41q73 -14 73 -83q0 -34 -22.5 -58.5t-59.5 -24.5q-38 0 -63.5 25t-25.5 63q0 66 64 112t158 46q116 0 183 -53t67 -137q0 -87 -84 -139.5t-231 -68.5zM169 -17q-38 0 -63.5 25t-25.5 61
t26.5 62t64.5 26t63.5 -25t25.5 -61t-26.5 -62t-64.5 -26z" />
    <glyph glyph-name="at" unicode="@" horiz-adv-x="909" 
d="M452 -146q-169 0 -272.5 99t-103.5 264q0 200 133 333.5t330 133.5q144 0 239 -87t95 -221q0 -144 -79 -231.5t-186 -87.5q-61 0 -88 17.5t-33 55.5l-4 2q-36 -35 -65.5 -51t-66.5 -16q-53 0 -83.5 36.5t-30.5 95.5q0 110 80.5 197.5t169.5 87.5q45 0 67 -13.5t34 -39.5
h5l16 43l128 8l-63 -145l-52 -139q-19 -52 -19 -78q0 -36 34 -36q79 0 146.5 85t67.5 208q0 125 -88.5 207.5t-225.5 82.5q-125 0 -226.5 -61t-157 -163.5t-55.5 -223.5q0 -151 96.5 -247.5t259.5 -96.5q138 0 259 83l10 -14q-125 -88 -271 -88zM421 120q24 0 58 31l100 255
q-15 44 -56 44q-34 0 -71 -41.5t-61.5 -106.5t-24.5 -127q0 -33 13 -44t42 -11z" />
    <glyph glyph-name="A" unicode="A" 
d="M-73 0l3 14q54 7 96.5 40.5t83.5 100.5l345 556h93l72 -624q5 -40 21.5 -53t73.5 -20l-3 -14h-375l3 14q70 3 92.5 17t19.5 45l-21 188h-226l-70 -118q-72 -120 50 -132l-3 -14h-255zM429 284l-32 291h-6l-174 -291h212z" />
    <glyph glyph-name="B" unicode="B" horiz-adv-x="733" 
d="M334 369h87q46 0 79 23t48.5 59t21.5 67t6 59q0 101 -111 101h-48zM240 19h101q49 0 84 22t52.5 58.5t25 72t7.5 73.5q0 55 -28 80.5t-90 25.5h-63zM151 684l3 13h318q140 0 203 -42t63 -105q0 -71 -68.5 -124t-200.5 -64l-1 -5q213 -13 213 -154q0 -86 -83.5 -144.5
t-260.5 -58.5h-368l3 14q65 2 84 8.5t26 32.5l158 589q3 13 -1 20.5t-25 13t-63 6.5z" />
    <glyph glyph-name="C" unicode="C" horiz-adv-x="727" 
d="M355 -17q-130 0 -211.5 81.5t-81.5 222.5q0 76 31 151t86.5 137t142 100.5t188.5 38.5q60 0 98 -11.5t81 -35.5l60 44h16l-67 -265h-16q-40 146 -78.5 196.5t-99.5 50.5q-63 0 -126 -70.5t-102 -174.5t-39 -199q0 -226 179 -226q63 0 131.5 40.5t128.5 120.5l17 -11
q-59 -86 -149 -138t-189 -52z" />
    <glyph glyph-name="D" unicode="D" horiz-adv-x="788" 
d="M82 55l158 589q3 13 -1 20.5t-25 13t-63 6.5l3 13h329q132 0 221 -75t89 -206q0 -78 -32.5 -156.5t-92.5 -138.5q-121 -121 -298 -121h-401l3 14q65 2 84 8.5t26 32.5zM240 19h99q79 0 141 62q72 73 108.5 202t36.5 222q0 173 -149 173h-59z" />
    <glyph glyph-name="E" unicode="E" horiz-adv-x="725" 
d="M154 697h613l-62 -248h-16q-23 120 -58.5 173.5t-117.5 53.5h-97l-80 -298h46q39 0 66 13t48 35.5t64 78.5h15l-75 -288h-15q-21 93 -37 117t-71 24h-46l-90 -337h116q97 0 168 60t149 182h17l-71 -263h-651l3 14q65 2 84 8.5t26 32.5l158 589q3 13 -1 20.5t-25 13
t-63 6.5z" />
    <glyph glyph-name="F" unicode="F" horiz-adv-x="673" 
d="M342 0h-373l3 14q65 2 84 8.5t26 32.5l158 589q3 13 -1 20.5t-25 13t-63 6.5l3 13h611l-65 -259h-16q-23 129 -57.5 183.5t-115.5 54.5h-95l-85 -316h49q39 0 66 13t48 35.5t64 78.5h15l-75 -288h-15q-21 93 -37 117t-71 24h-49l-76 -285q-7 -26 10 -32.5t85 -8.5z" />
    <glyph glyph-name="G" unicode="G" horiz-adv-x="774" 
d="M776 711l-65 -256h-16q-51 144 -85 191t-91 47q-79 0 -145.5 -79t-101.5 -190.5t-35 -219.5q0 -86 39 -143t110 -57q45 0 89 24l65 246q3 13 -1.5 20t-26 12.5t-65.5 7.5l3 13h338l-3 -13q-48 -3 -63.5 -11.5t-20.5 -28.5l-66 -239q-129 -52 -260 -52q-132 0 -222.5 82.5
t-90.5 221.5q0 58 19 118t57.5 115t91 98.5t125.5 69.5t155 26q115 0 197 -42l53 39h16z" />
    <glyph glyph-name="H" unicode="H" horiz-adv-x="853" 
d="M404 0l3 14q32 2 43 2.5t27.5 4.5t23 12t10.5 22l80 297h-261l-80 -297q-7 -25 10 -32t66 -9h7l-3 -14h-361l3 14q65 2 84 8.5t26 32.5l158 589q3 13 -1 20.5t-25 13t-63 6.5l3 13h361l-3 -13q-55 -3 -77 -12.5t-27 -27.5l-73 -272h261l73 272q3 13 -1 20t-23.5 12.5
t-58.5 7.5l3 13h362l-3 -13q-59 -2 -82.5 -11.5t-28.5 -28.5l-158 -589q-7 -26 9 -32.5t81 -8.5l-3 -14h-362z" />
    <glyph glyph-name="I" unicode="I" horiz-adv-x="447" 
d="M534 684q-61 -2 -85 -11.5t-29 -28.5l-158 -589q-7 -26 9.5 -32.5t83.5 -8.5l-3 -14h-375l3 14q67 2 86.5 8.5t26.5 32.5l159 589q3 13 -1.5 20.5t-26.5 13t-65 6.5l3 13h375z" />
    <glyph glyph-name="J" unicode="J" horiz-adv-x="613" 
d="M210 -17q-92 0 -145.5 42.5t-53.5 104.5q0 43 29 80t76 37q37 0 58.5 -22t21.5 -56q0 -41 -27.5 -70t-73.5 -35q8 -26 35.5 -42t58.5 -16q48 0 80 46.5t65 166.5l115 425q3 13 -2.5 20.5t-28 13t-66.5 6.5l3 13h379l-3 -13q-61 -2 -85 -11.5t-29 -28.5l-109 -404
q-37 -134 -104 -195.5t-194 -61.5z" />
    <glyph glyph-name="K" unicode="K" horiz-adv-x="786" 
d="M878 697l-3 -13q-64 -11 -118 -42t-126 -93l-114 -99l153 -364q19 -45 33.5 -56t59.5 -16l-3 -14h-351l3 14q64 5 76.5 18t-4.5 53l-98 252l-79 -68l-57 -214q-7 -25 9.5 -32t61.5 -9h7l-3 -14h-356l3 14q65 2 84 8.5t26 32.5l158 589q3 13 -1 20.5t-25 13t-63 6.5l3 13
h361l-3 -13q-55 -3 -77 -12.5t-27 -27.5l-92 -343l282 248q61 56 53.5 93.5t-69.5 41.5l3 13h293z" />
    <glyph glyph-name="L" unicode="L" horiz-adv-x="685" 
d="M408 644l-167 -623h82q45 0 81.5 13t76 48t73 74.5t90.5 114.5h17l-79 -271h-613l3 14q65 2 84 8.5t26 32.5l158 589q3 13 -1 20.5t-25 13t-63 6.5l3 13h367l-3 -13q-58 -2 -81.5 -11.5t-28.5 -28.5z" />
    <glyph glyph-name="M" unicode="M" horiz-adv-x="995" 
d="M144 684l3 13h299l61 -487h5l305 487h276l-3 -13q-59 -2 -82.5 -11.5t-28.5 -28.5l-158 -589q-7 -26 9 -32.5t81 -8.5l-3 -14h-360l3 14q32 2 43 2.5t27.5 4.5t23 12t10.5 22l154 572h-6l-393 -627h-41l-84 627h-11l-129 -483q-16 -61 7 -93.5t94 -36.5l-3 -14h-282l3 14
q68 7 101.5 35t51.5 94l121 453q10 36 -12.5 60t-81.5 28z" />
    <glyph glyph-name="N" unicode="N" horiz-adv-x="813" 
d="M383 697l265 -518h1l96 363q20 76 -2 107t-96 35l3 13h282l-3 -13q-66 -7 -102 -41t-54 -100l-148 -552h-66l-298 583h-1l-112 -419q-20 -76 2 -106.5t96 -34.5l-3 -14h-282l3 14q66 7 102 40.5t54 99.5l115 431q10 37 -13 66t-78 33l3 13h236z" />
    <glyph glyph-name="O" unicode="O" horiz-adv-x="783" 
d="M365 -17q-132 0 -217.5 76.5t-85.5 215.5q0 58 18 119t54 118t85.5 102.5t119 72.5t146.5 27q132 0 217.5 -76.5t85.5 -215.5q0 -58 -18 -119t-54 -118t-85.5 -102.5t-119 -72.5t-146.5 -27zM336 4q81 0 149 88.5t103 207.5t35 228q0 165 -109 165q-81 0 -149 -88.5
t-103 -207.5t-35 -228q0 -165 109 -165z" />
    <glyph glyph-name="P" unicode="P" horiz-adv-x="697" 
d="M320 315h55q55 0 96 26t61.5 67t30 81.5t9.5 80.5q0 59 -27 83.5t-79 24.5h-49zM151 684l3 13h322q142 0 204 -49t62 -119q0 -41 -18 -79.5t-56 -74.5t-110 -57.5t-168 -21.5h-75l-65 -241q-7 -25 10 -32t66 -9h7l-3 -14h-361l3 14q65 2 84 8.5t26 32.5l158 589
q3 13 -1 20.5t-25 13t-63 6.5z" />
    <glyph glyph-name="Q" unicode="Q" horiz-adv-x="783" 
d="M62 279q0 72 29 147.5t81 140t134.5 106t178.5 41.5q133 0 218 -75.5t85 -214.5q0 -72 -29 -147.5t-81 -140t-134.5 -106t-178.5 -41.5h-17q34 -16 66 -49.5t52 -63t45 -52.5t48 -23q17 0 28.5 8.5t11.5 22.5q0 16 -20 40t-20 47q0 30 22.5 53t53.5 23q30 0 53 -24
t23 -55q0 -65 -64 -108t-152 -43q-52 0 -92.5 17t-64.5 41.5t-44.5 49.5t-42.5 42t-47 17q-33 0 -60 -16.5t-66 -59.5l-12 12q88 121 202 133q-95 25 -150.5 96t-55.5 182zM623 530q0 163 -109 163q-81 0 -149 -88t-103 -206t-35 -226q0 -163 109 -163q81 0 149 88t103 206
t35 226z" />
    <glyph glyph-name="R" unicode="R" horiz-adv-x="753" 
d="M331 357h44q53 0 92.5 17t60 41t33 56t15.5 54t3 44q0 54 -23.5 81.5t-77.5 27.5h-61zM151 684l3 13h340q250 0 250 -146q0 -167 -281 -200l-1 -5q115 -6 156 -44t29 -123l-7 -59q-8 -70 5.5 -87.5t74.5 -21.5l-3 -14q-44 -4 -97 -4q-106 0 -137 32.5t-17 105.5l17 92
q13 67 -6 91t-80 24h-71l-76 -283q-7 -25 10 -32t66 -9h7l-3 -14h-361l3 14q65 2 84 8.5t26 32.5l158 589q3 13 -1 20.5t-25 13t-63 6.5z" />
    <glyph glyph-name="S" unicode="S" horiz-adv-x="595" 
d="M-16 -16l80 275h16q34 -134 82 -194t129 -60q61 0 103.5 31t42.5 86q0 30 -11 54t-37.5 45t-44.5 32t-58 32t-61 34.5t-49 37.5t-40.5 53t-12.5 66q0 92 73.5 163t188.5 71q99 0 183 -41l56 47h16l-61 -251h-18q-40 127 -87.5 176.5t-108.5 49.5q-53 0 -86.5 -28.5
t-33.5 -81.5q0 -24 10 -44t36 -40t41 -29.5t55 -31.5t62 -37t50 -40t41 -55.5t13 -67.5q0 -104 -72.5 -176.5t-196.5 -72.5q-128 0 -230 53l-54 -56h-16z" />
    <glyph glyph-name="T" unicode="T" horiz-adv-x="745" 
d="M242 55l167 624h-17q-49 0 -108.5 -52t-163.5 -186h-19l71 256h650l-68 -256h-16q-41 148 -70 193t-80 45h-11l-167 -624q-7 -26 12 -32.5t99 -8.5l-3 -14h-410l3 14q80 2 102 8.5t29 32.5z" />
    <glyph glyph-name="U" unicode="U" horiz-adv-x="821" 
d="M387 644l-101 -377q-17 -65 -17 -109q0 -140 152 -140q169 0 229 222l84 313q16 61 -7 94t-94 37l3 13h282l-3 -13q-68 -7 -101.5 -35.5t-51.5 -94.5l-89 -333q-33 -124 -106 -181t-202 -57q-123 0 -190 50.5t-66 152.5q0 44 16 106l94 352q3 13 -1 20.5t-25 13t-63 6.5
l3 13h361l-3 -13q-55 -3 -77 -12.5t-27 -27.5z" />
    <glyph glyph-name="V" unicode="V" horiz-adv-x="724" 
d="M861 684q-55 -7 -94 -38t-89 -107l-360 -549h-66l-80 620q-5 40 -21.5 53.5t-73.5 20.5l3 13h375l-3 -13q-69 -3 -92.5 -16.5t-20.5 -42.5l55 -470h6l238 369q43 68 27.5 110.5t-78.5 49.5l3 13h274z" />
    <glyph glyph-name="W" unicode="W" horiz-adv-x="1057" 
d="M341 624l30 -441h6l202 321l-9 105q-3 43 -17.5 58.5t-61.5 16.5l3 13h343l-3 -13q-58 -3 -79.5 -17.5t-19.5 -42.5l30 -439h6l198 340q30 52 32 86t-17.5 50.5t-60.5 22.5l3 13h263l-3 -13q-57 -7 -95 -38t-82 -106l-324 -550h-64l-39 474l-293 -474h-66l-47 619
q-3 41 -18 54.5t-71 20.5l3 13h345l-3 -13q-54 -3 -73.5 -17.5t-17.5 -42.5z" />
    <glyph glyph-name="X" unicode="X" horiz-adv-x="730" 
d="M314 0l3 14q72 4 90 18t7 47l-72 218l-164 -170q-42 -44 -33.5 -76t62.5 -37l-3 -14h-272l3 14q60 7 110.5 36.5t108.5 88.5l179 183l-107 290q-14 37 -34.5 51.5t-72.5 20.5l3 13h370l-3 -13q-73 -4 -91 -18t-6 -48l70 -201l151 154q33 34 37 59t-15 37.5t-56 16.5l3 13
h272l-3 -13q-60 -7 -106 -34.5t-108 -90.5l-166 -167l109 -307q13 -37 33.5 -51t73.5 -20l-3 -14h-370z" />
    <glyph glyph-name="Y" unicode="Y" horiz-adv-x="696" 
d="M639 538l-185 -235l-66 -248q-7 -26 9.5 -32.5t83.5 -8.5l-3 -14h-375l3 14q67 2 86.5 8.5t26.5 32.5l68 248l-92 309q-11 39 -28.5 51t-75.5 21l3 13h363l-3 -13q-71 -2 -90.5 -18.5t-10.5 -44.5l92 -296l166 217q48 62 43 94.5t-67 47.5l3 13h251l-3 -13
q-51 -8 -98 -42.5t-101 -103.5z" />
    <glyph glyph-name="Z" unicode="Z" horiz-adv-x="679" 
d="M577 677h-125q-75 0 -147 -51.5t-168 -178.5l-21 2l75 248h577l2 -18l-608 -659h156q73 0 147 58t168 186l18 -2l-74 -262h-609l-2 18z" />
    <glyph glyph-name="bracketleft" unicode="[" horiz-adv-x="374" 
d="M-16 -165l249 929h305l-6 -20h-167l-238 -889h167l-5 -20h-305z" />
    <glyph glyph-name="backslash" unicode="\" horiz-adv-x="457" 
d="M307 -215l-81 480l-82 481h27l80 -481l83 -480h-27z" />
    <glyph glyph-name="bracketright" unicode="]" horiz-adv-x="374" 
d="M-126 -166l6 20h167l238 889h-167l5 20h305l-249 -929h-305z" />
    <glyph glyph-name="asciicircum" unicode="^" horiz-adv-x="361" 
d="M78 504l226 264h15l96 -264h-24l-113 111l-170 -111h-30z" />
    <glyph glyph-name="underscore" unicode="_" horiz-adv-x="440" 
d="M-61 0l8 31h444l-8 -31h-444z" />
    <glyph glyph-name="grave" unicode="`" horiz-adv-x="238" 
d="M300 524l-92 93q-36 36 -49.5 56t-13.5 39q0 21 17 37.5t42 16.5q27 0 41.5 -24t31.5 -86l37 -132h-14z" />
    <glyph glyph-name="a" unicode="a" horiz-adv-x="571" 
d="M514 310l-64 -208q-10 -32 -10 -45q0 -21 19.5 -26.5t72.5 -1.5v-12q-69 -25 -134 -25q-46 0 -68.5 17t-22.5 60l-4 2q-65 -79 -143 -79q-58 0 -97.5 45t-39.5 122q0 69 26 129.5t66.5 99.5t87.5 61.5t91 22.5q43 0 63.5 -16t35.5 -49l18 51l157 13zM331 437
q-56 0 -104.5 -98t-48.5 -194q0 -90 63 -90q30 0 56 32l83 280q0 25 -14.5 47.5t-34.5 22.5z" />
    <glyph glyph-name="b" unicode="b" horiz-adv-x="550" 
d="M220 12q38 0 74 55t57 128.5t21 133.5q0 89 -63 89q-25 0 -60 -27l-89 -335q4 -21 21.5 -32.5t38.5 -11.5zM527 305q0 -136 -88 -224.5t-236 -88.5q-108 0 -197 60l58 203l97 385q5 23 -11.5 33.5t-70.5 13.5v12l256 18l-81 -303l3 -2q68 60 136 60q58 0 96 -45t38 -122z
" />
    <glyph glyph-name="c" unicode="c" horiz-adv-x="484" 
d="M311 472q79 0 123 -31t44 -84q0 -30 -21.5 -54t-54.5 -24q-35 0 -55.5 18.5t-20.5 50.5q0 23 15 46.5t41 33.5q-22 24 -55 24q-56 0 -103.5 -86t-47.5 -181q0 -70 28 -103.5t90 -33.5q83 0 142 97l14 -8q-34 -69 -92.5 -107t-135.5 -38q-90 0 -144.5 53.5t-54.5 137.5
q0 122 81 205.5t207 83.5z" />
    <glyph glyph-name="d" unicode="d" horiz-adv-x="569" 
d="M631 717l-175 -615q-10 -32 -10 -45q0 -21 19.5 -26.5t72.5 -1.5v-12q-69 -25 -134 -25q-45 0 -68 17t-23 60l-4 2q-65 -79 -143 -79q-56 0 -99.5 46t-43.5 121q0 69 27 129.5t68.5 99.5t89.5 61.5t92 22.5t65 -15.5t32 -45.5l59 229q5 23 -11 33.5t-70 13.5v12zM337 437
q-37 0 -75 -47.5t-61 -115.5t-23 -129q0 -44 19 -67t50 -23q30 0 56 32l81 284q0 24 -13 45t-34 21z" />
    <glyph glyph-name="e" unicode="e" horiz-adv-x="493" 
d="M495 364q0 -65 -80 -103.5t-235 -28.5q-4 -21 -4 -47q0 -70 27.5 -103.5t88.5 -33.5q41 0 84 23.5t72 66.5l12 -11q-38 -64 -99.5 -99.5t-138.5 -35.5q-90 0 -144.5 53.5t-54.5 137.5q0 122 89 205.5t227 83.5q77 0 116.5 -30.5t39.5 -77.5zM330 453q-42 0 -86 -61.5
t-61 -141.5q56 -1 96 12.5t59 37.5t26.5 48t7.5 51q0 54 -42 54z" />
    <glyph glyph-name="f" unicode="f" horiz-adv-x="354" 
d="M423 430h-126l-67 -312q-37 -172 -99.5 -245t-176.5 -73q-67 0 -103 23.5t-36 67.5q0 30 21 50.5t54 20.5q31 0 49.5 -21t18.5 -49q0 -21 -11.5 -38.5t-29.5 -24.5q18 -9 37 -9q63 0 88 113l111 497h-117l9 29h114l10 41q26 109 88 166t157 57q72 0 114.5 -27t42.5 -78
q0 -36 -20.5 -58.5t-56.5 -22.5q-34 0 -55 21t-21 54q0 43 38 72q-15 19 -41 19q-29 0 -49 -32.5t-37 -105.5l-24 -106h127z" />
    <glyph glyph-name="g" unicode="g" horiz-adv-x="555" 
d="M161 0q-59 0 -98.5 43.5t-39.5 120.5q0 68 26 127.5t66.5 98t87.5 60.5t91 22q43 0 63.5 -16t35.5 -49l18 51l157 13l-54 -161l-90 -316q-30 -108 -92 -151t-193 -43q-92 0 -137.5 32.5t-45.5 74.5q0 33 23 57t58 24q34 0 52.5 -21t18.5 -51q0 -21 -12.5 -41t-31.5 -28
q15 -27 74 -27q47 0 76.5 30.5t51.5 102.5l35 113l-4 2q-55 -68 -136 -68zM331 437q-56 0 -104.5 -96.5t-48.5 -190.5q0 -87 64 -87q33 0 57 30l81 274q0 25 -14.5 47.5t-34.5 22.5z" />
    <glyph glyph-name="h" unicode="h" horiz-adv-x="585" 
d="M533 301l-61 -199q-10 -33 -10 -46q0 -20 19.5 -25t72.5 -2v-12q-69 -25 -134 -25q-105 0 -105 71q0 21 9 50l61 200q10 34 10 56q0 40 -36 40q-47 0 -107 -58l-90 -351h-153l47 162l120 478q5 23 -11.5 33.5t-70.5 13.5v12l256 18l-94 -345l3 -2q87 99 181 99
q50 0 77 -26t27 -73q0 -33 -11 -69z" />
    <glyph glyph-name="i" unicode="i" horiz-adv-x="332" 
d="M185 605q0 45 29.5 75t71.5 30q28 0 48.5 -19.5t20.5 -52.5q0 -45 -29.5 -75t-71.5 -30q-28 0 -48.5 19.5t-20.5 52.5zM295 36v-12q-75 -32 -146 -32q-104 0 -104 74q0 18 8 47l81 272q8 25 -13 38t-68 16v12l254 16l-106 -356q-8 -26 -8 -40q0 -24 23 -31.5t79 -3.5z
" />
    <glyph glyph-name="j" unicode="j" horiz-adv-x="312" 
d="M176 605q0 45 29.5 75t71.5 30q28 0 48.5 -19.5t20.5 -52.5q0 -45 -29.5 -75t-71.5 -30q-28 0 -48.5 19.5t-20.5 52.5zM-67 -200q-67 0 -103 23.5t-36 67.5q0 30 21 50.5t54 20.5q31 0 49.5 -21t18.5 -49q0 -21 -10.5 -38t-27.5 -25q18 -9 37 -9q27 0 46.5 24.5
t35.5 88.5l111 452q6 26 -14 38.5t-67 15.5v12l254 16l-122 -471q-24 -96 -81 -146t-166 -50z" />
    <glyph glyph-name="k" unicode="k" horiz-adv-x="553" 
d="M350 717l-118 -444h21q25 0 46.5 20.5t38.5 49.5l35.5 58.5t46.5 50t63 20.5q39 0 60.5 -22t21.5 -53q0 -37 -19 -58.5t-51 -21.5q-31 0 -51 15.5t-20 43.5q0 27 16 48q-24 -4 -44 -27t-32 -48t-30 -48.5t-39 -28.5v-4q163 10 163 -98q0 -13 -3.5 -48t-3.5 -52
q0 -26 15 -34.5t64 -6.5v-12q-69 -25 -124 -25q-62 0 -83.5 24t-21.5 69q0 18 6 57.5t6 47.5q0 39 -15.5 53.5t-53.5 14.5h-16l-66 -258h-153l47 162l120 478q5 23 -11.5 33.5t-70.5 13.5v12z" />
    <glyph glyph-name="l" unicode="l" horiz-adv-x="314" 
d="M360 717l-175 -606q-7 -26 -7 -39q0 -25 23 -32.5t80 -3.5v-12q-75 -32 -146 -32q-104 0 -104 73q0 19 8 48l101 345l48 182q5 23 -11.5 33.5t-70.5 13.5v12z" />
    <glyph glyph-name="m" unicode="m" horiz-adv-x="870" 
d="M289 467l-27 -95l3 -2q87 99 181 99q50 0 76.5 -24t28.5 -66q87 90 174 90q50 0 77.5 -26.5t27.5 -73.5q0 -31 -12 -68l-61 -199q-10 -33 -10 -46q0 -20 19.5 -25t72.5 -2v-12q-69 -25 -134 -25q-105 0 -105 71q0 21 9 50l61 200q11 39 11 55q0 41 -37 41q-39 0 -93 -46
q-2 -18 -6 -34l-95 -329h-149l90 313q10 35 10 58q0 38 -36 38q-47 0 -107 -58l-90 -351h-154l48 162l61 230q6 24 -5.5 34t-55.5 13v12z" />
    <glyph glyph-name="n" unicode="n" horiz-adv-x="591" 
d="M62 162l61 230q6 24 -5.5 34t-55.5 13v12l227 16l-27 -95l3 -2q87 99 181 99q50 0 77 -26t27 -73q0 -33 -11 -69l-61 -199q-10 -33 -10 -46q0 -20 19.5 -25t72.5 -2v-12q-69 -25 -134 -25q-105 0 -105 71q0 21 9 50l61 200q10 34 10 56q0 40 -36 40q-47 0 -107 -58
l-90 -351h-154z" />
    <glyph glyph-name="o" unicode="o" horiz-adv-x="542" 
d="M311 472q97 0 153 -55t56 -147q0 -47 -19 -95t-54 -89.5t-91.5 -67.5t-124.5 -26q-97 0 -153 55t-56 147q0 47 19 95t54 89.5t91.5 67.5t124.5 26zM220 12q45 0 83.5 65.5t57.5 147t19 146.5q0 81 -58 81q-45 0 -83.5 -65.5t-57.5 -147t-19 -146.5q0 -81 58 -81z" />
    <glyph glyph-name="p" unicode="p" horiz-adv-x="571" 
d="M244 22q37 0 73 52t57 124t21 133q0 45 -13 66t-43 21q-14 0 -36 -12.5t-35 -26.5l-81 -309q11 -48 57 -48zM180 40l-49 -183q-3 -11 2 -17.5t27 -11t65 -5.5v-12h-328v12q43 1 57.5 8t18.5 21l42 131l108 409q6 24 -5.5 34t-55.5 13v12l227 16l-17 -60l3 -2
q64 67 140 67q58 0 96.5 -45t38.5 -122q0 -69 -25.5 -129.5t-65.5 -99.5t-87 -61.5t-91 -22.5q-79 0 -101 48z" />
    <glyph glyph-name="q" unicode="q" horiz-adv-x="558" 
d="M334 437q-56 0 -106 -98.5t-50 -193.5q0 -44 17.5 -67t48.5 -23q30 0 56 32l83 280q0 25 -14.5 47.5t-34.5 22.5zM238 -148l63 205l-7 1q-37 -38 -64 -52t-67 -14q-59 0 -99.5 45t-40.5 122q0 69 26.5 129.5t67.5 99.5t88.5 61.5t91.5 22.5q43 0 63.5 -16t35.5 -49l18 51
l157 13l-54 -161l-121 -453q-2 -10 -1.5 -17t18.5 -11.5t61 -5.5v-12h-328v12q84 3 92 29z" />
    <glyph glyph-name="r" unicode="r" horiz-adv-x="487" 
d="M415 473q46 0 71.5 -24.5t25.5 -63.5q0 -43 -24 -69.5t-62 -26.5q-35 0 -57.5 19t-22.5 53q0 36 21 54q-43 -1 -114 -82l-85 -333h-154l48 162l61 230q6 24 -5.5 34t-55.5 13v12l227 16l-31 -105l2 -2q68 113 155 113z" />
    <glyph glyph-name="s" unicode="s" horiz-adv-x="452" 
d="M180 -8q-77 0 -128 25t-51 70q0 29 20.5 49.5t52.5 20.5q28 0 47.5 -17t19.5 -42q0 -35 -29 -55q36 -31 86 -31q47 0 74 21t27 58q0 16 -6.5 27.5t-23.5 21.5t-27 14t-37 14q-5 2 -8 3q-67 23 -99 53t-32 82q0 73 58.5 119.5t155.5 46.5q79 0 123 -27t44 -67
q0 -30 -18 -51t-53 -21q-27 0 -46.5 17.5t-19.5 38.5q0 37 33 59q-24 31 -76 31q-48 0 -73.5 -22.5t-25.5 -57.5q0 -19 17 -35t34.5 -23.5t53.5 -20.5q71 -28 102.5 -57.5t31.5 -75.5q0 -75 -54.5 -121.5t-172.5 -46.5z" />
    <glyph glyph-name="t" unicode="t" horiz-adv-x="379" 
d="M424 430h-129l-76 -272q-10 -34 -10 -58q0 -49 60 -49q37 0 90 15v-12q-107 -62 -191 -62q-115 0 -115 94q0 31 12 70l80 274h-95l9 29h95l43 153l161 21l-55 -174h130z" />
    <glyph glyph-name="u" unicode="u" horiz-adv-x="592" 
d="M49 160l74 227q8 25 -5.5 37t-59.5 15l1 12l237 16l-99 -319q-9 -28 -9 -46q0 -41 41 -41q51 0 101 49l57 197l42 158h154l-109 -363q-10 -33 -10 -45q0 -20 19.5 -25.5t72.5 -2.5v-12q-69 -25 -134 -25q-46 0 -73.5 16t-27.5 49q0 14 6 32l-3 2q-87 -99 -182 -99
q-50 0 -78 25t-28 72q0 32 13 71z" />
    <glyph glyph-name="v" unicode="v" horiz-adv-x="514" 
d="M241 -17l-114 12l-11 155l-27 227q-6 33 -22 44.5t-60 12.5v12l220 24l31 -285l6 -129h4l43 61q75 107 100 189q-59 24 -59 83q0 38 22.5 61t62.5 23q33 0 55 -23.5t22 -55.5q0 -35 -18.5 -69.5t-85.5 -120.5z" />
    <glyph glyph-name="w" unicode="w" horiz-adv-x="777" 
d="M524 -17l-114 12l-11 155l-6 50l-152 -217l-114 12l-11 155l-27 227q-6 33 -22 44.5t-60 12.5v12l220 24l31 -285l6 -129h4l66 107q24 38 51 107l-22 184l150 16l28 -285l6 -129h4l43 61q75 106 100 189q-59 24 -59 83q0 38 22.5 61t62.5 23q33 0 55 -23.5t22 -55.5
q0 -35 -18 -68t-86 -122z" />
    <glyph glyph-name="x" unicode="x" horiz-adv-x="537" 
d="M259 468l61 -190h4l30 75q24 60 54 90.5t75 30.5q38 0 60.5 -23.5t22.5 -56.5q0 -34 -22 -58t-53 -24t-51.5 19.5t-19.5 60.5q-34 -21 -65 -92l-22 -50l57 -137q26 -62 44 -77.5t69 -18.5v-11l-216 -15l-60 189h-4l-35 -76q-30 -66 -63 -93.5t-74 -27.5q-39 0 -62.5 22.5
t-23.5 54.5q0 35 21 58t58 23q34 0 54 -27t14 -62q11 8 32 35.5t37 58.5l30 56l-72 174q-14 32 -32 45t-61 15v12z" />
    <glyph glyph-name="y" unicode="y" horiz-adv-x="505" 
d="M219 470l44 -239l26 -185h4l35 54q80 123 90 205q-33 8 -53 31t-20 53q0 37 22.5 60.5t60.5 23.5q35 0 56.5 -23t21.5 -56q0 -42 -27.5 -96.5t-110.5 -183.5q-81 -127 -144 -196.5t-111 -93.5t-106 -24q-50 0 -78.5 24.5t-28.5 66.5q0 35 23.5 59.5t58.5 24.5
q33 0 55 -22.5t22 -57.5q0 -43 -36 -68q89 0 149 77l-49 276l-40 197q-6 33 -23 44.5t-61 12.5v12z" />
    <glyph glyph-name="z" unicode="z" horiz-adv-x="458" 
d="M-1 -15l-14 31l372 336l-2 6l-154 -4q-55 -1 -81 -16.5t-60 -65.5l-14 2l54 190h368l6 -41l-364 -324l2 -4q35 20 90 20q24 0 67.5 -3t57.5 -3q36 0 55.5 14.5t35.5 58.5l12 -2q-6 -61 -16.5 -100t-27 -57t-32.5 -24t-40 -6q-48 0 -115 4.5t-88 4.5q-78 0 -112 -17z" />
    <glyph glyph-name="braceleft" unicode="{" horiz-adv-x="401" 
d="M330 -169q-117 0 -178 40t-61 107q0 43 34 136.5t34 131.5q0 36 -25.5 51.5t-92.5 21.5l3 16q65 6 97 14.5t51 27.5q21 21 30 63.5t11.5 85t20 93.5t52.5 86q32 32 83.5 45.5t172.5 13.5l-3 -14q-79 0 -116 -37q-28 -28 -43 -74.5t-19 -88t-19 -88.5t-43 -75
q-30 -30 -75.5 -43t-135.5 -17l-4 -5q103 -8 143.5 -40t40.5 -85q0 -37 -25 -122t-25 -123q0 -52 20.5 -77.5t74.5 -29.5z" />
    <glyph glyph-name="bar" unicode="|" horiz-adv-x="306" 
d="M140 746h26v-961h-26v961z" />
    <glyph glyph-name="braceright" unicode="}" horiz-adv-x="401" 
d="M-126 -169l3 14q76 0 115 39q28 28 43.5 78t20.5 96t21 96t44 78q30 30 76.5 43.5t134.5 16.5l4 5q-103 8 -143.5 40t-40.5 85q0 37 23 110t23 111q0 52 -21 78t-75 30l4 13q117 0 178 -40t61 -107q0 -43 -32 -124.5t-32 -119.5q0 -36 25.5 -51.5t92.5 -21.5l-3 -16
q-64 -5 -96.5 -14t-52.5 -29q-21 -21 -30.5 -67t-12.5 -92.5t-21 -100.5t-53 -89q-32 -32 -84 -46.5t-172 -14.5z" />
    <glyph glyph-name="asciitilde" unicode="~" horiz-adv-x="385" 
d="M45 240q14 79 41 113.5t70 34.5q26 0 85.5 -27.5t77.5 -27.5q25 0 36 10.5t26 49.5h12q-14 -81 -40 -114.5t-70 -33.5q-26 0 -86 26.5t-78 26.5q-25 0 -36 -10.5t-26 -47.5h-12z" />
    <glyph glyph-name="uni00A0" unicode="&#xa0;" horiz-adv-x="184" 
 />
    <glyph glyph-name="exclamdown" unicode="&#xa1;" horiz-adv-x="288" 
d="M253 551q-38 0 -63.5 25t-25.5 61t26.5 62t64.5 26t63.5 -25t25.5 -61t-26.5 -62t-64.5 -26zM208 504l16 -4q-9 -66 -19 -233t-20 -203q-10 -38 -34 -59.5t-55 -21.5q-36 0 -57.5 22t-21.5 60q0 37 31 106.5t83 170.5t77 162z" />
    <glyph glyph-name="cent" unicode="&#xa2;" horiz-adv-x="569" 
d="M257 -88l-26 5l19 77q-88 8 -140 61.5t-52 137.5q0 120 85 199.5t213 79.5q2 0 6.5 -0.5t7.5 -0.5l16 66l26 -5l-16 -62q75 -9 118.5 -47t43.5 -92q0 -31 -21 -55.5t-55 -24.5t-55 19t-21 48q0 27 15 49t42 32q-29 45 -72 51l-98 -393q26 -9 56 -9q41 0 83 25.5t70 70.5
l14 -8q-32 -67 -96 -105.5t-143 -38.5h-1zM211 195q0 -86 58 -125l96 382q-63 -5 -108.5 -83.5t-45.5 -173.5z" />
    <glyph glyph-name="sterling" unicode="&#xa3;" horiz-adv-x="620" 
d="M502 334h-144v-15q0 -61 -38.5 -108.5t-115.5 -73.5q33 -2 107 -9t136 -7q61 0 87.5 21t50.5 77l17 -3q-29 -123 -72.5 -176.5t-125.5 -53.5q-70 0 -119 28t-106 86q-32 -60 -65 -87t-75 -27q-29 0 -45.5 17.5t-16.5 42.5q0 40 39.5 66.5t104.5 26.5q39 0 55 -1
q25 44 25 95q0 27 -17 101h-110l7 21h99q-10 45 -10 92q0 99 80.5 166.5t207.5 67.5q88 0 138 -43.5t50 -107.5q0 -47 -28 -75.5t-68 -28.5t-64 22.5t-24 60.5q0 39 26 65t69 26q-8 25 -35 43t-62 18q-58 0 -90.5 -39t-32.5 -112q0 -26 8.5 -80t10.5 -75h153z" />
    <glyph glyph-name="yen" unicode="&#xa5;" horiz-adv-x="693" 
d="M616 215h-205l-39 -152q-7 -26 10 -36t80 -14l-4 -13h-359l2 13q64 4 87 14.5t29 35.5l39 152h-202l6 21h202l16 62l-4 14h-194l6 21h183l-67 254q-8 32 -25.5 45.5t-60.5 22.5l4 13h359l-4 -13q-71 -3 -92 -16.5t-15 -38.5l65 -269l165 207q40 48 32.5 77.5t-70.5 38.5
l4 14h235l-4 -13q-51 -11 -90.5 -40.5t-90.5 -92.5l-151 -189h185l-6 -21h-196l-14 -18l-15 -58h205z" />
    <glyph glyph-name="brokenbar" unicode="&#xa6;" horiz-adv-x="306" 
d="M166 337h-26v409h26v-409zM140 194h26v-409h-26v409z" />
    <glyph glyph-name="section" unicode="&#xa7;" horiz-adv-x="620" 
d="M248 -136q-119 0 -171.5 38t-52.5 86q0 32 20 57.5t56 25.5q30 0 47 -17.5t17 -41.5q0 -50 -42 -71q11 -21 46.5 -38t82.5 -17q70 0 108.5 31.5t38.5 72.5q0 21 -10.5 37t-34 29t-42 20t-53.5 19q-36 12 -60.5 22.5t-50.5 28t-39.5 42.5t-13.5 57q0 52 36 92t107 58
q-59 39 -59 106q0 73 69.5 126.5t174.5 53.5q103 0 155 -36t52 -87q0 -31 -19 -53.5t-53 -22.5q-31 0 -49 17.5t-18 42.5q0 23 11 40.5t27 24.5q-10 22 -38.5 37t-72.5 15q-62 0 -98.5 -28t-36.5 -70q0 -17 9 -31t30.5 -26.5t38 -19.5l49.5 -20q93 -36 130 -68t37 -93
q0 -46 -32.5 -85t-99.5 -63q54 -40 54 -101q0 -77 -69 -133.5t-181 -56.5zM466 241q0 40 -29.5 62.5t-96.5 47.5q-69 26 -86 35q-48 -27 -48 -76q0 -60 124 -103q62 -21 98 -41q38 28 38 75z" />
    <glyph glyph-name="dieresis" unicode="&#xa8;" horiz-adv-x="418" 
d="M402 529q-26 0 -45.5 18.5t-19.5 49.5q0 43 27.5 71t67.5 28q26 0 45.5 -18.5t19.5 -49.5q0 -43 -27.5 -71t-67.5 -28zM189 529q-26 0 -45.5 18.5t-19.5 49.5q0 43 27.5 71t67.5 28q26 0 45.5 -18.5t19.5 -49.5q0 -43 -27.5 -71t-67.5 -28z" />
    <glyph glyph-name="copyright" unicode="&#xa9;" horiz-adv-x="838" 
d="M426 149q-72 0 -119 45t-47 123q0 91 67 164t178 73q12 0 23 -1.5l18 -2.5t18 -5.5l13.5 -5.5t14.5 -7l13 -6l26 27h16l-34 -148h-15q-22 82 -42 108.5t-54 26.5q-51 0 -96.5 -76t-45.5 -169q0 -117 100 -117q79 0 141 85l11 -9q-32 -48 -81.5 -76.5t-104.5 -28.5z
M409 -34q-147 0 -240.5 92t-93.5 233q0 118 51.5 218t147.5 161t217 61q147 0 240.5 -92t93.5 -233q0 -118 -51.5 -218t-147.5 -161t-217 -61zM410 -17q116 0 207 58.5t139.5 154.5t48.5 209q0 134 -88 221.5t-227 87.5q-116 0 -207 -58.5t-139.5 -154.5t-48.5 -209
q0 -134 88 -221.5t227 -87.5z" />
    <glyph glyph-name="ordfeminine" unicode="&#xaa;" horiz-adv-x="473" 
d="M186 331q-48 0 -77 33t-29 92q0 102 65.5 168.5t140.5 66.5q32 0 48.5 -12.5t27.5 -36.5l15 40l122 10l-40 -121l-49 -158q-13 -38 -2 -48.5t64 -6.5v-9q-50 -18 -103 -18q-71 0 -71 57l-3 2q-49 -59 -109 -59zM249 381q23 0 42 24l61 204q0 21 -9.5 36.5t-27.5 15.5
q-43 0 -78.5 -72t-35.5 -144q0 -64 48 -64z" />
    <glyph glyph-name="guillemotleft" unicode="&#xab;" horiz-adv-x="514" 
d="M406 21l-149 177q-22 26 -22 36t37 34l239 161l10 -11l-155 -190l55 -198zM201 27l-147 175q-21 25 -21 36q0 9 35 32l239 157l10 -11l-156 -186l55 -194z" />
    <glyph glyph-name="registered" unicode="&#xae;" horiz-adv-x="377" 
d="M247 423q-60 0 -99 39t-39 99q0 71 49.5 120.5t120.5 49.5q60 0 99 -39t39 -99q0 -71 -49.5 -120.5t-120.5 -49.5zM248 435q64 0 109.5 46t45.5 111q0 55 -35 91t-90 36q-64 0 -109.5 -46t-45.5 -111q0 -55 35 -91t90 -36zM252 586h14q43 0 43 46q0 24 -30 24h-10z
M250 578l-14 -60q-1 -4 2 -6.5t13 -2.5l-2 -7h-80l2 7q24 0 26 9l33 128q3 8 -25 11l2 7h79q62 0 62 -39q0 -35 -57 -42l-1 -3q37 -3 37 -29v-25q0 -11 3 -15t14 -4l-2 -7q-6 -2 -24 -2q-32 0 -31 33l1 16q1 17 -4 24t-20 7h-14z" />
    <glyph glyph-name="macron" unicode="&#xaf;" horiz-adv-x="321" 
d="M99 554l13 51h308l-13 -51h-308z" />
    <glyph glyph-name="degree" unicode="&#xb0;" horiz-adv-x="396" 
d="M429 597q0 -76 -58.5 -130t-138.5 -54q-59 0 -99 30.5t-40 94.5q0 76 58.5 130t138.5 54q59 0 99 -30.5t40 -94.5zM186 509q0 -39 13.5 -56.5t33.5 -17.5q30 0 55 36t36.5 79t11.5 76q0 39 -13.5 56.5t-33.5 17.5q-30 0 -55 -36t-36.5 -79t-11.5 -76z" />
    <glyph glyph-name="plusminus" unicode="&#xb1;" horiz-adv-x="530" 
d="M357 529l-52 -193h193l-6 -22h-193l-52 -196h-26l52 196h-193l6 22h193l52 193h26zM408 0h-411l6 22h411z" />
    <glyph glyph-name="acute" unicode="&#xb4;" horiz-adv-x="238" 
d="M115 524l64 126q39 76 55.5 97t45.5 21q23 0 39.5 -16t16.5 -37t-19.5 -41.5t-90.5 -75.5l-95 -74h-16z" />
    <glyph glyph-name="paragraph" unicode="&#xb6;" horiz-adv-x="706" 
d="M303 -99l77 286q-120 10 -185.5 62.5t-65.5 137.5q0 114 99 197.5t273 83.5h275l-3 -12q-75 -5 -102 -16.5t-36 -44.5l-186 -694h-26l200 747h-93l-200 -747h-27z" />
    <glyph glyph-name="periodcentered" unicode="&#xb7;" horiz-adv-x="273" 
d="M160 232q-38 0 -63.5 25t-25.5 61t26.5 62t64.5 26t63.5 -25t25.5 -61t-26.5 -62t-64.5 -26z" />
    <glyph glyph-name="cedilla" unicode="&#xb8;" horiz-adv-x="282" 
d="M32 -243q-62 0 -105 26l9 15q38 -23 76 -23q30 0 46.5 13.5t16.5 34.5q0 22 -23.5 35.5t-62.5 13.5q-11 0 -29 -2l-1 11l153 124h26l-80 -63v-4q56 -8 84.5 -27.5t28.5 -55.5q0 -45 -42.5 -71.5t-96.5 -26.5z" />
    <glyph glyph-name="ordmasculine" unicode="&#xba;" horiz-adv-x="460" 
d="M245 330q-75 0 -118.5 40.5t-43.5 106.5q0 50 24 98t76 82t122 34q77 0 119.5 -41.5t42.5 -114.5q0 -75 -60 -140t-162 -65zM238 347q34 0 62.5 48.5t42 108.5t13.5 109q0 61 -44 61q-49 0 -83.5 -92.5t-34.5 -173.5q0 -61 44 -61z" />
    <glyph glyph-name="guillemotright" unicode="&#xbb;" horiz-adv-x="512" 
d="M217 28l-10 11l156 186l-55 194l15 9l147 -175q21 -25 21 -36q0 -9 -35 -32zM13 26l-10 11l155 190l-55 198l15 9l149 -177q22 -26 22 -36t-37 -34z" />
    <glyph glyph-name="questiondown" unicode="&#xbf;" horiz-adv-x="524" 
d="M376 508l27 -6l-42 -128q-95 -33 -141 -108t-46 -158q0 -98 103 -98q37 0 71 18t48 41q-73 14 -73 83q0 34 22.5 58.5t59.5 24.5q38 0 63.5 -25t25.5 -63q0 -66 -64 -112t-158 -46q-116 0 -183 53t-67 137q0 87 84 139.5t231 68.5zM423 729q38 0 63.5 -25t25.5 -61
t-26.5 -62t-64.5 -26t-63.5 25t-25.5 61t26.5 62t64.5 26z" />
    <glyph glyph-name="Agrave" unicode="&#xc0;" 
d="M-73 0l3 14q54 7 96.5 40.5t83.5 100.5l345 556h93l72 -624q5 -40 21.5 -53t73.5 -20l-3 -14h-375l3 14q70 3 92.5 17t19.5 45l-21 188h-226l-70 -118q-72 -120 50 -132l-3 -14h-255zM429 284l-32 291h-6l-174 -291h212zM532 764l-92 93q-36 36 -49.5 56t-13.5 39
q0 21 17 37.5t42 16.5q27 0 41.5 -24t31.5 -86l37 -132h-14z" />
    <glyph glyph-name="Aacute" unicode="&#xc1;" 
d="M-73 0l3 14q54 7 96.5 40.5t83.5 100.5l345 556h93l72 -624q5 -40 21.5 -53t73.5 -20l-3 -14h-375l3 14q70 3 92.5 17t19.5 45l-21 188h-226l-70 -118q-72 -120 50 -132l-3 -14h-255zM429 284l-32 291h-6l-174 -291h212zM457 764l64 126q39 76 55.5 97t45.5 21
q23 0 39.5 -16t16.5 -37t-19.5 -41.5t-90.5 -75.5l-95 -74h-16z" />
    <glyph glyph-name="Acircumflex" unicode="&#xc2;" 
d="M-73 0l3 14q54 7 96.5 40.5t83.5 100.5l345 556h93l72 -624q5 -40 21.5 -53t73.5 -20l-3 -14h-375l3 14q70 3 92.5 17t19.5 45l-21 188h-226l-70 -118q-72 -120 50 -132l-3 -14h-255zM429 284l-32 291h-6l-174 -291h212zM355 764l206 217h13l84 -217h-16l-110 86
l-155 -86h-22z" />
    <glyph glyph-name="Atilde" unicode="&#xc3;" 
d="M-73 0l3 14q54 7 96.5 40.5t83.5 100.5l345 556h93l72 -624q5 -40 21.5 -53t73.5 -20l-3 -14h-375l3 14q70 3 92.5 17t19.5 45l-21 188h-226l-70 -118q-72 -120 50 -132l-3 -14h-255zM429 284l-32 291h-6l-174 -291h212zM366 767q16 80 43 114t70 34q25 0 79.5 -28.5
t71.5 -28.5q24 0 33 9t26 49h16q-15 -81 -41.5 -114.5t-70.5 -33.5q-25 0 -79.5 28.5t-71.5 28.5q-24 0 -33.5 -9.5t-26.5 -48.5h-16z" />
    <glyph glyph-name="Adieresis" unicode="&#xc4;" 
d="M-73 0l3 14q54 7 96.5 40.5t83.5 100.5l345 556h93l72 -624q5 -40 21.5 -53t73.5 -20l-3 -14h-375l3 14q70 3 92.5 17t19.5 45l-21 188h-226l-70 -118q-72 -120 50 -132l-3 -14h-255zM429 284l-32 291h-6l-174 -291h212zM630 769q-26 0 -45.5 18.5t-19.5 49.5
q0 43 27.5 71t67.5 28q26 0 45.5 -18.5t19.5 -49.5q0 -43 -27.5 -71t-67.5 -28zM417 769q-26 0 -45.5 18.5t-19.5 49.5q0 43 27.5 71t67.5 28q26 0 45.5 -18.5t19.5 -49.5q0 -43 -27.5 -71t-67.5 -28z" />
    <glyph glyph-name="Aring" unicode="&#xc5;" 
d="M205 264l-70 -118q-72 -120 50 -132l-3 -14h-255l3 13q54 7 96.5 41t83.5 101l342 551q-61 21 -61 90q0 59 45.5 101t107.5 42q46 0 76.5 -23.5t30.5 -73.5q0 -46 -29 -83t-74 -52l72 -620q5 -40 21.5 -53.5t73.5 -20.5l-3 -13h-375l3 13q69 3 92 17.5t20 45.5l-21 188
h-226zM429 284l-32 291h-6l-174 -291h212zM499 717q34 0 55.5 51.5t21.5 96.5q0 56 -33 56q-34 0 -55.5 -51t-21.5 -96q0 -57 33 -57z" />
    <glyph glyph-name="AE" unicode="&#xc6;" horiz-adv-x="1119" 
d="M894 217h-15q-21 93 -37 117t-71 24h-46l-90 -337h116q97 0 168 60t149 182h17l-71 -263h-651l3 14q65 2 84 8.5t26 32.5l61 229h-247l-121 -138q-45 -52 -45 -84q0 -42 79 -48l-3 -14h-269l3 14q65 14 106.5 43t102.5 98l386 436q26 29 26 48q0 38 -102 45l3 13h705
l-62 -248h-16q-23 120 -58.5 173.5t-117.5 53.5h-97l-80 -298h46q39 0 66 13t48 35.5t64 78.5h15zM542 304l98 364h-11l-321 -364h234z" />
    <glyph glyph-name="Ccedilla" unicode="&#xc7;" horiz-adv-x="727" 
d="M297 -243q-62 0 -105 26l9 15q38 -23 76 -23q30 0 46.5 13.5t16.5 34.5q0 22 -23.5 35.5t-62.5 13.5q-11 0 -29 -2l-1 11l126 102q-128 2 -208 83t-80 221q0 76 31 151t86.5 137t142 100.5t188.5 38.5q60 0 98 -11.5t81 -35.5l60 44h16l-67 -265h-16q-40 146 -78.5 196.5
t-99.5 50.5q-63 0 -126 -70.5t-102 -174.5t-39 -199q0 -226 179 -226q63 0 131.5 40.5t128.5 120.5l17 -11q-56 -81 -140 -132.5t-177 -56.5l-53 -42v-4q56 -8 84.5 -27.5t28.5 -55.5q0 -45 -42.5 -71.5t-96.5 -26.5z" />
    <glyph glyph-name="Egrave" unicode="&#xc8;" horiz-adv-x="725" 
d="M154 697h613l-62 -248h-16q-23 120 -58.5 173.5t-117.5 53.5h-97l-80 -298h46q39 0 66 13t48 35.5t64 78.5h15l-75 -288h-15q-21 93 -37 117t-71 24h-46l-90 -337h116q97 0 168 60t149 182h17l-71 -263h-651l3 14q65 2 84 8.5t26 32.5l158 589q3 13 -1 20.5t-25 13
t-63 6.5zM529 764l-92 93q-36 36 -49.5 56t-13.5 39q0 21 17 37.5t42 16.5q27 0 41.5 -24t31.5 -86l37 -132h-14z" />
    <glyph glyph-name="Eacute" unicode="&#xc9;" horiz-adv-x="725" 
d="M154 697h613l-62 -248h-16q-23 120 -58.5 173.5t-117.5 53.5h-97l-80 -298h46q39 0 66 13t48 35.5t64 78.5h15l-75 -288h-15q-21 93 -37 117t-71 24h-46l-90 -337h116q97 0 168 60t149 182h17l-71 -263h-651l3 14q65 2 84 8.5t26 32.5l158 589q3 13 -1 20.5t-25 13
t-63 6.5zM454 764l64 126q39 76 55.5 97t45.5 21q23 0 39.5 -16t16.5 -37t-19.5 -41.5t-90.5 -75.5l-95 -74h-16z" />
    <glyph glyph-name="Ecircumflex" unicode="&#xca;" horiz-adv-x="725" 
d="M154 697h613l-62 -248h-16q-23 120 -58.5 173.5t-117.5 53.5h-97l-80 -298h46q39 0 66 13t48 35.5t64 78.5h15l-75 -288h-15q-21 93 -37 117t-71 24h-46l-90 -337h116q97 0 168 60t149 182h17l-71 -263h-651l3 14q65 2 84 8.5t26 32.5l158 589q3 13 -1 20.5t-25 13
t-63 6.5zM351 764l206 217h13l84 -217h-16l-110 86l-155 -86h-22z" />
    <glyph glyph-name="Edieresis" unicode="&#xcb;" horiz-adv-x="725" 
d="M154 697h613l-62 -248h-16q-23 120 -58.5 173.5t-117.5 53.5h-97l-80 -298h46q39 0 66 13t48 35.5t64 78.5h15l-75 -288h-15q-21 93 -37 117t-71 24h-46l-90 -337h116q97 0 168 60t149 182h17l-71 -263h-651l3 14q65 2 84 8.5t26 32.5l158 589q3 13 -1 20.5t-25 13
t-63 6.5zM627 769q-26 0 -45.5 18.5t-19.5 49.5q0 43 27.5 71t67.5 28q26 0 45.5 -18.5t19.5 -49.5q0 -43 -27.5 -71t-67.5 -28zM414 769q-26 0 -45.5 18.5t-19.5 49.5q0 43 27.5 71t67.5 28q26 0 45.5 -18.5t19.5 -49.5q0 -43 -27.5 -71t-67.5 -28z" />
    <glyph glyph-name="Igrave" unicode="&#xcc;" horiz-adv-x="447" 
d="M534 684q-61 -2 -85 -11.5t-29 -28.5l-158 -589q-7 -26 9.5 -32.5t83.5 -8.5l-3 -14h-375l3 14q67 2 86.5 8.5t26.5 32.5l159 589q3 13 -1.5 20.5t-26.5 13t-65 6.5l3 13h375zM386 764l-92 93q-36 36 -49.5 56t-13.5 39q0 21 17 37.5t42 16.5q27 0 41.5 -24t31.5 -86
l37 -132h-14z" />
    <glyph glyph-name="Iacute" unicode="&#xcd;" horiz-adv-x="447" 
d="M534 684q-61 -2 -85 -11.5t-29 -28.5l-158 -589q-7 -26 9.5 -32.5t83.5 -8.5l-3 -14h-375l3 14q67 2 86.5 8.5t26.5 32.5l159 589q3 13 -1.5 20.5t-26.5 13t-65 6.5l3 13h375zM311 764l64 126q39 76 55.5 97t45.5 21q23 0 39.5 -16t16.5 -37t-19.5 -41.5t-90.5 -75.5
l-95 -74h-16z" />
    <glyph glyph-name="Icircumflex" unicode="&#xce;" horiz-adv-x="447" 
d="M534 684q-61 -2 -85 -11.5t-29 -28.5l-158 -589q-7 -26 9.5 -32.5t83.5 -8.5l-3 -14h-375l3 14q67 2 86.5 8.5t26.5 32.5l159 589q3 13 -1.5 20.5t-26.5 13t-65 6.5l3 13h375zM208 764l206 217h13l84 -217h-16l-110 86l-155 -86h-22z" />
    <glyph glyph-name="Idieresis" unicode="&#xcf;" horiz-adv-x="447" 
d="M534 684q-61 -2 -85 -11.5t-29 -28.5l-158 -589q-7 -26 9.5 -32.5t83.5 -8.5l-3 -14h-375l3 14q67 2 86.5 8.5t26.5 32.5l159 589q3 13 -1.5 20.5t-26.5 13t-65 6.5l3 13h375zM484 769q-26 0 -45.5 18.5t-19.5 49.5q0 43 27.5 71t67.5 28q26 0 45.5 -18.5t19.5 -49.5
q0 -43 -27.5 -71t-67.5 -28zM271 769q-26 0 -45.5 18.5t-19.5 49.5q0 43 27.5 71t67.5 28q26 0 45.5 -18.5t19.5 -49.5q0 -43 -27.5 -71t-67.5 -28z" />
    <glyph glyph-name="Eth" unicode="&#xd0;" horiz-adv-x="788" 
d="M82 55l79 295h-95l6 26h96l72 268q3 13 -1 20.5t-25 13t-63 6.5l3 13h329q132 0 221 -75t89 -206q0 -78 -32.5 -156.5t-92.5 -138.5q-121 -121 -298 -121h-401l3 14q65 2 84 8.5t26 32.5zM240 19h99q79 0 141 62q72 73 108.5 202t36.5 222q0 173 -149 173h-59l-81 -302
h137l-6 -26h-138z" />
    <glyph glyph-name="Ntilde" unicode="&#xd1;" horiz-adv-x="813" 
d="M383 697l265 -518h1l96 363q20 76 -2 107t-96 35l3 13h282l-3 -13q-66 -7 -102 -41t-54 -100l-148 -552h-66l-298 583h-1l-112 -419q-20 -76 2 -106.5t96 -34.5l-3 -14h-282l3 14q66 7 102 40.5t54 99.5l115 431q10 37 -13 66t-78 33l3 13h236zM414 767q16 80 43 114
t70 34q25 0 79.5 -28.5t71.5 -28.5q24 0 33 9t26 49h16q-15 -81 -41.5 -114.5t-70.5 -33.5q-25 0 -79.5 28.5t-71.5 28.5q-24 0 -33.5 -9.5t-26.5 -48.5h-16z" />
    <glyph glyph-name="Ograve" unicode="&#xd2;" horiz-adv-x="783" 
d="M365 -17q-132 0 -217.5 76.5t-85.5 215.5q0 58 18 119t54 118t85.5 102.5t119 72.5t146.5 27q132 0 217.5 -76.5t85.5 -215.5q0 -58 -18 -119t-54 -118t-85.5 -102.5t-119 -72.5t-146.5 -27zM336 4q81 0 149 88.5t103 207.5t35 228q0 165 -109 165q-81 0 -149 -88.5
t-103 -207.5t-35 -228q0 -165 109 -165zM554 764l-92 93q-36 36 -49.5 56t-13.5 39q0 21 17 37.5t42 16.5q27 0 41.5 -24t31.5 -86l37 -132h-14z" />
    <glyph glyph-name="Oacute" unicode="&#xd3;" horiz-adv-x="783" 
d="M365 -17q-132 0 -217.5 76.5t-85.5 215.5q0 58 18 119t54 118t85.5 102.5t119 72.5t146.5 27q132 0 217.5 -76.5t85.5 -215.5q0 -58 -18 -119t-54 -118t-85.5 -102.5t-119 -72.5t-146.5 -27zM336 4q81 0 149 88.5t103 207.5t35 228q0 165 -109 165q-81 0 -149 -88.5
t-103 -207.5t-35 -228q0 -165 109 -165zM479 764l64 126q39 76 55.5 97t45.5 21q23 0 39.5 -16t16.5 -37t-19.5 -41.5t-90.5 -75.5l-95 -74h-16z" />
    <glyph glyph-name="Ocircumflex" unicode="&#xd4;" horiz-adv-x="783" 
d="M365 -17q-132 0 -217.5 76.5t-85.5 215.5q0 58 18 119t54 118t85.5 102.5t119 72.5t146.5 27q132 0 217.5 -76.5t85.5 -215.5q0 -58 -18 -119t-54 -118t-85.5 -102.5t-119 -72.5t-146.5 -27zM336 4q81 0 149 88.5t103 207.5t35 228q0 165 -109 165q-81 0 -149 -88.5
t-103 -207.5t-35 -228q0 -165 109 -165zM376 764l206 217h13l84 -217h-16l-110 86l-155 -86h-22z" />
    <glyph glyph-name="Otilde" unicode="&#xd5;" horiz-adv-x="783" 
d="M365 -17q-132 0 -217.5 76.5t-85.5 215.5q0 58 18 119t54 118t85.5 102.5t119 72.5t146.5 27q132 0 217.5 -76.5t85.5 -215.5q0 -58 -18 -119t-54 -118t-85.5 -102.5t-119 -72.5t-146.5 -27zM336 4q81 0 149 88.5t103 207.5t35 228q0 165 -109 165q-81 0 -149 -88.5
t-103 -207.5t-35 -228q0 -165 109 -165zM388 767q16 80 43 114t70 34q25 0 79.5 -28.5t71.5 -28.5q24 0 33 9t26 49h16q-15 -81 -41.5 -114.5t-70.5 -33.5q-25 0 -79.5 28.5t-71.5 28.5q-24 0 -33.5 -9.5t-26.5 -48.5h-16z" />
    <glyph glyph-name="Odieresis" unicode="&#xd6;" horiz-adv-x="783" 
d="M365 -17q-132 0 -217.5 76.5t-85.5 215.5q0 58 18 119t54 118t85.5 102.5t119 72.5t146.5 27q132 0 217.5 -76.5t85.5 -215.5q0 -58 -18 -119t-54 -118t-85.5 -102.5t-119 -72.5t-146.5 -27zM336 4q81 0 149 88.5t103 207.5t35 228q0 165 -109 165q-81 0 -149 -88.5
t-103 -207.5t-35 -228q0 -165 109 -165zM652 769q-26 0 -45.5 18.5t-19.5 49.5q0 43 27.5 71t67.5 28q26 0 45.5 -18.5t19.5 -49.5q0 -43 -27.5 -71t-67.5 -28zM439 769q-26 0 -45.5 18.5t-19.5 49.5q0 43 27.5 71t67.5 28q26 0 45.5 -18.5t19.5 -49.5q0 -43 -27.5 -71
t-67.5 -28z" />
    <glyph glyph-name="multiply" unicode="&#xd7;" horiz-adv-x="556" 
d="M58 147l227 179l-130 177l19 15l130 -177l227 179l14 -19l-227 -179l130 -177l-19 -15l-130 177l-227 -179z" />
    <glyph glyph-name="Oslash" unicode="&#xd8;" horiz-adv-x="783" 
d="M73 -36h-30l97 102q-78 78 -78 209q0 58 18 119t54 118t85.5 102.5t119 72.5t146.5 27q125 0 208 -69l84 88h30l-97 -103q78 -78 78 -208q0 -58 -18 -119t-54 -118t-85.5 -102.5t-119 -72.5t-146.5 -27q-128 0 -209 69zM336 4q81 0 149 88.5t103 207.5t35 228q0 2 -0.5 8
t-0.5 8l-393 -416q12 -124 107 -124zM227 169v-16l394 415q-14 125 -107 125q-81 0 -149 -88.5t-103 -207.5t-35 -228z" />
    <glyph glyph-name="Ugrave" unicode="&#xd9;" horiz-adv-x="821" 
d="M387 644l-101 -377q-17 -65 -17 -109q0 -140 152 -140q169 0 229 222l84 313q16 61 -7 94t-94 37l3 13h282l-3 -13q-68 -7 -101.5 -35.5t-51.5 -94.5l-89 -333q-33 -124 -106 -181t-202 -57q-123 0 -190 50.5t-66 152.5q0 44 16 106l94 352q3 13 -1 20.5t-25 13t-63 6.5
l3 13h361l-3 -13q-55 -3 -77 -12.5t-27 -27.5zM581 764l-92 93q-36 36 -49.5 56t-13.5 39q0 21 17 37.5t42 16.5q27 0 41.5 -24t31.5 -86l37 -132h-14z" />
    <glyph glyph-name="Uacute" unicode="&#xda;" horiz-adv-x="821" 
d="M387 644l-101 -377q-17 -65 -17 -109q0 -140 152 -140q169 0 229 222l84 313q16 61 -7 94t-94 37l3 13h282l-3 -13q-68 -7 -101.5 -35.5t-51.5 -94.5l-89 -333q-33 -124 -106 -181t-202 -57q-123 0 -190 50.5t-66 152.5q0 44 16 106l94 352q3 13 -1 20.5t-25 13t-63 6.5
l3 13h361l-3 -13q-55 -3 -77 -12.5t-27 -27.5zM506 764l64 126q39 76 55.5 97t45.5 21q23 0 39.5 -16t16.5 -37t-19.5 -41.5t-90.5 -75.5l-95 -74h-16z" />
    <glyph glyph-name="Ucircumflex" unicode="&#xdb;" horiz-adv-x="821" 
d="M387 644l-101 -377q-17 -65 -17 -109q0 -140 152 -140q169 0 229 222l84 313q16 61 -7 94t-94 37l3 13h282l-3 -13q-68 -7 -101.5 -35.5t-51.5 -94.5l-89 -333q-33 -124 -106 -181t-202 -57q-123 0 -190 50.5t-66 152.5q0 44 16 106l94 352q3 13 -1 20.5t-25 13t-63 6.5
l3 13h361l-3 -13q-55 -3 -77 -12.5t-27 -27.5zM404 764l206 217h13l84 -217h-16l-110 86l-155 -86h-22z" />
    <glyph glyph-name="Udieresis" unicode="&#xdc;" horiz-adv-x="821" 
d="M387 644l-101 -377q-17 -65 -17 -109q0 -140 152 -140q169 0 229 222l84 313q16 61 -7 94t-94 37l3 13h282l-3 -13q-68 -7 -101.5 -35.5t-51.5 -94.5l-89 -333q-33 -124 -106 -181t-202 -57q-123 0 -190 50.5t-66 152.5q0 44 16 106l94 352q3 13 -1 20.5t-25 13t-63 6.5
l3 13h361l-3 -13q-55 -3 -77 -12.5t-27 -27.5zM679 769q-26 0 -45.5 18.5t-19.5 49.5q0 43 27.5 71t67.5 28q26 0 45.5 -18.5t19.5 -49.5q0 -43 -27.5 -71t-67.5 -28zM466 769q-26 0 -45.5 18.5t-19.5 49.5q0 43 27.5 71t67.5 28q26 0 45.5 -18.5t19.5 -49.5
q0 -43 -27.5 -71t-67.5 -28z" />
    <glyph glyph-name="Yacute" unicode="&#xdd;" horiz-adv-x="696" 
d="M639 538l-185 -235l-66 -248q-7 -26 9.5 -32.5t83.5 -8.5l-3 -14h-375l3 14q67 2 86.5 8.5t26.5 32.5l68 248l-92 309q-11 39 -28.5 51t-75.5 21l3 13h363l-3 -13q-71 -2 -90.5 -18.5t-10.5 -44.5l92 -296l166 217q48 62 43 94.5t-67 47.5l3 13h251l-3 -13
q-51 -8 -98 -42.5t-101 -103.5zM469 764l64 126q39 76 55.5 97t45.5 21q23 0 39.5 -16t16.5 -37t-19.5 -41.5t-90.5 -75.5l-95 -74h-16z" />
    <glyph glyph-name="Thorn" unicode="&#xde;" horiz-adv-x="702" 
d="M-31 0l3 14q65 2 84 8.5t26 32.5l158 589q3 13 -1 20.5t-25 13t-63 6.5l3 13h356l-3 -13q-55 -3 -75 -12t-24 -28l-23 -87h53q142 0 204 -49t62 -119q0 -41 -18 -79.5t-56 -74.5t-110 -57.5t-168 -21.5h-75l-27 -101q-7 -25 10 -32t66 -9h7l-3 -14h-361zM282 175h55
q55 0 96 26t61.5 67t30 81.5t9.5 80.5q0 59 -27 83.5t-79 24.5h-49z" />
    <glyph glyph-name="germandbls" unicode="&#xdf;" horiz-adv-x="595" 
d="M-86 -200q-67 0 -103 23.5t-36 67.5q0 30 21 50.5t54 20.5q31 0 49.5 -21t18.5 -49q0 -21 -11.5 -38.5t-29.5 -24.5q18 -9 37 -9q63 0 88 113l125 555q28 124 91 179.5t171 55.5q89 0 138 -30t49 -82q0 -38 -19.5 -64t-47 -39.5l-54.5 -26t-46.5 -32t-19.5 -47.5
q0 -21 19 -43.5t46.5 -43.5t54.5 -44.5t46 -56t19 -69.5q0 -66 -48.5 -109.5t-147.5 -43.5q-59 0 -100 25t-41 70q0 29 19 49.5t50 20.5q28 0 45.5 -17t17.5 -42q0 -18 -9.5 -34.5t-24.5 -23.5q16 -28 61 -28q36 0 55 22.5t19 54.5q0 29 -17 53.5t-41.5 43l-49 38.5
t-41.5 47.5t-17 60.5q0 37 14.5 63t36 43t42.5 35.5t35.5 51.5t14.5 80q0 98 -62 98q-37 0 -58.5 -33t-40.5 -117l-96 -435q-38 -172 -100 -245t-176 -73z" />
    <glyph glyph-name="agrave" unicode="&#xe0;" horiz-adv-x="571" 
d="M514 310l-64 -208q-10 -32 -10 -45q0 -21 19.5 -26.5t72.5 -1.5v-12q-69 -25 -134 -25q-46 0 -68.5 17t-22.5 60l-4 2q-65 -79 -143 -79q-58 0 -97.5 45t-39.5 122q0 69 26 129.5t66.5 99.5t87.5 61.5t91 22.5q43 0 63.5 -16t35.5 -49l18 51l157 13zM331 437
q-56 0 -104.5 -98t-48.5 -194q0 -90 63 -90q30 0 56 32l83 280q0 25 -14.5 47.5t-34.5 22.5zM386 524l-92 93q-36 36 -49.5 56t-13.5 39q0 21 17 37.5t42 16.5q27 0 41.5 -24t31.5 -86l37 -132h-14z" />
    <glyph glyph-name="aacute" unicode="&#xe1;" horiz-adv-x="571" 
d="M514 310l-64 -208q-10 -32 -10 -45q0 -21 19.5 -26.5t72.5 -1.5v-12q-69 -25 -134 -25q-46 0 -68.5 17t-22.5 60l-4 2q-65 -79 -143 -79q-58 0 -97.5 45t-39.5 122q0 69 26 129.5t66.5 99.5t87.5 61.5t91 22.5q43 0 63.5 -16t35.5 -49l18 51l157 13zM331 437
q-56 0 -104.5 -98t-48.5 -194q0 -90 63 -90q30 0 56 32l83 280q0 25 -14.5 47.5t-34.5 22.5zM311 524l64 126q39 76 55.5 97t45.5 21q23 0 39.5 -16t16.5 -37t-19.5 -41.5t-90.5 -75.5l-95 -74h-16z" />
    <glyph glyph-name="acircumflex" unicode="&#xe2;" horiz-adv-x="571" 
d="M514 310l-64 -208q-10 -32 -10 -45q0 -21 19.5 -26.5t72.5 -1.5v-12q-69 -25 -134 -25q-46 0 -68.5 17t-22.5 60l-4 2q-65 -79 -143 -79q-58 0 -97.5 45t-39.5 122q0 69 26 129.5t66.5 99.5t87.5 61.5t91 22.5q43 0 63.5 -16t35.5 -49l18 51l157 13zM331 437
q-56 0 -104.5 -98t-48.5 -194q0 -90 63 -90q30 0 56 32l83 280q0 25 -14.5 47.5t-34.5 22.5zM209 524l206 217h13l84 -217h-16l-110 86l-155 -86h-22z" />
    <glyph glyph-name="atilde" unicode="&#xe3;" horiz-adv-x="571" 
d="M514 310l-64 -208q-10 -32 -10 -45q0 -21 19.5 -26.5t72.5 -1.5v-12q-69 -25 -134 -25q-46 0 -68.5 17t-22.5 60l-4 2q-65 -79 -143 -79q-58 0 -97.5 45t-39.5 122q0 69 26 129.5t66.5 99.5t87.5 61.5t91 22.5q43 0 63.5 -16t35.5 -49l18 51l157 13zM331 437
q-56 0 -104.5 -98t-48.5 -194q0 -90 63 -90q30 0 56 32l83 280q0 25 -14.5 47.5t-34.5 22.5zM220 527q16 80 43 114t70 34q25 0 79.5 -28.5t71.5 -28.5q24 0 33 9t26 49h16q-15 -81 -41.5 -114.5t-70.5 -33.5q-25 0 -79.5 28.5t-71.5 28.5q-24 0 -33.5 -9.5t-26.5 -48.5h-16
z" />
    <glyph glyph-name="adieresis" unicode="&#xe4;" horiz-adv-x="571" 
d="M514 310l-64 -208q-10 -32 -10 -45q0 -21 19.5 -26.5t72.5 -1.5v-12q-69 -25 -134 -25q-46 0 -68.5 17t-22.5 60l-4 2q-65 -79 -143 -79q-58 0 -97.5 45t-39.5 122q0 69 26 129.5t66.5 99.5t87.5 61.5t91 22.5q43 0 63.5 -16t35.5 -49l18 51l157 13zM331 437
q-56 0 -104.5 -98t-48.5 -194q0 -90 63 -90q30 0 56 32l83 280q0 25 -14.5 47.5t-34.5 22.5zM485 529q-26 0 -45.5 18.5t-19.5 49.5q0 43 27.5 71t67.5 28q26 0 45.5 -18.5t19.5 -49.5q0 -43 -27.5 -71t-67.5 -28zM272 529q-26 0 -45.5 18.5t-19.5 49.5q0 43 27.5 71
t67.5 28q26 0 45.5 -18.5t19.5 -49.5q0 -43 -27.5 -71t-67.5 -28z" />
    <glyph glyph-name="aring" unicode="&#xe5;" horiz-adv-x="571" 
d="M514 310l-64 -208q-10 -32 -10 -45q0 -21 19.5 -26.5t72.5 -1.5v-12q-69 -25 -134 -25q-46 0 -68.5 17t-22.5 60l-4 2q-65 -79 -143 -79q-58 0 -97.5 45t-39.5 122q0 69 26 129.5t66.5 99.5t87.5 61.5t91 22.5q43 0 63.5 -16t35.5 -49l18 51l157 13zM331 437
q-56 0 -104.5 -98t-48.5 -194q0 -90 63 -90q30 0 56 32l83 280q0 25 -14.5 47.5t-34.5 22.5zM381 529q-46 0 -78 23.5t-32 67.5q0 56 45.5 92.5t108.5 36.5q46 0 78 -23.5t32 -67.5q0 -56 -45.5 -92.5t-108.5 -36.5zM384 547q32 0 52.5 45.5t20.5 89.5q0 49 -35 49
q-32 0 -52.5 -45.5t-20.5 -89.5q0 -49 35 -49z" />
    <glyph glyph-name="ae" unicode="&#xe6;" horiz-adv-x="761" 
d="M607 472q77 0 116.5 -30.5t39.5 -77.5q0 -65 -80 -103.5t-235 -28.5q-4 -21 -4 -47q0 -70 27.5 -103.5t88.5 -33.5q41 0 84 23.5t72 66.5l12 -11q-38 -63 -98.5 -99t-134.5 -36q-69 0 -112 37t-53 100h-4q-30 -63 -77 -100t-104 -37q-58 0 -93 29t-35 76q0 157 320 158
q4 29 4 71q0 63 -26.5 94.5t-62.5 31.5q-41 0 -63 -29q33 -14 33 -54q0 -37 -21.5 -57.5t-55.5 -20.5q-31 0 -50.5 18.5t-19.5 47.5q0 48 49.5 81.5t138.5 33.5q117 0 157 -57h4q75 57 183 57zM598 453q-42 0 -86 -61.5t-61 -141.5q56 -1 96 12.5t59 37.5t26.5 48t7.5 51
q0 54 -42 54zM216 61q97 0 119 176q-98 0 -139.5 -31t-41.5 -77q0 -31 17.5 -49.5t44.5 -18.5z" />
    <glyph glyph-name="ccedilla" unicode="&#xe7;" horiz-adv-x="484" 
d="M148 -243q-62 0 -105 26l9 15q38 -23 76 -23q30 0 46.5 13.5t16.5 34.5q0 22 -23.5 35.5t-62.5 13.5q-11 0 -29 -2l-1 11l137 111q-86 4 -137.5 57t-51.5 134q0 122 81 205.5t207 83.5q79 0 123 -31t44 -84q0 -30 -21.5 -54t-54.5 -24q-35 0 -55.5 18.5t-20.5 50.5
q0 23 15 46.5t41 33.5q-22 24 -55 24q-56 0 -103.5 -86t-47.5 -181q0 -70 28 -103.5t90 -33.5q83 0 142 97l14 -8q-67 -137 -212 -144l-64 -51v-4q56 -8 84.5 -27.5t28.5 -55.5q0 -45 -42.5 -71.5t-96.5 -26.5z" />
    <glyph glyph-name="egrave" unicode="&#xe8;" horiz-adv-x="493" 
d="M495 364q0 -65 -80 -103.5t-235 -28.5q-4 -21 -4 -47q0 -70 27.5 -103.5t88.5 -33.5q41 0 84 23.5t72 66.5l12 -11q-38 -64 -99.5 -99.5t-138.5 -35.5q-90 0 -144.5 53.5t-54.5 137.5q0 122 89 205.5t227 83.5q77 0 116.5 -30.5t39.5 -77.5zM330 453q-42 0 -86 -61.5
t-61 -141.5q56 -1 96 12.5t59 37.5t26.5 48t7.5 51q0 54 -42 54zM356 524l-92 93q-36 36 -49.5 56t-13.5 39q0 21 17 37.5t42 16.5q27 0 41.5 -24t31.5 -86l37 -132h-14z" />
    <glyph glyph-name="eacute" unicode="&#xe9;" horiz-adv-x="493" 
d="M495 364q0 -65 -80 -103.5t-235 -28.5q-4 -21 -4 -47q0 -70 27.5 -103.5t88.5 -33.5q41 0 84 23.5t72 66.5l12 -11q-38 -64 -99.5 -99.5t-138.5 -35.5q-90 0 -144.5 53.5t-54.5 137.5q0 122 89 205.5t227 83.5q77 0 116.5 -30.5t39.5 -77.5zM330 453q-42 0 -86 -61.5
t-61 -141.5q56 -1 96 12.5t59 37.5t26.5 48t7.5 51q0 54 -42 54zM281 524l64 126q39 76 55.5 97t45.5 21q23 0 39.5 -16t16.5 -37t-19.5 -41.5t-90.5 -75.5l-95 -74h-16z" />
    <glyph glyph-name="ecircumflex" unicode="&#xea;" horiz-adv-x="493" 
d="M495 364q0 -65 -80 -103.5t-235 -28.5q-4 -21 -4 -47q0 -70 27.5 -103.5t88.5 -33.5q41 0 84 23.5t72 66.5l12 -11q-38 -64 -99.5 -99.5t-138.5 -35.5q-90 0 -144.5 53.5t-54.5 137.5q0 122 89 205.5t227 83.5q77 0 116.5 -30.5t39.5 -77.5zM330 453q-42 0 -86 -61.5
t-61 -141.5q56 -1 96 12.5t59 37.5t26.5 48t7.5 51q0 54 -42 54zM179 524l206 217h13l84 -217h-16l-110 86l-155 -86h-22z" />
    <glyph glyph-name="edieresis" unicode="&#xeb;" horiz-adv-x="493" 
d="M495 364q0 -65 -80 -103.5t-235 -28.5q-4 -21 -4 -47q0 -70 27.5 -103.5t88.5 -33.5q41 0 84 23.5t72 66.5l12 -11q-38 -64 -99.5 -99.5t-138.5 -35.5q-90 0 -144.5 53.5t-54.5 137.5q0 122 89 205.5t227 83.5q77 0 116.5 -30.5t39.5 -77.5zM330 453q-42 0 -86 -61.5
t-61 -141.5q56 -1 96 12.5t59 37.5t26.5 48t7.5 51q0 54 -42 54zM455 529q-26 0 -45.5 18.5t-19.5 49.5q0 43 27.5 71t67.5 28q26 0 45.5 -18.5t19.5 -49.5q0 -43 -27.5 -71t-67.5 -28zM242 529q-26 0 -45.5 18.5t-19.5 49.5q0 43 27.5 71t67.5 28q26 0 45.5 -18.5
t19.5 -49.5q0 -43 -27.5 -71t-67.5 -28z" />
    <glyph glyph-name="igrave" unicode="&#xec;" horiz-adv-x="332" 
d="M295 36v-12q-75 -32 -146 -32q-104 0 -104 74q0 18 8 47l81 272q8 25 -13 38t-68 16v12l254 16l-106 -356q-8 -26 -8 -40q0 -24 23 -31.5t79 -3.5zM256 524l-92 93q-36 36 -49.5 56t-13.5 39q0 21 17 37.5t42 16.5q27 0 41.5 -24t31.5 -86l37 -132h-14z" />
    <glyph glyph-name="iacute" unicode="&#xed;" horiz-adv-x="332" 
d="M295 36v-12q-75 -32 -146 -32q-104 0 -104 74q0 18 8 47l81 272q8 25 -13 38t-68 16v12l254 16l-106 -356q-8 -26 -8 -40q0 -24 23 -31.5t79 -3.5zM182 524l64 126q39 76 55.5 97t45.5 21q23 0 39.5 -16t16.5 -37t-19.5 -41.5t-90.5 -75.5l-95 -74h-16z" />
    <glyph glyph-name="icircumflex" unicode="&#xee;" horiz-adv-x="332" 
d="M295 36v-12q-75 -32 -146 -32q-104 0 -104 74q0 18 8 47l81 272q8 25 -13 38t-68 16v12l254 16l-106 -356q-8 -26 -8 -40q0 -24 23 -31.5t79 -3.5zM79 524l206 217h13l84 -217h-16l-110 86l-155 -86h-22z" />
    <glyph glyph-name="idieresis" unicode="&#xef;" horiz-adv-x="332" 
d="M295 36v-12q-75 -32 -146 -32q-104 0 -104 74q0 18 8 47l81 272q8 25 -13 38t-68 16v12l254 16l-106 -356q-8 -26 -8 -40q0 -24 23 -31.5t79 -3.5zM355 529q-26 0 -45.5 18.5t-19.5 49.5q0 43 27.5 71t67.5 28q26 0 45.5 -18.5t19.5 -49.5q0 -43 -27.5 -71t-67.5 -28z
M142 529q-26 0 -45.5 18.5t-19.5 49.5q0 43 27.5 71t67.5 28q26 0 45.5 -18.5t19.5 -49.5q0 -43 -27.5 -71t-67.5 -28z" />
    <glyph glyph-name="eth" unicode="&#xf0;" horiz-adv-x="542" 
d="M315 604l-149 -83l-10 18l147 80q-53 65 -155 106l8 14q132 -23 218 -82l108 59l10 -18l-101 -53q133 -102 133 -290q0 -152 -78 -257.5t-214 -105.5q-97 0 -153 55t-56 147q0 47 19 95t54 89.5t91.5 67.5t124.5 26q39 0 60 -16q-10 86 -57 148zM221 12q45 0 83.5 65.5
t57.5 147t19 146.5q0 81 -58 81q-45 0 -83.5 -65.5t-57.5 -147t-19 -146.5q0 -81 58 -81z" />
    <glyph glyph-name="ntilde" unicode="&#xf1;" horiz-adv-x="591" 
d="M62 162l61 230q6 24 -5.5 34t-55.5 13v12l227 16l-27 -95l3 -2q87 99 181 99q50 0 77 -26t27 -73q0 -33 -11 -69l-61 -199q-10 -33 -10 -46q0 -20 19.5 -25t72.5 -2v-12q-69 -25 -134 -25q-105 0 -105 71q0 21 9 50l61 200q10 34 10 56q0 40 -36 40q-47 0 -107 -58
l-90 -351h-154zM226 527q16 80 43 114t70 34q25 0 79.5 -28.5t71.5 -28.5q24 0 33 9t26 49h16q-15 -81 -41.5 -114.5t-70.5 -33.5q-25 0 -79.5 28.5t-71.5 28.5q-24 0 -33.5 -9.5t-26.5 -48.5h-16z" />
    <glyph glyph-name="ograve" unicode="&#xf2;" horiz-adv-x="542" 
d="M311 472q97 0 153 -55t56 -147q0 -47 -19 -95t-54 -89.5t-91.5 -67.5t-124.5 -26q-97 0 -153 55t-56 147q0 47 19 95t54 89.5t91.5 67.5t124.5 26zM220 12q45 0 83.5 65.5t57.5 147t19 146.5q0 81 -58 81q-45 0 -83.5 -65.5t-57.5 -147t-19 -146.5q0 -81 58 -81zM367 524
l-92 93q-36 36 -49.5 56t-13.5 39q0 21 17 37.5t42 16.5q27 0 41.5 -24t31.5 -86l37 -132h-14z" />
    <glyph glyph-name="oacute" unicode="&#xf3;" horiz-adv-x="542" 
d="M311 472q97 0 153 -55t56 -147q0 -47 -19 -95t-54 -89.5t-91.5 -67.5t-124.5 -26q-97 0 -153 55t-56 147q0 47 19 95t54 89.5t91.5 67.5t124.5 26zM220 12q45 0 83.5 65.5t57.5 147t19 146.5q0 81 -58 81q-45 0 -83.5 -65.5t-57.5 -147t-19 -146.5q0 -81 58 -81zM292 524
l64 126q39 76 55.5 97t45.5 21q23 0 39.5 -16t16.5 -37t-19.5 -41.5t-90.5 -75.5l-95 -74h-16z" />
    <glyph glyph-name="ocircumflex" unicode="&#xf4;" horiz-adv-x="542" 
d="M311 472q97 0 153 -55t56 -147q0 -47 -19 -95t-54 -89.5t-91.5 -67.5t-124.5 -26q-97 0 -153 55t-56 147q0 47 19 95t54 89.5t91.5 67.5t124.5 26zM220 12q45 0 83.5 65.5t57.5 147t19 146.5q0 81 -58 81q-45 0 -83.5 -65.5t-57.5 -147t-19 -146.5q0 -81 58 -81zM190 524
l206 217h13l84 -217h-16l-110 86l-155 -86h-22z" />
    <glyph glyph-name="otilde" unicode="&#xf5;" horiz-adv-x="542" 
d="M311 472q97 0 153 -55t56 -147q0 -47 -19 -95t-54 -89.5t-91.5 -67.5t-124.5 -26q-97 0 -153 55t-56 147q0 47 19 95t54 89.5t91.5 67.5t124.5 26zM220 12q45 0 83.5 65.5t57.5 147t19 146.5q0 81 -58 81q-45 0 -83.5 -65.5t-57.5 -147t-19 -146.5q0 -81 58 -81zM202 527
q16 80 43 114t70 34q25 0 79.5 -28.5t71.5 -28.5q24 0 33 9t26 49h16q-15 -81 -41.5 -114.5t-70.5 -33.5q-25 0 -79.5 28.5t-71.5 28.5q-24 0 -33.5 -9.5t-26.5 -48.5h-16z" />
    <glyph glyph-name="odieresis" unicode="&#xf6;" horiz-adv-x="542" 
d="M311 472q97 0 153 -55t56 -147q0 -47 -19 -95t-54 -89.5t-91.5 -67.5t-124.5 -26q-97 0 -153 55t-56 147q0 47 19 95t54 89.5t91.5 67.5t124.5 26zM220 12q45 0 83.5 65.5t57.5 147t19 146.5q0 81 -58 81q-45 0 -83.5 -65.5t-57.5 -147t-19 -146.5q0 -81 58 -81zM466 529
q-26 0 -45.5 18.5t-19.5 49.5q0 43 27.5 71t67.5 28q26 0 45.5 -18.5t19.5 -49.5q0 -43 -27.5 -71t-67.5 -28zM253 529q-26 0 -45.5 18.5t-19.5 49.5q0 43 27.5 71t67.5 28q26 0 45.5 -18.5t19.5 -49.5q0 -43 -27.5 -71t-67.5 -28z" />
    <glyph glyph-name="divide" unicode="&#xf7;" horiz-adv-x="576" 
d="M545 317h-468l5 22h468zM353 415q-25 0 -42 17t-17 41t17 41t42 17q24 0 41 -17t17 -41t-17 -41t-41 -17zM275 125q-25 0 -42 17t-17 41t17 41t42 17q24 0 41 -17t17 -41t-17 -41t-41 -17z" />
    <glyph glyph-name="oslash" unicode="&#xf8;" horiz-adv-x="542" 
d="M30 -29l59 66q-67 55 -67 157q0 47 19 95t54 89.5t91.5 67.5t124.5 26q79 0 131 -37l51 58h19l-59 -66q67 -56 67 -157q0 -47 -19 -95t-54 -89.5t-91.5 -67.5t-124.5 -26q-78 0 -131 36l-51 -57h-19zM322 452q-42 0 -78.5 -57.5t-56.5 -131.5t-24 -142l217 244v6
q0 81 -58 81zM220 12q42 0 78.5 58t56 131.5t24.5 141.5l-217 -245v-5q0 -81 58 -81z" />
    <glyph glyph-name="ugrave" unicode="&#xf9;" horiz-adv-x="592" 
d="M49 160l74 227q8 25 -5.5 37t-59.5 15l1 12l237 16l-99 -319q-9 -28 -9 -46q0 -41 41 -41q51 0 101 49l57 197l42 158h154l-109 -363q-10 -33 -10 -45q0 -20 19.5 -25.5t72.5 -2.5v-12q-69 -25 -134 -25q-46 0 -73.5 16t-27.5 49q0 14 6 32l-3 2q-87 -99 -182 -99
q-50 0 -78 25t-28 72q0 32 13 71zM391 524l-92 93q-36 36 -49.5 56t-13.5 39q0 21 17 37.5t42 16.5q27 0 41.5 -24t31.5 -86l37 -132h-14z" />
    <glyph glyph-name="uacute" unicode="&#xfa;" horiz-adv-x="592" 
d="M49 160l74 227q8 25 -5.5 37t-59.5 15l1 12l237 16l-99 -319q-9 -28 -9 -46q0 -41 41 -41q51 0 101 49l57 197l42 158h154l-109 -363q-10 -33 -10 -45q0 -20 19.5 -25.5t72.5 -2.5v-12q-69 -25 -134 -25q-46 0 -73.5 16t-27.5 49q0 14 6 32l-3 2q-87 -99 -182 -99
q-50 0 -78 25t-28 72q0 32 13 71zM317 524l64 126q39 76 55.5 97t45.5 21q23 0 39.5 -16t16.5 -37t-19.5 -41.5t-90.5 -75.5l-95 -74h-16z" />
    <glyph glyph-name="ucircumflex" unicode="&#xfb;" horiz-adv-x="592" 
d="M49 160l74 227q8 25 -5.5 37t-59.5 15l1 12l237 16l-99 -319q-9 -28 -9 -46q0 -41 41 -41q51 0 101 49l57 197l42 158h154l-109 -363q-10 -33 -10 -45q0 -20 19.5 -25.5t72.5 -2.5v-12q-69 -25 -134 -25q-46 0 -73.5 16t-27.5 49q0 14 6 32l-3 2q-87 -99 -182 -99
q-50 0 -78 25t-28 72q0 32 13 71zM214 524l206 217h13l84 -217h-16l-110 86l-155 -86h-22z" />
    <glyph glyph-name="udieresis" unicode="&#xfc;" horiz-adv-x="592" 
d="M49 160l74 227q8 25 -5.5 37t-59.5 15l1 12l237 16l-99 -319q-9 -28 -9 -46q0 -41 41 -41q51 0 101 49l57 197l42 158h154l-109 -363q-10 -33 -10 -45q0 -20 19.5 -25.5t72.5 -2.5v-12q-69 -25 -134 -25q-46 0 -73.5 16t-27.5 49q0 14 6 32l-3 2q-87 -99 -182 -99
q-50 0 -78 25t-28 72q0 32 13 71zM490 529q-26 0 -45.5 18.5t-19.5 49.5q0 43 27.5 71t67.5 28q26 0 45.5 -18.5t19.5 -49.5q0 -43 -27.5 -71t-67.5 -28zM277 529q-26 0 -45.5 18.5t-19.5 49.5q0 43 27.5 71t67.5 28q26 0 45.5 -18.5t19.5 -49.5q0 -43 -27.5 -71t-67.5 -28z
" />
    <glyph glyph-name="yacute" unicode="&#xfd;" horiz-adv-x="505" 
d="M219 470l44 -239l26 -185h4l35 54q80 123 90 205q-33 8 -53 31t-20 53q0 37 22.5 60.5t60.5 23.5q35 0 56.5 -23t21.5 -56q0 -42 -27.5 -96.5t-110.5 -183.5q-81 -127 -144 -196.5t-111 -93.5t-106 -24q-50 0 -78.5 24.5t-28.5 66.5q0 35 23.5 59.5t58.5 24.5
q33 0 55 -22.5t22 -57.5q0 -43 -36 -68q89 0 149 77l-49 276l-40 197q-6 33 -23 44.5t-61 12.5v12zM238 524l64 126q39 76 55.5 97t45.5 21q23 0 39.5 -16t16.5 -37t-19.5 -41.5t-90.5 -75.5l-95 -74h-16z" />
    <glyph glyph-name="thorn" unicode="&#xfe;" horiz-adv-x="551" 
d="M253 405q64 67 140 67q58 0 96.5 -45t38.5 -122q0 -69 -25.5 -129.5t-65.5 -99.5t-87 -61.5t-91 -22.5q-79 0 -101 48l-49 -183q-2 -12 3 -18t26.5 -10.5t64.5 -5.5v-12h-328v12q43 1 57.5 8t18.5 21l42 131l71 272l97 385q5 23 -11.5 33.5t-70.5 13.5v12l256 18
l-85 -310zM222 22q37 0 73 52t57 124t21 133q0 45 -13 66t-43 21q-14 0 -36 -12.5t-35 -26.5l-81 -309q11 -48 57 -48z" />
    <glyph glyph-name="ydieresis" unicode="&#xff;" horiz-adv-x="505" 
d="M219 470l44 -239l26 -185h4l35 54q80 123 90 205q-33 8 -53 31t-20 53q0 37 22.5 60.5t60.5 23.5q35 0 56.5 -23t21.5 -56q0 -42 -27.5 -96.5t-110.5 -183.5q-81 -127 -144 -196.5t-111 -93.5t-106 -24q-50 0 -78.5 24.5t-28.5 66.5q0 35 23.5 59.5t58.5 24.5
q33 0 55 -22.5t22 -57.5q0 -43 -36 -68q89 0 149 77l-49 276l-40 197q-6 33 -23 44.5t-61 12.5v12zM411 529q-26 0 -45.5 18.5t-19.5 49.5q0 43 27.5 71t67.5 28q26 0 45.5 -18.5t19.5 -49.5q0 -43 -27.5 -71t-67.5 -28zM198 529q-26 0 -45.5 18.5t-19.5 49.5q0 43 27.5 71
t67.5 28q26 0 45.5 -18.5t19.5 -49.5q0 -43 -27.5 -71t-67.5 -28z" />
    <glyph glyph-name="Amacron" unicode="&#x100;" 
d="M-73 0l3 14q54 7 96.5 40.5t83.5 100.5l345 556h93l72 -624q5 -40 21.5 -53t73.5 -20l-3 -14h-375l3 14q70 3 92.5 17t19.5 45l-21 188h-226l-70 -118q-72 -120 50 -132l-3 -14h-255zM429 284l-32 291h-6l-174 -291h212zM360 794l13 51h308l-13 -51h-308z" />
    <glyph glyph-name="amacron" unicode="&#x101;" horiz-adv-x="571" 
d="M514 310l-64 -208q-10 -32 -10 -45q0 -21 19.5 -26.5t72.5 -1.5v-12q-69 -25 -134 -25q-46 0 -68.5 17t-22.5 60l-4 2q-65 -79 -143 -79q-58 0 -97.5 45t-39.5 122q0 69 26 129.5t66.5 99.5t87.5 61.5t91 22.5q43 0 63.5 -16t35.5 -49l18 51l157 13zM331 437
q-56 0 -104.5 -98t-48.5 -194q0 -90 63 -90q30 0 56 32l83 280q0 25 -14.5 47.5t-34.5 22.5zM215 554l13 51h308l-13 -51h-308z" />
    <glyph glyph-name="Abreve" unicode="&#x102;" 
d="M-73 0l3 14q54 7 96.5 40.5t83.5 100.5l345 556h93l72 -624q5 -40 21.5 -53t73.5 -20l-3 -14h-375l3 14q70 3 92.5 17t19.5 45l-21 188h-226l-70 -118q-72 -120 50 -132l-3 -14h-255zM429 284l-32 291h-6l-174 -291h212zM512 769q-65 0 -94 42t-9 131h16q11 -87 101 -87
q96 0 149 87h20q-55 -173 -183 -173z" />
    <glyph glyph-name="abreve" unicode="&#x103;" horiz-adv-x="571" 
d="M514 310l-64 -208q-10 -32 -10 -45q0 -21 19.5 -26.5t72.5 -1.5v-12q-69 -25 -134 -25q-46 0 -68.5 17t-22.5 60l-4 2q-65 -79 -143 -79q-58 0 -97.5 45t-39.5 122q0 69 26 129.5t66.5 99.5t87.5 61.5t91 22.5q43 0 63.5 -16t35.5 -49l18 51l157 13zM331 437
q-56 0 -104.5 -98t-48.5 -194q0 -90 63 -90q30 0 56 32l83 280q0 25 -14.5 47.5t-34.5 22.5zM366 529q-65 0 -94 42t-9 131h16q11 -87 101 -87q96 0 149 87h20q-55 -173 -183 -173z" />
    <glyph glyph-name="Aogonek" unicode="&#x104;" 
d="M459 -247q-44 0 -69 21t-25 57q0 44 35.5 75.5t101.5 63.5l61 30h-226l3 14q70 3 92.5 17t19.5 45l-21 188h-226l-70 -118q-72 -120 50 -132l-3 -14h-255l3 14q54 7 96.5 40.5t83.5 100.5l345 556h93l72 -624q5 -40 21.5 -53t73.5 -20l-3 -14h-126l-39 -33
q-76 -64 -76 -124q0 -53 52 -53q28 0 60 13l5 -12q-63 -38 -129 -38zM429 284l-32 291h-6l-174 -291h212z" />
    <glyph glyph-name="aogonek" unicode="&#x105;" horiz-adv-x="571" 
d="M532 29v-12l-40 -15q-87 -33 -123.5 -77t-36.5 -82q0 -53 52 -53q28 0 60 13l5 -12q-63 -38 -129 -38q-44 0 -69 21t-25 57q0 82 154 142l52 21q-26 -2 -34 -2q-46 0 -68.5 17t-22.5 60l-4 2q-65 -79 -143 -79q-58 0 -97.5 45t-39.5 122q0 69 26 129.5t66.5 99.5
t87.5 61.5t91 22.5q43 0 63.5 -16t35.5 -49l18 51l157 13l-54 -161l-64 -208q-10 -32 -10 -45q0 -21 19.5 -26.5t72.5 -1.5zM331 437q-56 0 -104.5 -98t-48.5 -194q0 -90 63 -90q30 0 56 32l83 280q0 25 -14.5 47.5t-34.5 22.5z" />
    <glyph glyph-name="Cacute" unicode="&#x106;" horiz-adv-x="727" 
d="M355 -17q-130 0 -211.5 81.5t-81.5 222.5q0 76 31 151t86.5 137t142 100.5t188.5 38.5q60 0 98 -11.5t81 -35.5l60 44h16l-67 -265h-16q-40 146 -78.5 196.5t-99.5 50.5q-63 0 -126 -70.5t-102 -174.5t-39 -199q0 -226 179 -226q63 0 131.5 40.5t128.5 120.5l17 -11
q-59 -86 -149 -138t-189 -52zM474 764l64 126q39 76 55.5 97t45.5 21q23 0 39.5 -16t16.5 -37t-19.5 -41.5t-90.5 -75.5l-95 -74h-16z" />
    <glyph glyph-name="cacute" unicode="&#x107;" horiz-adv-x="484" 
d="M311 472q79 0 123 -31t44 -84q0 -30 -21.5 -54t-54.5 -24q-35 0 -55.5 18.5t-20.5 50.5q0 23 15 46.5t41 33.5q-22 24 -55 24q-56 0 -103.5 -86t-47.5 -181q0 -70 28 -103.5t90 -33.5q83 0 142 97l14 -8q-34 -69 -92.5 -107t-135.5 -38q-90 0 -144.5 53.5t-54.5 137.5
q0 122 81 205.5t207 83.5zM260 524l64 126q39 76 55.5 97t45.5 21q23 0 39.5 -16t16.5 -37t-19.5 -41.5t-90.5 -75.5l-95 -74h-16z" />
    <glyph glyph-name="Cdotaccent" unicode="&#x10a;" horiz-adv-x="727" 
d="M355 -17q-130 0 -211.5 81.5t-81.5 222.5q0 76 31 151t86.5 137t142 100.5t188.5 38.5q60 0 98 -11.5t81 -35.5l60 44h16l-67 -265h-16q-40 146 -78.5 196.5t-99.5 50.5q-63 0 -126 -70.5t-102 -174.5t-39 -199q0 -226 179 -226q63 0 131.5 40.5t128.5 120.5l17 -11
q-59 -86 -149 -138t-189 -52zM540 769q-28 0 -48.5 19.5t-20.5 52.5q0 45 29.5 75t71.5 30q28 0 48.5 -19.5t20.5 -52.5q0 -45 -29.5 -75t-71.5 -30z" />
    <glyph glyph-name="cdotaccent" unicode="&#x10b;" horiz-adv-x="484" 
d="M311 472q79 0 123 -31t44 -84q0 -30 -21.5 -54t-54.5 -24q-35 0 -55.5 18.5t-20.5 50.5q0 23 15 46.5t41 33.5q-22 24 -55 24q-56 0 -103.5 -86t-47.5 -181q0 -70 28 -103.5t90 -33.5q83 0 142 97l14 -8q-34 -69 -92.5 -107t-135.5 -38q-90 0 -144.5 53.5t-54.5 137.5
q0 122 81 205.5t207 83.5zM326 529q-28 0 -48.5 19.5t-20.5 52.5q0 45 29.5 75t71.5 30q28 0 48.5 -19.5t20.5 -52.5q0 -45 -29.5 -75t-71.5 -30z" />
    <glyph glyph-name="Ccaron" unicode="&#x10c;" horiz-adv-x="727" 
d="M355 -17q-130 0 -211.5 81.5t-81.5 222.5q0 76 31 151t86.5 137t142 100.5t188.5 38.5q60 0 98 -11.5t81 -35.5l60 44h16l-67 -265h-16q-40 146 -78.5 196.5t-99.5 50.5q-63 0 -126 -70.5t-102 -174.5t-39 -199q0 -226 179 -226q63 0 131.5 40.5t128.5 120.5l17 -11
q-59 -86 -149 -138t-189 -52zM525 764l-85 217h16l110 -86l155 86h22l-205 -217h-13z" />
    <glyph glyph-name="ccaron" unicode="&#x10d;" horiz-adv-x="484" 
d="M311 472q79 0 123 -31t44 -84q0 -30 -21.5 -54t-54.5 -24q-35 0 -55.5 18.5t-20.5 50.5q0 23 15 46.5t41 33.5q-22 24 -55 24q-56 0 -103.5 -86t-47.5 -181q0 -70 28 -103.5t90 -33.5q83 0 142 97l14 -8q-34 -69 -92.5 -107t-135.5 -38q-90 0 -144.5 53.5t-54.5 137.5
q0 122 81 205.5t207 83.5zM311 524l-85 217h16l110 -86l155 86h22l-205 -217h-13z" />
    <glyph glyph-name="Dcaron" unicode="&#x10e;" horiz-adv-x="788" 
d="M82 55l158 589q3 13 -1 20.5t-25 13t-63 6.5l3 13h329q132 0 221 -75t89 -206q0 -78 -32.5 -156.5t-92.5 -138.5q-121 -121 -298 -121h-401l3 14q65 2 84 8.5t26 32.5zM240 19h99q79 0 141 62q72 73 108.5 202t36.5 222q0 173 -149 173h-59zM520 764l-85 217h16l110 -86
l155 86h22l-205 -217h-13z" />
    <glyph glyph-name="dcaron" unicode="&#x10f;" horiz-adv-x="569" 
d="M631 717l-175 -615q-10 -32 -10 -45q0 -21 19.5 -26.5t72.5 -1.5v-12q-69 -25 -134 -25q-45 0 -68 17t-23 60l-4 2q-65 -79 -143 -79q-56 0 -99.5 46t-43.5 121q0 69 27 129.5t68.5 99.5t89.5 61.5t92 22.5t65 -15.5t32 -45.5l59 229q5 23 -11 33.5t-70 13.5v12zM337 437
q-37 0 -75 -47.5t-61 -115.5t-23 -129q0 -44 19 -67t50 -23q30 0 56 32l81 284q0 24 -13 45t-34 21zM664 528l27 174q6 39 19.5 54.5t38.5 15.5q20 0 35.5 -12.5t15.5 -32.5q0 -25 -46 -93l-74 -106h-16z" />
    <glyph glyph-name="Dcroat" unicode="&#x110;" horiz-adv-x="788" 
d="M82 55l79 295h-95l6 26h96l72 268q3 13 -1 20.5t-25 13t-63 6.5l3 13h329q132 0 221 -75t89 -206q0 -78 -32.5 -156.5t-92.5 -138.5q-121 -121 -298 -121h-401l3 14q65 2 84 8.5t26 32.5zM240 19h99q79 0 141 62q72 73 108.5 202t36.5 222q0 173 -149 173h-59l-81 -302
h137l-6 -26h-138z" />
    <glyph glyph-name="dcroat" unicode="&#x111;" horiz-adv-x="569" 
d="M631 717l-35 -123h65l-6 -22h-66l-133 -470q-10 -32 -10 -45q0 -21 19.5 -26.5t72.5 -1.5v-12q-69 -25 -134 -25q-45 0 -68 17t-23 60l-4 2q-65 -79 -143 -79q-56 0 -99.5 46t-43.5 121q0 69 27 129.5t68.5 99.5t89.5 61.5t92 22.5t65 -15.5t32 -45.5l41 161h-127l6 22
h127l12 46q5 23 -11 33.5t-70 13.5v12zM337 437q-37 0 -75 -47.5t-61 -115.5t-23 -129q0 -44 19 -67t50 -23q30 0 56 32l81 284q0 24 -13 45t-34 21z" />
    <glyph glyph-name="Emacron" unicode="&#x112;" horiz-adv-x="725" 
d="M154 697h613l-62 -248h-16q-23 120 -58.5 173.5t-117.5 53.5h-97l-80 -298h46q39 0 66 13t48 35.5t64 78.5h15l-75 -288h-15q-21 93 -37 117t-71 24h-46l-90 -337h116q97 0 168 60t149 182h17l-71 -263h-651l3 14q65 2 84 8.5t26 32.5l158 589q3 13 -1 20.5t-25 13
t-63 6.5zM357 794l13 51h308l-13 -51h-308z" />
    <glyph glyph-name="emacron" unicode="&#x113;" horiz-adv-x="493" 
d="M495 364q0 -65 -80 -103.5t-235 -28.5q-4 -21 -4 -47q0 -70 27.5 -103.5t88.5 -33.5q41 0 84 23.5t72 66.5l12 -11q-38 -64 -99.5 -99.5t-138.5 -35.5q-90 0 -144.5 53.5t-54.5 137.5q0 122 89 205.5t227 83.5q77 0 116.5 -30.5t39.5 -77.5zM330 453q-42 0 -86 -61.5
t-61 -141.5q56 -1 96 12.5t59 37.5t26.5 48t7.5 51q0 54 -42 54zM185 554l13 51h308l-13 -51h-308z" />
    <glyph glyph-name="Ebreve" unicode="&#x114;" horiz-adv-x="725" 
d="M154 697h613l-62 -248h-16q-23 120 -58.5 173.5t-117.5 53.5h-97l-80 -298h46q39 0 66 13t48 35.5t64 78.5h15l-75 -288h-15q-21 93 -37 117t-71 24h-46l-90 -337h116q97 0 168 60t149 182h17l-71 -263h-651l3 14q65 2 84 8.5t26 32.5l158 589q3 13 -1 20.5t-25 13
t-63 6.5zM509 769q-65 0 -94 42t-9 131h16q11 -87 101 -87q96 0 149 87h20q-55 -173 -183 -173z" />
    <glyph glyph-name="ebreve" unicode="&#x115;" horiz-adv-x="493" 
d="M495 364q0 -65 -80 -103.5t-235 -28.5q-4 -21 -4 -47q0 -70 27.5 -103.5t88.5 -33.5q41 0 84 23.5t72 66.5l12 -11q-38 -64 -99.5 -99.5t-138.5 -35.5q-90 0 -144.5 53.5t-54.5 137.5q0 122 89 205.5t227 83.5q77 0 116.5 -30.5t39.5 -77.5zM330 453q-42 0 -86 -61.5
t-61 -141.5q56 -1 96 12.5t59 37.5t26.5 48t7.5 51q0 54 -42 54zM336 529q-65 0 -94 42t-9 131h16q11 -87 101 -87q96 0 149 87h20q-55 -173 -183 -173z" />
    <glyph glyph-name="Edotaccent" unicode="&#x116;" horiz-adv-x="725" 
d="M154 697h613l-62 -248h-16q-23 120 -58.5 173.5t-117.5 53.5h-97l-80 -298h46q39 0 66 13t48 35.5t64 78.5h15l-75 -288h-15q-21 93 -37 117t-71 24h-46l-90 -337h116q97 0 168 60t149 182h17l-71 -263h-651l3 14q65 2 84 8.5t26 32.5l158 589q3 13 -1 20.5t-25 13
t-63 6.5zM520 769q-28 0 -48.5 19.5t-20.5 52.5q0 45 29.5 75t71.5 30q28 0 48.5 -19.5t20.5 -52.5q0 -45 -29.5 -75t-71.5 -30z" />
    <glyph glyph-name="edotaccent" unicode="&#x117;" horiz-adv-x="493" 
d="M495 364q0 -65 -80 -103.5t-235 -28.5q-4 -21 -4 -47q0 -70 27.5 -103.5t88.5 -33.5q41 0 84 23.5t72 66.5l12 -11q-38 -64 -99.5 -99.5t-138.5 -35.5q-90 0 -144.5 53.5t-54.5 137.5q0 122 89 205.5t227 83.5q77 0 116.5 -30.5t39.5 -77.5zM330 453q-42 0 -86 -61.5
t-61 -141.5q56 -1 96 12.5t59 37.5t26.5 48t7.5 51q0 54 -42 54zM347 529q-28 0 -48.5 19.5t-20.5 52.5q0 45 29.5 75t71.5 30q28 0 48.5 -19.5t20.5 -52.5q0 -45 -29.5 -75t-71.5 -30z" />
    <glyph glyph-name="Eogonek" unicode="&#x118;" horiz-adv-x="729" 
d="M406 -247q-44 0 -69 21t-25 57q0 44 35.5 75.5t101.5 63.5l61 30h-541l3 14q65 2 84 8.5t26 32.5l158 589q3 13 -1 20.5t-25 13t-63 6.5l3 13h613l-62 -248h-16q-23 120 -58.5 173.5t-117.5 53.5h-97l-80 -298h46q39 0 66 13t48 35.5t64 78.5h15l-75 -288h-15
q-21 93 -37 117t-71 24h-46l-90 -337h116q97 0 168 60t149 182h17l-71 -263h-87l-39 -33q-76 -64 -76 -124q0 -53 52 -53q28 0 60 13l5 -12q-63 -38 -129 -38z" />
    <glyph glyph-name="eogonek" unicode="&#x119;" horiz-adv-x="493" 
d="M23 183q0 122 89 205.5t227 83.5q77 0 116.5 -30.5t39.5 -77.5q0 -65 -80 -103.5t-235 -28.5q-4 -21 -4 -47q0 -70 27.5 -103.5t88.5 -33.5q41 0 84 23.5t72 66.5l12 -11q-28 -47 -78 -86l-80 -63q-90 -71 -90 -135q0 -53 52 -53q28 0 60 13l5 -12q-63 -38 -129 -38
q-44 0 -69 21t-25 57q0 23 10.5 43.5t30.5 36.5t32.5 24t32.5 19l96 50q-43 -12 -86 -12q-90 0 -144.5 53.5t-54.5 137.5zM330 453q-42 0 -86 -61.5t-61 -141.5q56 -1 96 12.5t59 37.5t26.5 48t7.5 51q0 54 -42 54z" />
    <glyph glyph-name="Ecaron" unicode="&#x11a;" horiz-adv-x="725" 
d="M154 697h613l-62 -248h-16q-23 120 -58.5 173.5t-117.5 53.5h-97l-80 -298h46q39 0 66 13t48 35.5t64 78.5h15l-75 -288h-15q-21 93 -37 117t-71 24h-46l-90 -337h116q97 0 168 60t149 182h17l-71 -263h-651l3 14q65 2 84 8.5t26 32.5l158 589q3 13 -1 20.5t-25 13
t-63 6.5zM505 764l-85 217h16l110 -86l155 86h22l-205 -217h-13z" />
    <glyph glyph-name="ecaron" unicode="&#x11b;" horiz-adv-x="493" 
d="M495 364q0 -65 -80 -103.5t-235 -28.5q-4 -21 -4 -47q0 -70 27.5 -103.5t88.5 -33.5q41 0 84 23.5t72 66.5l12 -11q-38 -64 -99.5 -99.5t-138.5 -35.5q-90 0 -144.5 53.5t-54.5 137.5q0 122 89 205.5t227 83.5q77 0 116.5 -30.5t39.5 -77.5zM330 453q-42 0 -86 -61.5
t-61 -141.5q56 -1 96 12.5t59 37.5t26.5 48t7.5 51q0 54 -42 54zM332 524l-85 217h16l110 -86l155 86h22l-205 -217h-13z" />
    <glyph glyph-name="Gbreve" unicode="&#x11e;" horiz-adv-x="774" 
d="M776 711l-65 -256h-16q-51 144 -85 191t-91 47q-79 0 -145.5 -79t-101.5 -190.5t-35 -219.5q0 -86 39 -143t110 -57q45 0 89 24l65 246q3 13 -1.5 20t-26 12.5t-65.5 7.5l3 13h338l-3 -13q-48 -3 -63.5 -11.5t-20.5 -28.5l-66 -239q-129 -52 -260 -52q-132 0 -222.5 82.5
t-90.5 221.5q0 58 19 118t57.5 115t91 98.5t125.5 69.5t155 26q115 0 197 -42l53 39h16zM524 769q-65 0 -94 42t-9 131h16q11 -87 101 -87q96 0 149 87h20q-55 -173 -183 -173z" />
    <glyph glyph-name="gbreve" unicode="&#x11f;" horiz-adv-x="555" 
d="M161 0q-59 0 -98.5 43.5t-39.5 120.5q0 68 26 127.5t66.5 98t87.5 60.5t91 22q43 0 63.5 -16t35.5 -49l18 51l157 13l-54 -161l-90 -316q-30 -108 -92 -151t-193 -43q-92 0 -137.5 32.5t-45.5 74.5q0 33 23 57t58 24q34 0 52.5 -21t18.5 -51q0 -21 -12.5 -41t-31.5 -28
q15 -27 74 -27q47 0 76.5 30.5t51.5 102.5l35 113l-4 2q-55 -68 -136 -68zM331 437q-56 0 -104.5 -96.5t-48.5 -190.5q0 -87 64 -87q33 0 57 30l81 274q0 25 -14.5 47.5t-34.5 22.5zM338 529q-65 0 -94 42t-9 131h16q11 -87 101 -87q96 0 149 87h20q-55 -173 -183 -173z" />
    <glyph glyph-name="Gdotaccent" unicode="&#x120;" horiz-adv-x="774" 
d="M776 711l-65 -256h-16q-51 144 -85 191t-91 47q-79 0 -145.5 -79t-101.5 -190.5t-35 -219.5q0 -86 39 -143t110 -57q45 0 89 24l65 246q3 13 -1.5 20t-26 12.5t-65.5 7.5l3 13h338l-3 -13q-48 -3 -63.5 -11.5t-20.5 -28.5l-66 -239q-129 -52 -260 -52q-132 0 -222.5 82.5
t-90.5 221.5q0 58 19 118t57.5 115t91 98.5t125.5 69.5t155 26q115 0 197 -42l53 39h16zM535 769q-28 0 -48.5 19.5t-20.5 52.5q0 45 29.5 75t71.5 30q28 0 48.5 -19.5t20.5 -52.5q0 -45 -29.5 -75t-71.5 -30z" />
    <glyph glyph-name="gdotaccent" unicode="&#x121;" horiz-adv-x="555" 
d="M161 0q-59 0 -98.5 43.5t-39.5 120.5q0 68 26 127.5t66.5 98t87.5 60.5t91 22q43 0 63.5 -16t35.5 -49l18 51l157 13l-54 -161l-90 -316q-30 -108 -92 -151t-193 -43q-92 0 -137.5 32.5t-45.5 74.5q0 33 23 57t58 24q34 0 52.5 -21t18.5 -51q0 -21 -12.5 -41t-31.5 -28
q15 -27 74 -27q47 0 76.5 30.5t51.5 102.5l35 113l-4 2q-55 -68 -136 -68zM331 437q-56 0 -104.5 -96.5t-48.5 -190.5q0 -87 64 -87q33 0 57 30l81 274q0 25 -14.5 47.5t-34.5 22.5zM349 529q-28 0 -48.5 19.5t-20.5 52.5q0 45 29.5 75t71.5 30q28 0 48.5 -19.5t20.5 -52.5
q0 -45 -29.5 -75t-71.5 -30z" />
    <glyph glyph-name="Gcommaaccent" unicode="&#x122;" horiz-adv-x="774" 
d="M776 711l-65 -256h-16q-51 144 -85 191t-91 47q-79 0 -145.5 -79t-101.5 -190.5t-35 -219.5q0 -86 39 -143t110 -57q45 0 89 24l65 246q3 13 -1.5 20t-26 12.5t-65.5 7.5l3 13h338l-3 -13q-48 -3 -63.5 -11.5t-20.5 -28.5l-66 -239q-129 -52 -260 -52q-132 0 -222.5 82.5
t-90.5 221.5q0 58 19 118t57.5 115t91 98.5t125.5 69.5t155 26q115 0 197 -42l53 39h16zM180 -326l-5 12q56 25 83.5 52.5t35.5 49.5l-3 4q-29 -2 -48.5 18.5t-19.5 52.5t22 54.5t53 22.5q37 0 58.5 -24.5t21.5 -60.5q0 -60 -53 -107t-145 -74z" />
    <glyph glyph-name="gcommaaccent" unicode="&#x123;" horiz-adv-x="555" 
d="M161 0q-59 0 -98.5 43.5t-39.5 120.5q0 68 26 127.5t66.5 98t87.5 60.5t91 22q43 0 63.5 -16t35.5 -49l18 51l157 13l-54 -161l-90 -316q-30 -108 -92 -151t-193 -43q-92 0 -137.5 32.5t-45.5 74.5q0 33 23 57t58 24q34 0 52.5 -21t18.5 -51q0 -21 -12.5 -41t-31.5 -28
q15 -27 74 -27q47 0 76.5 30.5t51.5 102.5l35 113l-4 2q-55 -68 -136 -68zM331 437q-56 0 -104.5 -96.5t-48.5 -190.5q0 -87 64 -87q33 0 57 30l81 274q0 25 -14.5 47.5t-34.5 22.5zM487 819l5 -12q-56 -25 -83.5 -52.5t-35.5 -49.5l3 -4q29 2 48.5 -18.5t19.5 -52.5
t-22 -54.5t-53 -22.5q-37 0 -58.5 24.5t-21.5 60.5q0 60 53 107t145 74z" />
    <glyph glyph-name="Hbar" unicode="&#x126;" horiz-adv-x="853" 
d="M893 511h-92l-122 -456q-7 -26 9 -32.5t81 -8.5l-3 -14h-362l3 14q32 2 43 2.5t27.5 4.5t23 12t10.5 22l80 297h-261l-80 -297q-7 -25 10 -32t66 -9h7l-3 -14h-361l3 14q65 2 84 8.5t26 32.5l122 456h-93l6 24h94l29 109q3 13 -1 20.5t-25 13t-63 6.5l3 13h361l-3 -13
q-55 -3 -77 -12.5t-27 -27.5l-29 -109h261l29 109q3 13 -1 20t-23.5 12.5t-58.5 7.5l3 13h362l-3 -13q-59 -2 -82.5 -11.5t-28.5 -28.5l-29 -109h91zM335 372h261l37 139h-261z" />
    <glyph glyph-name="hbar" unicode="&#x127;" horiz-adv-x="585" 
d="M533 301l-61 -199q-10 -33 -10 -46q0 -20 19.5 -25t72.5 -2v-12q-69 -25 -134 -25q-105 0 -105 71q0 21 9 50l61 200q10 34 10 56q0 40 -36 40q-47 0 -107 -58l-90 -351h-153l47 162l103 410h-65l6 22h64l12 46q5 23 -11.5 33.5t-70.5 13.5v12l256 18l-34 -123h128
l-6 -22h-128l-54 -200l3 -2q87 99 181 99q50 0 77 -26t27 -73q0 -33 -11 -69z" />
    <glyph glyph-name="Imacron" unicode="&#x12a;" horiz-adv-x="447" 
d="M534 684q-61 -2 -85 -11.5t-29 -28.5l-158 -589q-7 -26 9.5 -32.5t83.5 -8.5l-3 -14h-375l3 14q67 2 86.5 8.5t26.5 32.5l159 589q3 13 -1.5 20.5t-26.5 13t-65 6.5l3 13h375zM214 794l13 51h308l-13 -51h-308z" />
    <glyph glyph-name="imacron" unicode="&#x12b;" horiz-adv-x="332" 
d="M295 36v-12q-75 -32 -146 -32q-104 0 -104 74q0 18 8 47l81 272q8 25 -13 38t-68 16v12l254 16l-106 -356q-8 -26 -8 -40q0 -24 23 -31.5t79 -3.5zM85 554l13 51h308l-13 -51h-308z" />
    <glyph glyph-name="Ibreve" unicode="&#x12c;" horiz-adv-x="447" 
d="M534 684q-61 -2 -85 -11.5t-29 -28.5l-158 -589q-7 -26 9.5 -32.5t83.5 -8.5l-3 -14h-375l3 14q67 2 86.5 8.5t26.5 32.5l159 589q3 13 -1.5 20.5t-26.5 13t-65 6.5l3 13h375zM366 769q-65 0 -94 42t-9 131h16q11 -87 101 -87q96 0 149 87h20q-55 -173 -183 -173z" />
    <glyph glyph-name="ibreve" unicode="&#x12d;" horiz-adv-x="332" 
d="M295 36v-12q-75 -32 -146 -32q-104 0 -104 74q0 18 8 47l81 272q8 25 -13 38t-68 16v12l254 16l-106 -356q-8 -26 -8 -40q0 -24 23 -31.5t79 -3.5zM237 529q-65 0 -94 42t-9 131h16q11 -87 101 -87q96 0 149 87h20q-55 -173 -183 -173z" />
    <glyph glyph-name="Iogonek" unicode="&#x12e;" horiz-adv-x="447" 
d="M78 -247q-44 0 -69 21t-25 57q0 44 35.5 75.5t101.5 63.5l61 30h-205l3 14q67 2 86.5 8.5t26.5 32.5l159 589q3 13 -1.5 20.5t-26.5 13t-65 6.5l3 13h375l-3 -13q-61 -2 -85 -11.5t-29 -28.5l-158 -589q-7 -26 9.5 -32.5t83.5 -8.5l-3 -14h-147l-39 -33q-76 -64 -76 -124
q0 -53 52 -53q28 0 60 13l5 -12q-63 -38 -129 -38z" />
    <glyph glyph-name="iogonek" unicode="&#x12f;" horiz-adv-x="325" 
d="M129 -31l60 26q-18 -3 -40 -3q-104 0 -104 74q0 18 8 47l81 272q7 25 -13.5 38t-67.5 16v12l254 16l-106 -356q-8 -26 -8 -40q0 -24 23 -31.5t79 -3.5v-12q-62 -26 -82 -37q-120 -67 -120 -144q0 -53 52 -53q28 0 60 13l5 -12q-63 -38 -129 -38q-44 0 -69 21t-25 57
q0 45 37.5 77t104.5 61zM254 533q-28 0 -48.5 19.5t-20.5 52.5q0 45 29.5 75t71.5 30q28 0 48.5 -19.5t20.5 -52.5q0 -45 -29.5 -75t-71.5 -30z" />
    <glyph glyph-name="Idotaccent" unicode="&#x130;" horiz-adv-x="447" 
d="M534 684q-61 -2 -85 -11.5t-29 -28.5l-158 -589q-7 -26 9.5 -32.5t83.5 -8.5l-3 -14h-375l3 14q67 2 86.5 8.5t26.5 32.5l159 589q3 13 -1.5 20.5t-26.5 13t-65 6.5l3 13h375zM377 769q-28 0 -48.5 19.5t-20.5 52.5q0 45 29.5 75t71.5 30q28 0 48.5 -19.5t20.5 -52.5
q0 -45 -29.5 -75t-71.5 -30z" />
    <glyph glyph-name="dotlessi" unicode="&#x131;" horiz-adv-x="332" 
d="M295 36v-12q-75 -32 -146 -32q-104 0 -104 74q0 18 8 47l81 272q8 25 -13 38t-68 16v12l254 16l-106 -356q-8 -26 -8 -40q0 -24 23 -31.5t79 -3.5z" />
    <glyph glyph-name="Kcommaaccent" unicode="&#x136;" horiz-adv-x="786" 
d="M878 697l-3 -13q-64 -11 -118 -42t-126 -93l-114 -99l153 -364q19 -45 33.5 -56t59.5 -16l-3 -14h-351l3 14q64 5 76.5 18t-4.5 53l-98 252l-79 -68l-57 -214q-7 -25 9.5 -32t61.5 -9h7l-3 -14h-356l3 14q65 2 84 8.5t26 32.5l158 589q3 13 -1 20.5t-25 13t-63 6.5l3 13
h361l-3 -13q-55 -3 -77 -12.5t-27 -27.5l-92 -343l282 248q61 56 53.5 93.5t-69.5 41.5l3 13h293zM195 -326l-5 12q56 25 83.5 52.5t35.5 49.5l-3 4q-29 -2 -48.5 18.5t-19.5 52.5t22 54.5t53 22.5q37 0 58.5 -24.5t21.5 -60.5q0 -60 -53 -107t-145 -74z" />
    <glyph glyph-name="kcommaaccent" unicode="&#x137;" horiz-adv-x="553" 
d="M350 717l-118 -444h21q25 0 46.5 20.5t38.5 49.5l35.5 58.5t46.5 50t63 20.5q39 0 60.5 -22t21.5 -53q0 -37 -19 -58.5t-51 -21.5q-31 0 -51 15.5t-20 43.5q0 27 16 48q-24 -4 -44 -27t-32 -48t-30 -48.5t-39 -28.5v-4q163 10 163 -98q0 -13 -3.5 -48t-3.5 -52
q0 -26 15 -34.5t64 -6.5v-12q-69 -25 -124 -25q-62 0 -83.5 24t-21.5 69q0 18 6 57.5t6 47.5q0 39 -15.5 53.5t-53.5 14.5h-16l-66 -258h-153l47 162l120 478q5 23 -11.5 33.5t-70.5 13.5v12zM64 -326l-5 12q56 25 83.5 52.5t35.5 49.5l-3 4q-29 -2 -48.5 18.5t-19.5 52.5
t22 54.5t53 22.5q37 0 58.5 -24.5t21.5 -60.5q0 -60 -53 -107t-145 -74z" />
    <glyph glyph-name="Lacute" unicode="&#x139;" horiz-adv-x="685" 
d="M408 644l-167 -623h82q45 0 81.5 13t76 48t73 74.5t90.5 114.5h17l-79 -271h-613l3 14q65 2 84 8.5t26 32.5l158 589q3 13 -1 20.5t-25 13t-63 6.5l3 13h367l-3 -13q-58 -2 -81.5 -11.5t-28.5 -28.5zM325 764l64 126q39 76 55.5 97t45.5 21q23 0 39.5 -16t16.5 -37
t-19.5 -41.5t-90.5 -75.5l-95 -74h-16z" />
    <glyph glyph-name="lacute" unicode="&#x13a;" horiz-adv-x="314" 
d="M360 717l-175 -606q-7 -26 -7 -39q0 -25 23 -32.5t80 -3.5v-12q-75 -32 -146 -32q-104 0 -104 73q0 19 8 48l101 345l48 182q5 23 -11.5 33.5t-70.5 13.5v12zM250 777l64 126q39 76 55.5 97t45.5 21q23 0 39.5 -16t16.5 -37t-19.5 -41.5t-90.5 -75.5l-95 -74h-16z" />
    <glyph glyph-name="Lcommaaccent" unicode="&#x13b;" horiz-adv-x="685" 
d="M408 644l-167 -623h82q45 0 81.5 13t76 48t73 74.5t90.5 114.5h17l-79 -271h-613l3 14q65 2 84 8.5t26 32.5l158 589q3 13 -1 20.5t-25 13t-63 6.5l3 13h367l-3 -13q-58 -2 -81.5 -11.5t-28.5 -28.5zM180 -326l-5 12q56 25 83.5 52.5t35.5 49.5l-3 4q-29 -2 -48.5 18.5
t-19.5 52.5t22 54.5t53 22.5q37 0 58.5 -24.5t21.5 -60.5q0 -60 -53 -107t-145 -74z" />
    <glyph glyph-name="lcommaaccent" unicode="&#x13c;" horiz-adv-x="314" 
d="M360 717l-175 -606q-7 -26 -7 -39q0 -25 23 -32.5t80 -3.5v-12q-75 -32 -146 -32q-104 0 -104 73q0 19 8 48l101 345l48 182q5 23 -11.5 33.5t-70.5 13.5v12zM-46 -326l-5 12q56 25 83.5 52.5t35.5 49.5l-3 4q-29 -2 -48.5 18.5t-19.5 52.5t22 54.5t53 22.5
q37 0 58.5 -24.5t21.5 -60.5q0 -60 -53 -107t-145 -74z" />
    <glyph glyph-name="Lcaron" unicode="&#x13d;" horiz-adv-x="685" 
d="M408 644l-167 -623h82q45 0 81.5 13t76 48t73 74.5t90.5 114.5h17l-79 -271h-613l3 14q65 2 84 8.5t26 32.5l158 589q3 13 -1 20.5t-25 13t-63 6.5l3 13h367l-3 -13q-58 -2 -81.5 -11.5t-28.5 -28.5zM530 508l27 174q6 39 19.5 54.5t38.5 15.5q20 0 35.5 -12.5
t15.5 -32.5q0 -25 -46 -93l-74 -106h-16z" />
    <glyph glyph-name="lcaron" unicode="&#x13e;" horiz-adv-x="314" 
d="M360 717l-175 -606q-7 -26 -7 -39q0 -25 23 -32.5t80 -3.5v-12q-75 -32 -146 -32q-104 0 -104 73q0 19 8 48l101 345l48 182q5 23 -11.5 33.5t-70.5 13.5v12zM392 528l27 174q6 39 19.5 54.5t38.5 15.5q20 0 35.5 -12.5t15.5 -32.5q0 -25 -46 -93l-74 -106h-16z" />
    <glyph glyph-name="Ldot" unicode="&#x13f;" horiz-adv-x="685" 
d="M-31 0l3 14q65 2 84 8.5t26 32.5l158 589q3 13 -1 20.5t-25 13t-63 6.5l3 13h367l-3 -13q-58 -2 -81.5 -11.5t-28.5 -28.5l-167 -623h82q86 0 149.5 49.5t165.5 180.5h17l-73 -251h-613zM561 312q-28 0 -48.5 19.5t-20.5 52.5q0 45 29.5 75t71.5 30q28 0 48.5 -19.5
t20.5 -52.5q0 -45 -29.5 -75t-71.5 -30z" />
    <glyph glyph-name="ldot" unicode="&#x140;" horiz-adv-x="435" 
d="M375 234q-28 0 -48.5 19.5t-20.5 52.5q0 45 29.5 75t71.5 30q28 0 48.5 -19.5t20.5 -52.5q0 -45 -29.5 -75t-71.5 -30zM360 717l-175 -606q-7 -26 -7 -39q0 -25 23 -32.5t80 -3.5v-12q-75 -32 -146 -32q-104 0 -104 73q0 19 8 48l101 345l48 182q5 23 -11.5 33.5
t-70.5 13.5v12z" />
    <glyph glyph-name="Lslash" unicode="&#x141;" horiz-adv-x="685" 
d="M408 644l-71 -263l151 37v-26l-158 -39l-89 -332h82q45 0 81.5 13t76 48t73 74.5t90.5 114.5h17l-79 -271h-613l3 14q65 2 84 8.5t26 32.5l68 253l-96 -23v27l103 25l83 307q3 13 -1 20.5t-25 13t-63 6.5l3 13h367l-3 -13q-58 -2 -81.5 -11.5t-28.5 -28.5z" />
    <glyph glyph-name="lslash" unicode="&#x142;" horiz-adv-x="344" 
d="M375 717l-96 -333l88 22v-24l-96 -24l-71 -247q-7 -26 -7 -39q0 -25 23 -32.5t80 -3.5v-12q-75 -32 -146 -32q-104 0 -104 73q0 19 8 48l60 205l-82 -20v24l89 22l34 114l48 182q5 23 -11.5 33.5t-70.5 13.5v12z" />
    <glyph glyph-name="Nacute" unicode="&#x143;" horiz-adv-x="813" 
d="M383 697l265 -518h1l96 363q20 76 -2 107t-96 35l3 13h282l-3 -13q-66 -7 -102 -41t-54 -100l-148 -552h-66l-298 583h-1l-112 -419q-20 -76 2 -106.5t96 -34.5l-3 -14h-282l3 14q66 7 102 40.5t54 99.5l115 431q10 37 -13 66t-78 33l3 13h236zM505 764l64 126
q39 76 55.5 97t45.5 21q23 0 39.5 -16t16.5 -37t-19.5 -41.5t-90.5 -75.5l-95 -74h-16z" />
    <glyph glyph-name="nacute" unicode="&#x144;" horiz-adv-x="591" 
d="M62 162l61 230q6 24 -5.5 34t-55.5 13v12l227 16l-27 -95l3 -2q87 99 181 99q50 0 77 -26t27 -73q0 -33 -11 -69l-61 -199q-10 -33 -10 -46q0 -20 19.5 -25t72.5 -2v-12q-69 -25 -134 -25q-105 0 -105 71q0 21 9 50l61 200q10 34 10 56q0 40 -36 40q-47 0 -107 -58
l-90 -351h-154zM316 524l64 126q39 76 55.5 97t45.5 21q23 0 39.5 -16t16.5 -37t-19.5 -41.5t-90.5 -75.5l-95 -74h-16z" />
    <glyph glyph-name="Ncommaaccent" unicode="&#x145;" horiz-adv-x="813" 
d="M383 697l265 -518h1l96 363q20 76 -2 107t-96 35l3 13h282l-3 -13q-66 -7 -102 -41t-54 -100l-148 -552h-66l-298 583h-1l-112 -419q-20 -76 2 -106.5t96 -34.5l-3 -14h-282l3 14q66 7 102 40.5t54 99.5l115 431q10 37 -13 66t-78 33l3 13h236zM216 -326l-5 12
q56 25 83.5 52.5t35.5 49.5l-3 4q-29 -2 -48.5 18.5t-19.5 52.5t22 54.5t53 22.5q37 0 58.5 -24.5t21.5 -60.5q0 -60 -53 -107t-145 -74z" />
    <glyph glyph-name="ncommaaccent" unicode="&#x146;" horiz-adv-x="591" 
d="M62 162l61 230q6 24 -5.5 34t-55.5 13v12l227 16l-27 -95l3 -2q87 99 181 99q50 0 77 -26t27 -73q0 -33 -11 -69l-61 -199q-10 -33 -10 -46q0 -20 19.5 -25t72.5 -2v-12q-69 -25 -134 -25q-105 0 -105 71q0 21 9 50l61 200q10 34 10 56q0 40 -36 40q-47 0 -107 -58
l-90 -351h-154zM92 -326l-5 12q56 25 83.5 52.5t35.5 49.5l-3 4q-29 -2 -48.5 18.5t-19.5 52.5t22 54.5t53 22.5q37 0 58.5 -24.5t21.5 -60.5q0 -60 -53 -107t-145 -74z" />
    <glyph glyph-name="Ncaron" unicode="&#x147;" horiz-adv-x="813" 
d="M383 697l265 -518h1l96 363q20 76 -2 107t-96 35l3 13h282l-3 -13q-66 -7 -102 -41t-54 -100l-148 -552h-66l-298 583h-1l-112 -419q-20 -76 2 -106.5t96 -34.5l-3 -14h-282l3 14q66 7 102 40.5t54 99.5l115 431q10 37 -13 66t-78 33l3 13h236zM556 764l-85 217h16
l110 -86l155 86h22l-205 -217h-13z" />
    <glyph glyph-name="ncaron" unicode="&#x148;" horiz-adv-x="591" 
d="M62 162l61 230q6 24 -5.5 34t-55.5 13v12l227 16l-27 -95l3 -2q87 99 181 99q50 0 77 -26t27 -73q0 -33 -11 -69l-61 -199q-10 -33 -10 -46q0 -20 19.5 -25t72.5 -2v-12q-69 -25 -134 -25q-105 0 -105 71q0 21 9 50l61 200q10 34 10 56q0 40 -36 40q-47 0 -107 -58
l-90 -351h-154zM367 524l-85 217h16l110 -86l155 86h22l-205 -217h-13z" />
    <glyph glyph-name="Omacron" unicode="&#x14c;" horiz-adv-x="783" 
d="M365 -17q-132 0 -217.5 76.5t-85.5 215.5q0 58 18 119t54 118t85.5 102.5t119 72.5t146.5 27q132 0 217.5 -76.5t85.5 -215.5q0 -58 -18 -119t-54 -118t-85.5 -102.5t-119 -72.5t-146.5 -27zM336 4q81 0 149 88.5t103 207.5t35 228q0 165 -109 165q-81 0 -149 -88.5
t-103 -207.5t-35 -228q0 -165 109 -165zM382 794l13 51h308l-13 -51h-308z" />
    <glyph glyph-name="omacron" unicode="&#x14d;" horiz-adv-x="542" 
d="M311 472q97 0 153 -55t56 -147q0 -47 -19 -95t-54 -89.5t-91.5 -67.5t-124.5 -26q-97 0 -153 55t-56 147q0 47 19 95t54 89.5t91.5 67.5t124.5 26zM220 12q45 0 83.5 65.5t57.5 147t19 146.5q0 81 -58 81q-45 0 -83.5 -65.5t-57.5 -147t-19 -146.5q0 -81 58 -81zM196 554
l13 51h308l-13 -51h-308z" />
    <glyph glyph-name="Obreve" unicode="&#x14e;" horiz-adv-x="783" 
d="M365 -17q-132 0 -217.5 76.5t-85.5 215.5q0 58 18 119t54 118t85.5 102.5t119 72.5t146.5 27q132 0 217.5 -76.5t85.5 -215.5q0 -58 -18 -119t-54 -118t-85.5 -102.5t-119 -72.5t-146.5 -27zM336 4q81 0 149 88.5t103 207.5t35 228q0 165 -109 165q-81 0 -149 -88.5
t-103 -207.5t-35 -228q0 -165 109 -165zM534 769q-65 0 -94 42t-9 131h16q11 -87 101 -87q96 0 149 87h20q-55 -173 -183 -173z" />
    <glyph glyph-name="obreve" unicode="&#x14f;" horiz-adv-x="542" 
d="M311 472q97 0 153 -55t56 -147q0 -47 -19 -95t-54 -89.5t-91.5 -67.5t-124.5 -26q-97 0 -153 55t-56 147q0 47 19 95t54 89.5t91.5 67.5t124.5 26zM220 12q45 0 83.5 65.5t57.5 147t19 146.5q0 81 -58 81q-45 0 -83.5 -65.5t-57.5 -147t-19 -146.5q0 -81 58 -81zM347 529
q-65 0 -94 42t-9 131h16q11 -87 101 -87q96 0 149 87h20q-55 -173 -183 -173z" />
    <glyph glyph-name="Ohungarumlaut" unicode="&#x150;" horiz-adv-x="783" 
d="M365 -17q-132 0 -217.5 76.5t-85.5 215.5q0 58 18 119t54 118t85.5 102.5t119 72.5t146.5 27q132 0 217.5 -76.5t85.5 -215.5q0 -58 -18 -119t-54 -118t-85.5 -102.5t-119 -72.5t-146.5 -27zM336 4q81 0 149 88.5t103 207.5t35 228q0 165 -109 165q-81 0 -149 -88.5
t-103 -207.5t-35 -228q0 -165 109 -165zM414 764l75 126q45 75 64 96.5t48 21.5q23 0 37 -14.5t14 -33.5q0 -23 -21 -43.5t-100 -78.5l-101 -74h-16zM598 764l75 126q45 75 64 96.5t48 21.5q23 0 37 -14.5t14 -33.5q0 -23 -21 -43.5t-100 -78.5l-101 -74h-16z" />
    <glyph glyph-name="ohungarumlaut" unicode="&#x151;" horiz-adv-x="542" 
d="M311 472q97 0 153 -55t56 -147q0 -47 -19 -95t-54 -89.5t-91.5 -67.5t-124.5 -26q-97 0 -153 55t-56 147q0 47 19 95t54 89.5t91.5 67.5t124.5 26zM220 12q45 0 83.5 65.5t57.5 147t19 146.5q0 81 -58 81q-45 0 -83.5 -65.5t-57.5 -147t-19 -146.5q0 -81 58 -81zM227 524
l75 126q45 75 64 96.5t48 21.5q23 0 37 -14.5t14 -33.5q0 -23 -21 -43.5t-100 -78.5l-101 -74h-16zM411 524l75 126q45 75 64 96.5t48 21.5q23 0 37 -14.5t14 -33.5q0 -23 -21 -43.5t-100 -78.5l-101 -74h-16z" />
    <glyph glyph-name="OE" unicode="&#x152;" horiz-adv-x="1096" 
d="M991 0h-604q-142 0 -233.5 74t-91.5 211q0 75 33 151t92 135q126 126 308 126h643l-62 -248h-16q-23 120 -58.5 173.5t-117.5 53.5h-97l-80 -298h46q39 0 66 13t48 35.5t64 78.5h15l-75 -288h-15q-21 93 -37 117t-71 24h-46l-90 -337h116q97 0 168 60t149 182h17z
M620 678h-94q-81 0 -145 -64q-73 -73 -112 -201t-39 -217q0 -87 34.5 -132t124.5 -45h54z" />
    <glyph glyph-name="oe" unicode="&#x153;" horiz-adv-x="828" 
d="M674 472q77 0 116.5 -30.5t39.5 -77.5q0 -65 -80 -103.5t-235 -28.5q-4 -21 -4 -47q0 -70 27.5 -103.5t88.5 -33.5q41 0 84 23.5t72 66.5l12 -11q-38 -63 -98.5 -99t-134.5 -36q-99 0 -149 70q-73 -70 -181 -70q-97 0 -153 55t-56 147q0 47 19 95t54 89.5t91.5 67.5
t124.5 26q105 0 156 -76q82 76 206 76zM221 12q45 0 83.5 65.5t57.5 147t19 146.5q0 81 -58 81q-45 0 -83.5 -65.5t-57.5 -147t-19 -146.5q0 -81 58 -81zM665 453q-42 0 -86 -61.5t-61 -141.5q56 -1 96 12.5t59 37.5t26.5 48t7.5 51q0 54 -42 54z" />
    <glyph glyph-name="Racute" unicode="&#x154;" horiz-adv-x="753" 
d="M331 357h44q53 0 92.5 17t60 41t33 56t15.5 54t3 44q0 54 -23.5 81.5t-77.5 27.5h-61zM151 684l3 13h340q250 0 250 -146q0 -167 -281 -200l-1 -5q115 -6 156 -44t29 -123l-7 -59q-8 -70 5.5 -87.5t74.5 -21.5l-3 -14q-44 -4 -97 -4q-106 0 -137 32.5t-17 105.5l17 92
q13 67 -6 91t-80 24h-71l-76 -283q-7 -25 10 -32t66 -9h7l-3 -14h-361l3 14q65 2 84 8.5t26 32.5l158 589q3 13 -1 20.5t-25 13t-63 6.5zM440 764l64 126q39 76 55.5 97t45.5 21q23 0 39.5 -16t16.5 -37t-19.5 -41.5t-90.5 -75.5l-95 -74h-16z" />
    <glyph glyph-name="racute" unicode="&#x155;" horiz-adv-x="487" 
d="M415 473q46 0 71.5 -24.5t25.5 -63.5q0 -43 -24 -69.5t-62 -26.5q-35 0 -57.5 19t-22.5 53q0 36 21 54q-43 -1 -114 -82l-85 -333h-154l48 162l61 230q6 24 -5.5 34t-55.5 13v12l227 16l-31 -105l2 -2q68 113 155 113zM255 524l64 126q39 76 55.5 97t45.5 21
q23 0 39.5 -16t16.5 -37t-19.5 -41.5t-90.5 -75.5l-95 -74h-16z" />
    <glyph glyph-name="Rcommaaccent" unicode="&#x156;" horiz-adv-x="753" 
d="M331 357h44q53 0 92.5 17t60 41t33 56t15.5 54t3 44q0 54 -23.5 81.5t-77.5 27.5h-61zM151 684l3 13h340q250 0 250 -146q0 -167 -281 -200l-1 -5q115 -6 156 -44t29 -123l-7 -59q-8 -70 5.5 -87.5t74.5 -21.5l-3 -14q-44 -4 -97 -4q-106 0 -137 32.5t-17 105.5l17 92
q13 67 -6 91t-80 24h-71l-76 -283q-7 -25 10 -32t66 -9h7l-3 -14h-361l3 14q65 2 84 8.5t26 32.5l158 589q3 13 -1 20.5t-25 13t-63 6.5zM176 -326l-5 12q56 25 83.5 52.5t35.5 49.5l-3 4q-29 -2 -48.5 18.5t-19.5 52.5t22 54.5t53 22.5q37 0 58.5 -24.5t21.5 -60.5
q0 -60 -53 -107t-145 -74z" />
    <glyph glyph-name="rcommaaccent" unicode="&#x157;" horiz-adv-x="487" 
d="M415 473q46 0 71.5 -24.5t25.5 -63.5q0 -43 -24 -69.5t-62 -26.5q-35 0 -57.5 19t-22.5 53q0 36 21 54q-43 -1 -114 -82l-85 -333h-154l48 162l61 230q6 24 -5.5 34t-55.5 13v12l227 16l-31 -105l2 -2q68 113 155 113zM-54 -326l-5 12q56 25 83.5 52.5t35.5 49.5l-3 4
q-29 -2 -48.5 18.5t-19.5 52.5t22 54.5t53 22.5q37 0 58.5 -24.5t21.5 -60.5q0 -60 -53 -107t-145 -74z" />
    <glyph glyph-name="Rcaron" unicode="&#x158;" horiz-adv-x="753" 
d="M331 357h44q53 0 92.5 17t60 41t33 56t15.5 54t3 44q0 54 -23.5 81.5t-77.5 27.5h-61zM151 684l3 13h340q250 0 250 -146q0 -167 -281 -200l-1 -5q115 -6 156 -44t29 -123l-7 -59q-8 -70 5.5 -87.5t74.5 -21.5l-3 -14q-44 -4 -97 -4q-106 0 -137 32.5t-17 105.5l17 92
q13 67 -6 91t-80 24h-71l-76 -283q-7 -25 10 -32t66 -9h7l-3 -14h-361l3 14q65 2 84 8.5t26 32.5l158 589q3 13 -1 20.5t-25 13t-63 6.5zM491 764l-85 217h16l110 -86l155 86h22l-205 -217h-13z" />
    <glyph glyph-name="rcaron" unicode="&#x159;" horiz-adv-x="487" 
d="M415 473q46 0 71.5 -24.5t25.5 -63.5q0 -43 -24 -69.5t-62 -26.5q-35 0 -57.5 19t-22.5 53q0 36 21 54q-43 -1 -114 -82l-85 -333h-154l48 162l61 230q6 24 -5.5 34t-55.5 13v12l227 16l-31 -105l2 -2q68 113 155 113zM305 524l-85 217h16l110 -86l155 86h22l-205 -217
h-13z" />
    <glyph glyph-name="Sacute" unicode="&#x15a;" horiz-adv-x="595" 
d="M-16 -16l80 275h16q34 -134 82 -194t129 -60q61 0 103.5 31t42.5 86q0 30 -11 54t-37.5 45t-44.5 32t-58 32t-61 34.5t-49 37.5t-40.5 53t-12.5 66q0 92 73.5 163t188.5 71q99 0 183 -41l56 47h16l-61 -251h-18q-40 127 -87.5 176.5t-108.5 49.5q-53 0 -86.5 -28.5
t-33.5 -81.5q0 -24 10 -44t36 -40t41 -29.5t55 -31.5t62 -37t50 -40t41 -55.5t13 -67.5q0 -104 -72.5 -176.5t-196.5 -72.5q-128 0 -230 53l-54 -56h-16zM378 764l64 126q39 76 55.5 97t45.5 21q23 0 39.5 -16t16.5 -37t-19.5 -41.5t-90.5 -75.5l-95 -74h-16z" />
    <glyph glyph-name="sacute" unicode="&#x15b;" horiz-adv-x="452" 
d="M180 -8q-77 0 -128 25t-51 70q0 29 20.5 49.5t52.5 20.5q28 0 47.5 -17t19.5 -42q0 -35 -29 -55q36 -31 86 -31q47 0 74 21t27 58q0 16 -6.5 27.5t-23.5 21.5t-27 14t-37 14q-5 2 -8 3q-67 23 -99 53t-32 82q0 73 58.5 119.5t155.5 46.5q79 0 123 -27t44 -67
q0 -30 -18 -51t-53 -21q-27 0 -46.5 17.5t-19.5 38.5q0 37 33 59q-24 31 -76 31q-48 0 -73.5 -22.5t-25.5 -57.5q0 -19 17 -35t34.5 -23.5t53.5 -20.5q71 -28 102.5 -57.5t31.5 -75.5q0 -75 -54.5 -121.5t-172.5 -46.5zM241 524l64 126q39 76 55.5 97t45.5 21q23 0 39.5 -16
t16.5 -37t-19.5 -41.5t-90.5 -75.5l-95 -74h-16z" />
    <glyph glyph-name="Scedilla" unicode="&#x15e;" horiz-adv-x="595" 
d="M205 -243q-62 0 -105 26l9 15q38 -23 76 -23q30 0 46.5 13.5t16.5 34.5q0 22 -23.5 35.5t-62.5 13.5q-11 0 -29 -2l-1 11l131 106q-117 5 -209 53l-54 -56h-16l80 275h16q33 -132 80 -192t125 -62h11q59 2 100 32.5t41 84.5q0 30 -11 54t-37.5 45t-44.5 32t-58 32
t-61 34.5t-49 37.5t-40.5 53t-12.5 66q0 92 73.5 163t188.5 71q99 0 183 -41l56 47h16l-61 -251h-18q-40 127 -87.5 176.5t-108.5 49.5q-53 0 -86.5 -28.5t-33.5 -81.5q0 -24 10 -44t36 -40t41 -29.5t55 -31.5t62 -37t50 -40t41 -55.5t13 -67.5q0 -103 -71.5 -175.5
t-193.5 -73.5l-57 -45v-4q56 -8 84.5 -27.5t28.5 -55.5q0 -45 -42.5 -71.5t-96.5 -26.5z" />
    <glyph glyph-name="scedilla" unicode="&#x15f;" horiz-adv-x="452" 
d="M129 -243q-62 0 -105 26l9 15q38 -23 76 -23q30 0 46.5 13.5t16.5 34.5q0 22 -23.5 35.5t-62.5 13.5q-11 0 -29 -2l-1 11l137 111h-13q-77 0 -128 25t-51 70q0 29 20.5 49.5t52.5 20.5q28 0 47.5 -17t19.5 -42q0 -35 -29 -55q36 -31 86 -31q47 0 74 21t27 58
q0 16 -6.5 27.5t-23.5 21.5t-27 14t-37 14q-5 2 -8 3q-67 23 -99 53t-32 82q0 73 58.5 119.5t155.5 46.5q79 0 123 -27t44 -67q0 -30 -18 -51t-53 -21q-27 0 -46.5 17.5t-19.5 38.5q0 37 33 59q-24 31 -76 31q-48 0 -73.5 -22.5t-25.5 -57.5q0 -19 17 -35t34.5 -23.5
t53.5 -20.5q71 -28 102.5 -57.5t31.5 -75.5q0 -68 -45 -113t-142 -53l-65 -52v-4q56 -8 84.5 -27.5t28.5 -55.5q0 -45 -42.5 -71.5t-96.5 -26.5z" />
    <glyph glyph-name="Scaron" unicode="&#x160;" horiz-adv-x="595" 
d="M-16 -16l80 275h16q34 -134 82 -194t129 -60q61 0 103.5 31t42.5 86q0 30 -11 54t-37.5 45t-44.5 32t-58 32t-61 34.5t-49 37.5t-40.5 53t-12.5 66q0 92 73.5 163t188.5 71q99 0 183 -41l56 47h16l-61 -251h-18q-40 127 -87.5 176.5t-108.5 49.5q-53 0 -86.5 -28.5
t-33.5 -81.5q0 -24 10 -44t36 -40t41 -29.5t55 -31.5t62 -37t50 -40t41 -55.5t13 -67.5q0 -104 -72.5 -176.5t-196.5 -72.5q-128 0 -230 53l-54 -56h-16zM429 764l-85 217h16l110 -86l155 86h22l-205 -217h-13z" />
    <glyph glyph-name="scaron" unicode="&#x161;" horiz-adv-x="452" 
d="M180 -8q-77 0 -128 25t-51 70q0 29 20.5 49.5t52.5 20.5q28 0 47.5 -17t19.5 -42q0 -35 -29 -55q36 -31 86 -31q47 0 74 21t27 58q0 16 -6.5 27.5t-23.5 21.5t-27 14t-37 14q-5 2 -8 3q-67 23 -99 53t-32 82q0 73 58.5 119.5t155.5 46.5q79 0 123 -27t44 -67
q0 -30 -18 -51t-53 -21q-27 0 -46.5 17.5t-19.5 38.5q0 37 33 59q-24 31 -76 31q-48 0 -73.5 -22.5t-25.5 -57.5q0 -19 17 -35t34.5 -23.5t53.5 -20.5q71 -28 102.5 -57.5t31.5 -75.5q0 -75 -54.5 -121.5t-172.5 -46.5zM292 524l-85 217h16l110 -86l155 86h22l-205 -217h-13
z" />
    <glyph glyph-name="Tcommaaccent" unicode="&#x162;" horiz-adv-x="745" 
d="M242 55l167 624h-17q-49 0 -108.5 -52t-163.5 -186h-19l71 256h650l-68 -256h-16q-41 148 -70 193t-80 45h-11l-167 -624q-7 -26 12 -32.5t99 -8.5l-3 -14h-410l3 14q80 2 102 8.5t29 32.5zM165 -326l-5 12q56 25 83.5 52.5t35.5 49.5l-3 4q-29 -2 -48.5 18.5t-19.5 52.5
t22 54.5t53 22.5q37 0 58.5 -24.5t21.5 -60.5q0 -60 -53 -107t-145 -74z" />
    <glyph glyph-name="tcommaaccent" unicode="&#x163;" horiz-adv-x="379" 
d="M424 430h-129l-76 -272q-10 -34 -10 -58q0 -49 60 -49q37 0 90 15v-12q-107 -62 -191 -62q-115 0 -115 94q0 31 12 70l80 274h-95l9 29h95l43 153l161 21l-55 -174h130zM0 -326l-5 12q56 25 83.5 52.5t35.5 49.5l-3 4q-29 -2 -48.5 18.5t-19.5 52.5t22 54.5t53 22.5
q37 0 58.5 -24.5t21.5 -60.5q0 -60 -53 -107t-145 -74z" />
    <glyph glyph-name="Tcaron" unicode="&#x164;" horiz-adv-x="745" 
d="M242 55l167 624h-17q-49 0 -108.5 -52t-163.5 -186h-19l71 256h650l-68 -256h-16q-41 148 -70 193t-80 45h-11l-167 -624q-7 -26 12 -32.5t99 -8.5l-3 -14h-410l3 14q80 2 102 8.5t29 32.5zM505 764l-85 217h16l110 -86l155 86h22l-205 -217h-13z" />
    <glyph glyph-name="tcaron" unicode="&#x165;" horiz-adv-x="379" 
d="M424 430h-129l-76 -272q-10 -34 -10 -58q0 -49 60 -49q37 0 90 15v-12q-107 -62 -191 -62q-115 0 -115 94q0 31 12 70l80 274h-95l9 29h95l43 153l161 21l-55 -174h130zM404 528l27 174q6 39 19.5 54.5t38.5 15.5q20 0 35.5 -12.5t15.5 -32.5q0 -25 -46 -93l-74 -106h-16
z" />
    <glyph glyph-name="Umacron" unicode="&#x16a;" horiz-adv-x="821" 
d="M387 644l-101 -377q-17 -65 -17 -109q0 -140 152 -140q169 0 229 222l84 313q16 61 -7 94t-94 37l3 13h282l-3 -13q-68 -7 -101.5 -35.5t-51.5 -94.5l-89 -333q-33 -124 -106 -181t-202 -57q-123 0 -190 50.5t-66 152.5q0 44 16 106l94 352q3 13 -1 20.5t-25 13t-63 6.5
l3 13h361l-3 -13q-55 -3 -77 -12.5t-27 -27.5zM409 794l13 51h308l-13 -51h-308z" />
    <glyph glyph-name="umacron" unicode="&#x16b;" horiz-adv-x="592" 
d="M49 160l74 227q8 25 -5.5 37t-59.5 15l1 12l237 16l-99 -319q-9 -28 -9 -46q0 -41 41 -41q51 0 101 49l57 197l42 158h154l-109 -363q-10 -33 -10 -45q0 -20 19.5 -25.5t72.5 -2.5v-12q-69 -25 -134 -25q-46 0 -73.5 16t-27.5 49q0 14 6 32l-3 2q-87 -99 -182 -99
q-50 0 -78 25t-28 72q0 32 13 71zM220 554l13 51h308l-13 -51h-308z" />
    <glyph glyph-name="Ubreve" unicode="&#x16c;" horiz-adv-x="821" 
d="M387 644l-101 -377q-17 -65 -17 -109q0 -140 152 -140q169 0 229 222l84 313q16 61 -7 94t-94 37l3 13h282l-3 -13q-68 -7 -101.5 -35.5t-51.5 -94.5l-89 -333q-33 -124 -106 -181t-202 -57q-123 0 -190 50.5t-66 152.5q0 44 16 106l94 352q3 13 -1 20.5t-25 13t-63 6.5
l3 13h361l-3 -13q-55 -3 -77 -12.5t-27 -27.5zM561 769q-65 0 -94 42t-9 131h16q11 -87 101 -87q96 0 149 87h20q-55 -173 -183 -173z" />
    <glyph glyph-name="ubreve" unicode="&#x16d;" horiz-adv-x="592" 
d="M49 160l74 227q8 25 -5.5 37t-59.5 15l1 12l237 16l-99 -319q-9 -28 -9 -46q0 -41 41 -41q51 0 101 49l57 197l42 158h154l-109 -363q-10 -33 -10 -45q0 -20 19.5 -25.5t72.5 -2.5v-12q-69 -25 -134 -25q-46 0 -73.5 16t-27.5 49q0 14 6 32l-3 2q-87 -99 -182 -99
q-50 0 -78 25t-28 72q0 32 13 71zM372 529q-65 0 -94 42t-9 131h16q11 -87 101 -87q96 0 149 87h20q-55 -173 -183 -173z" />
    <glyph glyph-name="Uring" unicode="&#x16e;" horiz-adv-x="821" 
d="M387 644l-101 -377q-17 -65 -17 -109q0 -140 152 -140q169 0 229 222l84 313q16 61 -7 94t-94 37l3 13h282l-3 -13q-68 -7 -101.5 -35.5t-51.5 -94.5l-89 -333q-33 -124 -106 -181t-202 -57q-123 0 -190 50.5t-66 152.5q0 44 16 106l94 352q3 13 -1 20.5t-25 13t-63 6.5
l3 13h361l-3 -13q-55 -3 -77 -12.5t-27 -27.5zM576 769q-46 0 -78 23.5t-32 67.5q0 56 45.5 92.5t108.5 36.5q46 0 78 -23.5t32 -67.5q0 -56 -45.5 -92.5t-108.5 -36.5zM579 787q32 0 52.5 45.5t20.5 89.5q0 49 -35 49q-32 0 -52.5 -45.5t-20.5 -89.5q0 -49 35 -49z" />
    <glyph glyph-name="uring" unicode="&#x16f;" horiz-adv-x="592" 
d="M49 160l74 227q8 25 -5.5 37t-59.5 15l1 12l237 16l-99 -319q-9 -28 -9 -46q0 -41 41 -41q51 0 101 49l57 197l42 158h154l-109 -363q-10 -33 -10 -45q0 -20 19.5 -25.5t72.5 -2.5v-12q-69 -25 -134 -25q-46 0 -73.5 16t-27.5 49q0 14 6 32l-3 2q-87 -99 -182 -99
q-50 0 -78 25t-28 72q0 32 13 71zM387 529q-46 0 -78 23.5t-32 67.5q0 56 45.5 92.5t108.5 36.5q46 0 78 -23.5t32 -67.5q0 -56 -45.5 -92.5t-108.5 -36.5zM390 547q32 0 52.5 45.5t20.5 89.5q0 49 -35 49q-32 0 -52.5 -45.5t-20.5 -89.5q0 -49 35 -49z" />
    <glyph glyph-name="Uhungarumlaut" unicode="&#x170;" horiz-adv-x="821" 
d="M387 644l-101 -377q-17 -65 -17 -109q0 -140 152 -140q169 0 229 222l84 313q16 61 -7 94t-94 37l3 13h282l-3 -13q-68 -7 -101.5 -35.5t-51.5 -94.5l-89 -333q-33 -124 -106 -181t-202 -57q-123 0 -190 50.5t-66 152.5q0 44 16 106l94 352q3 13 -1 20.5t-25 13t-63 6.5
l3 13h361l-3 -13q-55 -3 -77 -12.5t-27 -27.5zM441 764l75 126q45 75 64 96.5t48 21.5q23 0 37 -14.5t14 -33.5q0 -23 -21 -43.5t-100 -78.5l-101 -74h-16zM625 764l75 126q45 75 64 96.5t48 21.5q23 0 37 -14.5t14 -33.5q0 -23 -21 -43.5t-100 -78.5l-101 -74h-16z" />
    <glyph glyph-name="uhungarumlaut" unicode="&#x171;" horiz-adv-x="592" 
d="M49 160l74 227q8 25 -5.5 37t-59.5 15l1 12l237 16l-99 -319q-9 -28 -9 -46q0 -41 41 -41q51 0 101 49l57 197l42 158h154l-109 -363q-10 -33 -10 -45q0 -20 19.5 -25.5t72.5 -2.5v-12q-69 -25 -134 -25q-46 0 -73.5 16t-27.5 49q0 14 6 32l-3 2q-87 -99 -182 -99
q-50 0 -78 25t-28 72q0 32 13 71zM252 524l75 126q45 75 64 96.5t48 21.5q23 0 37 -14.5t14 -33.5q0 -23 -21 -43.5t-100 -78.5l-101 -74h-16zM436 524l75 126q45 75 64 96.5t48 21.5q23 0 37 -14.5t14 -33.5q0 -23 -21 -43.5t-100 -78.5l-101 -74h-16z" />
    <glyph glyph-name="Uogonek" unicode="&#x172;" horiz-adv-x="821" 
d="M290 -247q-44 0 -69 21t-25 57q0 44 35.5 75.5t101.5 63.5l26 13q-121 2 -186 51.5t-64 151.5q0 44 16 106l94 352q3 13 -1 20.5t-25 13t-63 6.5l3 13h361l-3 -13q-55 -3 -77 -12.5t-27 -27.5l-101 -377q-17 -65 -17 -109q0 -140 152 -140q169 0 229 222l84 313
q16 61 -7 94t-94 37l3 13h282l-3 -13q-68 -7 -101.5 -35.5t-51.5 -94.5l-89 -333q-31 -116 -96.5 -173t-178.5 -64l-20 -17q-76 -64 -76 -124q0 -53 52 -53q28 0 60 13l5 -12q-63 -38 -129 -38z" />
    <glyph glyph-name="uogonek" unicode="&#x173;" horiz-adv-x="601" 
d="M464 57q0 -20 19.5 -25.5t72.5 -2.5v-12l-40 -16q-88 -35 -124 -77.5t-36 -80.5q0 -53 52 -53q28 0 60 13l5 -12q-63 -38 -129 -38q-44 0 -69 21t-25 57q0 45 39.5 77.5t114.5 63.5l52 22q-22 -2 -34 -2q-46 0 -73.5 16t-27.5 49q0 14 6 32l-3 2q-87 -99 -182 -99
q-50 0 -78 25t-28 72q0 32 13 71l74 227q8 25 -5.5 37t-59.5 15l1 12l237 16l-99 -319q-9 -28 -9 -46q0 -41 41 -41q51 0 101 49l57 197l42 158h154l-109 -363q-10 -33 -10 -45z" />
    <glyph glyph-name="Wcircumflex" unicode="&#x174;" horiz-adv-x="1057" 
d="M341 624l30 -441h6l202 321l-9 105q-3 43 -17.5 58.5t-61.5 16.5l3 13h343l-3 -13q-58 -3 -79.5 -17.5t-19.5 -42.5l30 -439h6l198 340q30 52 32 86t-17.5 50.5t-60.5 22.5l3 13h263l-3 -13q-57 -7 -95 -38t-82 -106l-324 -550h-64l-39 474l-293 -474h-66l-47 619
q-3 41 -18 54.5t-71 20.5l3 13h345l-3 -13q-54 -3 -73.5 -17.5t-17.5 -42.5zM513 764l206 217h13l84 -217h-16l-110 86l-155 -86h-22z" />
    <glyph glyph-name="wcircumflex" unicode="&#x175;" horiz-adv-x="777" 
d="M524 -17l-114 12l-11 155l-6 50l-152 -217l-114 12l-11 155l-27 227q-6 33 -22 44.5t-60 12.5v12l220 24l31 -285l6 -129h4l66 107q24 38 51 107l-22 184l150 16l28 -285l6 -129h4l43 61q75 106 100 189q-59 24 -59 83q0 38 22.5 61t62.5 23q33 0 55 -23.5t22 -55.5
q0 -35 -18 -68t-86 -122zM304 524l206 217h13l84 -217h-16l-110 86l-155 -86h-22z" />
    <glyph glyph-name="Ycircumflex" unicode="&#x176;" horiz-adv-x="696" 
d="M639 538l-185 -235l-66 -248q-7 -26 9.5 -32.5t83.5 -8.5l-3 -14h-375l3 14q67 2 86.5 8.5t26.5 32.5l68 248l-92 309q-11 39 -28.5 51t-75.5 21l3 13h363l-3 -13q-71 -2 -90.5 -18.5t-10.5 -44.5l92 -296l166 217q48 62 43 94.5t-67 47.5l3 13h251l-3 -13
q-51 -8 -98 -42.5t-101 -103.5zM366 764l206 217h13l84 -217h-16l-110 86l-155 -86h-22z" />
    <glyph glyph-name="ycircumflex" unicode="&#x177;" horiz-adv-x="505" 
d="M219 470l44 -239l26 -185h4l35 54q80 123 90 205q-33 8 -53 31t-20 53q0 37 22.5 60.5t60.5 23.5q35 0 56.5 -23t21.5 -56q0 -42 -27.5 -96.5t-110.5 -183.5q-81 -127 -144 -196.5t-111 -93.5t-106 -24q-50 0 -78.5 24.5t-28.5 66.5q0 35 23.5 59.5t58.5 24.5
q33 0 55 -22.5t22 -57.5q0 -43 -36 -68q89 0 149 77l-49 276l-40 197q-6 33 -23 44.5t-61 12.5v12zM135 524l206 217h13l84 -217h-16l-110 86l-155 -86h-22z" />
    <glyph glyph-name="Ydieresis" unicode="&#x178;" horiz-adv-x="696" 
d="M639 538l-185 -235l-66 -248q-7 -26 9.5 -32.5t83.5 -8.5l-3 -14h-375l3 14q67 2 86.5 8.5t26.5 32.5l68 248l-92 309q-11 39 -28.5 51t-75.5 21l3 13h363l-3 -13q-71 -2 -90.5 -18.5t-10.5 -44.5l92 -296l166 217q48 62 43 94.5t-67 47.5l3 13h251l-3 -13
q-51 -8 -98 -42.5t-101 -103.5zM642 769q-26 0 -45.5 18.5t-19.5 49.5q0 43 27.5 71t67.5 28q26 0 45.5 -18.5t19.5 -49.5q0 -43 -27.5 -71t-67.5 -28zM429 769q-26 0 -45.5 18.5t-19.5 49.5q0 43 27.5 71t67.5 28q26 0 45.5 -18.5t19.5 -49.5q0 -43 -27.5 -71t-67.5 -28z
" />
    <glyph glyph-name="Zacute" unicode="&#x179;" horiz-adv-x="679" 
d="M577 677h-125q-75 0 -147 -51.5t-168 -178.5l-21 2l75 248h577l2 -18l-608 -659h156q73 0 147 58t168 186l18 -2l-74 -262h-609l-2 18zM422 764l64 126q39 76 55.5 97t45.5 21q23 0 39.5 -16t16.5 -37t-19.5 -41.5t-90.5 -75.5l-95 -74h-16z" />
    <glyph glyph-name="zacute" unicode="&#x17a;" horiz-adv-x="458" 
d="M-1 -15l-14 31l372 336l-2 6l-154 -4q-55 -1 -81 -16.5t-60 -65.5l-14 2l54 190h368l6 -41l-364 -324l2 -4q35 20 90 20q24 0 67.5 -3t57.5 -3q36 0 55.5 14.5t35.5 58.5l12 -2q-6 -61 -16.5 -100t-27 -57t-32.5 -24t-40 -6q-48 0 -115 4.5t-88 4.5q-78 0 -112 -17z
M233 524l64 126q39 76 55.5 97t45.5 21q23 0 39.5 -16t16.5 -37t-19.5 -41.5t-90.5 -75.5l-95 -74h-16z" />
    <glyph glyph-name="Zdotaccent" unicode="&#x17b;" horiz-adv-x="679" 
d="M577 677h-125q-75 0 -147 -51.5t-168 -178.5l-21 2l75 248h577l2 -18l-608 -659h156q73 0 147 58t168 186l18 -2l-74 -262h-609l-2 18zM488 769q-28 0 -48.5 19.5t-20.5 52.5q0 45 29.5 75t71.5 30q28 0 48.5 -19.5t20.5 -52.5q0 -45 -29.5 -75t-71.5 -30z" />
    <glyph glyph-name="zdotaccent" unicode="&#x17c;" horiz-adv-x="458" 
d="M-1 -15l-14 31l372 336l-2 6l-154 -4q-55 -1 -81 -16.5t-60 -65.5l-14 2l54 190h368l6 -41l-364 -324l2 -4q35 20 90 20q24 0 67.5 -3t57.5 -3q36 0 55.5 14.5t35.5 58.5l12 -2q-6 -61 -16.5 -100t-27 -57t-32.5 -24t-40 -6q-48 0 -115 4.5t-88 4.5q-78 0 -112 -17z
M299 529q-28 0 -48.5 19.5t-20.5 52.5q0 45 29.5 75t71.5 30q28 0 48.5 -19.5t20.5 -52.5q0 -45 -29.5 -75t-71.5 -30z" />
    <glyph glyph-name="Zcaron" unicode="&#x17d;" horiz-adv-x="679" 
d="M577 677h-125q-75 0 -147 -51.5t-168 -178.5l-21 2l75 248h577l2 -18l-608 -659h156q73 0 147 58t168 186l18 -2l-74 -262h-609l-2 18zM473 764l-85 217h16l110 -86l155 86h22l-205 -217h-13z" />
    <glyph glyph-name="zcaron" unicode="&#x17e;" horiz-adv-x="458" 
d="M-1 -15l-14 31l372 336l-2 6l-154 -4q-55 -1 -81 -16.5t-60 -65.5l-14 2l54 190h368l6 -41l-364 -324l2 -4q35 20 90 20q24 0 67.5 -3t57.5 -3q36 0 55.5 14.5t35.5 58.5l12 -2q-6 -61 -16.5 -100t-27 -57t-32.5 -24t-40 -6q-48 0 -115 4.5t-88 4.5q-78 0 -112 -17z
M284 524l-85 217h16l110 -86l155 86h22l-205 -217h-13z" />
    <glyph glyph-name="Aringacute" unicode="&#x1fa;" 
d="M205 264l-70 -118q-72 -120 50 -132l-3 -14h-255l3 13q54 7 96.5 41t83.5 101l342 551q-61 21 -61 90q0 59 45.5 101t107.5 42q46 0 76.5 -23.5t30.5 -73.5q0 -46 -29 -83t-74 -52l72 -620q5 -40 21.5 -53.5t73.5 -20.5l-3 -13h-375l3 13q69 3 92 17.5t20 45.5l-21 188
h-226zM429 284l-32 291h-6l-174 -291h212zM522 961l64 126q39 76 55.5 97t45.5 21q23 0 39.5 -16t16.5 -37t-19.5 -41.5t-90.5 -75.5l-95 -74h-16zM499 717q34 0 55.5 51.5t21.5 96.5q0 56 -33 56q-34 0 -55.5 -51t-21.5 -96q0 -57 33 -57z" />
    <glyph glyph-name="aringacute" unicode="&#x1fb;" horiz-adv-x="571" 
d="M514 310l-64 -208q-10 -32 -10 -45q0 -21 19.5 -26.5t72.5 -1.5v-12q-69 -25 -134 -25q-46 0 -68.5 17t-22.5 60l-4 2q-65 -79 -143 -79q-58 0 -97.5 45t-39.5 122q0 69 26 129.5t66.5 99.5t87.5 61.5t91 22.5q43 0 63.5 -16t35.5 -49l18 51l157 13zM331 437
q-56 0 -104.5 -98t-48.5 -194q0 -90 63 -90q30 0 56 32l83 280q0 25 -14.5 47.5t-34.5 22.5zM381 529q-46 0 -78 23.5t-32 67.5q0 56 45.5 92.5t108.5 36.5q46 0 78 -23.5t32 -67.5q0 -56 -45.5 -92.5t-108.5 -36.5zM406 806l64 126q39 76 55.5 97t45.5 21q23 0 39.5 -16
t16.5 -37t-19.5 -41.5t-90.5 -75.5l-95 -74h-16zM384 547q32 0 52.5 45.5t20.5 89.5q0 49 -35 49q-32 0 -52.5 -45.5t-20.5 -89.5q0 -49 35 -49z" />
    <glyph glyph-name="AEacute" unicode="&#x1fc;" horiz-adv-x="1119" 
d="M894 217h-15q-21 93 -37 117t-71 24h-46l-90 -337h116q97 0 168 60t149 182h17l-71 -263h-651l3 14q65 2 84 8.5t26 32.5l61 229h-247l-121 -138q-45 -52 -45 -84q0 -42 79 -48l-3 -14h-269l3 14q65 14 106.5 43t102.5 98l386 436q26 29 26 48q0 38 -102 45l3 13h705
l-62 -248h-16q-23 120 -58.5 173.5t-117.5 53.5h-97l-80 -298h46q39 0 66 13t48 35.5t64 78.5h15zM542 304l98 364h-11l-321 -364h234zM764 764l64 126q39 76 55.5 97t45.5 21q23 0 39.5 -16t16.5 -37t-19.5 -41.5t-90.5 -75.5l-95 -74h-16z" />
    <glyph glyph-name="aeacute" unicode="&#x1fd;" horiz-adv-x="761" 
d="M607 472q77 0 116.5 -30.5t39.5 -77.5q0 -65 -80 -103.5t-235 -28.5q-4 -21 -4 -47q0 -70 27.5 -103.5t88.5 -33.5q41 0 84 23.5t72 66.5l12 -11q-38 -63 -98.5 -99t-134.5 -36q-69 0 -112 37t-53 100h-4q-30 -63 -77 -100t-104 -37q-58 0 -93 29t-35 76q0 157 320 158
q4 29 4 71q0 63 -26.5 94.5t-62.5 31.5q-41 0 -63 -29q33 -14 33 -54q0 -37 -21.5 -57.5t-55.5 -20.5q-31 0 -50.5 18.5t-19.5 47.5q0 48 49.5 81.5t138.5 33.5q117 0 157 -57h4q75 57 183 57zM598 453q-42 0 -86 -61.5t-61 -141.5q56 -1 96 12.5t59 37.5t26.5 48t7.5 51
q0 54 -42 54zM216 61q97 0 119 176q-98 0 -139.5 -31t-41.5 -77q0 -31 17.5 -49.5t44.5 -18.5zM466 524l64 126q39 76 55.5 97t45.5 21q23 0 39.5 -16t16.5 -37t-19.5 -41.5t-90.5 -75.5l-95 -74h-16z" />
    <glyph glyph-name="Oslashacute" unicode="&#x1fe;" horiz-adv-x="783" 
d="M73 -36h-30l97 102q-78 78 -78 209q0 58 18 119t54 118t85.5 102.5t119 72.5t146.5 27q125 0 208 -69l84 88h30l-97 -103q78 -78 78 -208q0 -58 -18 -119t-54 -118t-85.5 -102.5t-119 -72.5t-146.5 -27q-128 0 -209 69zM336 4q81 0 149 88.5t103 207.5t35 228q0 2 -0.5 8
t-0.5 8l-393 -416q12 -124 107 -124zM227 169v-16l394 415q-14 125 -107 125q-81 0 -149 -88.5t-103 -207.5t-35 -228zM477 764l64 126q39 76 55.5 97t45.5 21q23 0 39.5 -16t16.5 -37t-19.5 -41.5t-90.5 -75.5l-95 -74h-16z" />
    <glyph glyph-name="oslashacute" unicode="&#x1ff;" horiz-adv-x="542" 
d="M30 -29l59 66q-67 55 -67 157q0 47 19 95t54 89.5t91.5 67.5t124.5 26q79 0 131 -37l51 58h19l-59 -66q67 -56 67 -157q0 -47 -19 -95t-54 -89.5t-91.5 -67.5t-124.5 -26q-78 0 -131 36l-51 -57h-19zM322 452q-42 0 -78.5 -57.5t-56.5 -131.5t-24 -142l217 244v6
q0 81 -58 81zM220 12q42 0 78.5 58t56 131.5t24.5 141.5l-217 -245v-5q0 -81 58 -81zM292 524l64 126q39 76 55.5 97t45.5 21q23 0 39.5 -16t16.5 -37t-19.5 -41.5t-90.5 -75.5l-95 -74h-16z" />
    <glyph glyph-name="Scommaaccent" unicode="&#x218;" horiz-adv-x="595" 
d="M-16 -16l80 275h16q34 -134 82 -194t129 -60q61 0 103.5 31t42.5 86q0 30 -11 54t-37.5 45t-44.5 32t-58 32t-61 34.5t-49 37.5t-40.5 53t-12.5 66q0 92 73.5 163t188.5 71q99 0 183 -41l56 47h16l-61 -251h-18q-40 127 -87.5 176.5t-108.5 49.5q-53 0 -86.5 -28.5
t-33.5 -81.5q0 -24 10 -44t36 -40t41 -29.5t55 -31.5t62 -37t50 -40t41 -55.5t13 -67.5q0 -104 -72.5 -176.5t-196.5 -72.5q-128 0 -230 53l-54 -56h-16zM105 -326l-5 12q56 25 83.5 52.5t35.5 49.5l-3 4q-29 -2 -48.5 18.5t-19.5 52.5t22 54.5t53 22.5q37 0 58.5 -24.5
t21.5 -60.5q0 -60 -53 -107t-145 -74z" />
    <glyph glyph-name="scommaaccent" unicode="&#x219;" horiz-adv-x="452" 
d="M180 -8q-77 0 -128 25t-51 70q0 29 20.5 49.5t52.5 20.5q28 0 47.5 -17t19.5 -42q0 -35 -29 -55q36 -31 86 -31q47 0 74 21t27 58q0 16 -6.5 27.5t-23.5 21.5t-27 14t-37 14q-5 2 -8 3q-67 23 -99 53t-32 82q0 73 58.5 119.5t155.5 46.5q79 0 123 -27t44 -67
q0 -30 -18 -51t-53 -21q-27 0 -46.5 17.5t-19.5 38.5q0 37 33 59q-24 31 -76 31q-48 0 -73.5 -22.5t-25.5 -57.5q0 -19 17 -35t34.5 -23.5t53.5 -20.5q71 -28 102.5 -57.5t31.5 -75.5q0 -75 -54.5 -121.5t-172.5 -46.5zM17 -326l-5 12q56 25 83.5 52.5t35.5 49.5l-3 4
q-29 -2 -48.5 18.5t-19.5 52.5t22 54.5t53 22.5q37 0 58.5 -24.5t21.5 -60.5q0 -60 -53 -107t-145 -74z" />
    <glyph glyph-name="schwa" unicode="&#x259;" horiz-adv-x="493" 
d="M-2 100q0 64 80 103t235 29q4 30 4 47q0 70 -27.5 103.5t-88.5 33.5q-41 0 -84 -23.5t-72 -66.5l-12 11q38 64 99.5 99.5t138.5 35.5q90 0 144.5 -53.5t54.5 -137.5q0 -122 -89 -205.5t-227 -83.5q-77 0 -116.5 30.5t-39.5 77.5zM163 11q42 0 86 61.5t61 140.5
q-57 1 -96.5 -12t-58.5 -37t-26.5 -48t-7.5 -51q0 -54 42 -54z" />
    <glyph glyph-name="circumflex" unicode="&#x2c6;" horiz-adv-x="329" 
d="M106 524l206 217h13l84 -217h-16l-110 86l-155 -86h-22z" />
    <glyph glyph-name="caron" unicode="&#x2c7;" horiz-adv-x="329" 
d="M234 524l-85 217h16l110 -86l155 86h22l-205 -217h-13z" />
    <glyph glyph-name="breve" unicode="&#x2d8;" horiz-adv-x="336" 
d="M247 529q-65 0 -94 42t-9 131h16q11 -87 101 -87q96 0 149 87h20q-55 -173 -183 -173z" />
    <glyph glyph-name="dotaccent" unicode="&#x2d9;" horiz-adv-x="250" 
d="M220 529q-28 0 -48.5 19.5t-20.5 52.5q0 45 29.5 75t71.5 30q28 0 48.5 -19.5t20.5 -52.5q0 -45 -29.5 -75t-71.5 -30z" />
    <glyph glyph-name="ring" unicode="&#x2da;" horiz-adv-x="282" 
d="M239 529q-46 0 -78 23.5t-32 67.5q0 56 45.5 92.5t108.5 36.5q46 0 78 -23.5t32 -67.5q0 -56 -45.5 -92.5t-108.5 -36.5zM242 547q32 0 52.5 45.5t20.5 89.5q0 49 -35 49q-32 0 -52.5 -45.5t-20.5 -89.5q0 -49 35 -49z" />
    <glyph glyph-name="ogonek" unicode="&#x2db;" horiz-adv-x="269" 
d="M-5 -247q-44 0 -69 21t-25 57q0 44 35.5 75.5t101.5 63.5l96 47h8l-59 -50q-76 -64 -76 -124q0 -53 52 -53q28 0 60 13l5 -12q-63 -38 -129 -38z" />
    <glyph glyph-name="tilde" unicode="&#x2dc;" horiz-adv-x="367" 
d="M114 527q16 80 43 114t70 34q25 0 79.5 -28.5t71.5 -28.5q24 0 33 9t26 49h16q-15 -81 -41.5 -114.5t-70.5 -33.5q-25 0 -79.5 28.5t-71.5 28.5q-24 0 -33.5 -9.5t-26.5 -48.5h-16z" />
    <glyph glyph-name="hungarumlaut" unicode="&#x2dd;" horiz-adv-x="456" 
d="M125 524l75 126q45 75 64 96.5t48 21.5q23 0 37 -14.5t14 -33.5q0 -23 -21 -43.5t-100 -78.5l-101 -74h-16zM309 524l75 126q45 75 64 96.5t48 21.5q23 0 37 -14.5t14 -33.5q0 -23 -21 -43.5t-100 -78.5l-101 -74h-16z" />
    <glyph glyph-name="commaaccent" unicode="&#x326;" horiz-adv-x="270" 
d="M-84 -326l-5 12q56 25 83.5 52.5t35.5 49.5l-3 4q-29 -2 -48.5 18.5t-19.5 52.5t22 54.5t53 22.5q37 0 58.5 -24.5t21.5 -60.5q0 -60 -53 -107t-145 -74z" />
    <glyph glyph-name="Wgrave" unicode="&#x1e80;" horiz-adv-x="1057" 
d="M341 624l30 -441h6l202 321l-9 105q-3 43 -17.5 58.5t-61.5 16.5l3 13h343l-3 -13q-58 -3 -79.5 -17.5t-19.5 -42.5l30 -439h6l198 340q30 52 32 86t-17.5 50.5t-60.5 22.5l3 13h263l-3 -13q-57 -7 -95 -38t-82 -106l-324 -550h-64l-39 474l-293 -474h-66l-47 619
q-3 41 -18 54.5t-71 20.5l3 13h345l-3 -13q-54 -3 -73.5 -17.5t-17.5 -42.5zM690 764l-92 93q-36 36 -49.5 56t-13.5 39q0 21 17 37.5t42 16.5q27 0 41.5 -24t31.5 -86l37 -132h-14z" />
    <glyph glyph-name="wgrave" unicode="&#x1e81;" horiz-adv-x="777" 
d="M524 -17l-114 12l-11 155l-6 50l-152 -217l-114 12l-11 155l-27 227q-6 33 -22 44.5t-60 12.5v12l220 24l31 -285l6 -129h4l66 107q24 38 51 107l-22 184l150 16l28 -285l6 -129h4l43 61q75 106 100 189q-59 24 -59 83q0 38 22.5 61t62.5 23q33 0 55 -23.5t22 -55.5
q0 -35 -18 -68t-86 -122zM481 524l-92 93q-36 36 -49.5 56t-13.5 39q0 21 17 37.5t42 16.5q27 0 41.5 -24t31.5 -86l37 -132h-14z" />
    <glyph glyph-name="Wacute" unicode="&#x1e82;" horiz-adv-x="1057" 
d="M341 624l30 -441h6l202 321l-9 105q-3 43 -17.5 58.5t-61.5 16.5l3 13h343l-3 -13q-58 -3 -79.5 -17.5t-19.5 -42.5l30 -439h6l198 340q30 52 32 86t-17.5 50.5t-60.5 22.5l3 13h263l-3 -13q-57 -7 -95 -38t-82 -106l-324 -550h-64l-39 474l-293 -474h-66l-47 619
q-3 41 -18 54.5t-71 20.5l3 13h345l-3 -13q-54 -3 -73.5 -17.5t-17.5 -42.5zM615 764l64 126q39 76 55.5 97t45.5 21q23 0 39.5 -16t16.5 -37t-19.5 -41.5t-90.5 -75.5l-95 -74h-16z" />
    <glyph glyph-name="wacute" unicode="&#x1e83;" horiz-adv-x="777" 
d="M524 -17l-114 12l-11 155l-6 50l-152 -217l-114 12l-11 155l-27 227q-6 33 -22 44.5t-60 12.5v12l220 24l31 -285l6 -129h4l66 107q24 38 51 107l-22 184l150 16l28 -285l6 -129h4l43 61q75 106 100 189q-59 24 -59 83q0 38 22.5 61t62.5 23q33 0 55 -23.5t22 -55.5
q0 -35 -18 -68t-86 -122zM407 524l64 126q39 76 55.5 97t45.5 21q23 0 39.5 -16t16.5 -37t-19.5 -41.5t-90.5 -75.5l-95 -74h-16z" />
    <glyph glyph-name="Wdieresis" unicode="&#x1e84;" horiz-adv-x="1057" 
d="M341 624l30 -441h6l202 321l-9 105q-3 43 -17.5 58.5t-61.5 16.5l3 13h343l-3 -13q-58 -3 -79.5 -17.5t-19.5 -42.5l30 -439h6l198 340q30 52 32 86t-17.5 50.5t-60.5 22.5l3 13h263l-3 -13q-57 -7 -95 -38t-82 -106l-324 -550h-64l-39 474l-293 -474h-66l-47 619
q-3 41 -18 54.5t-71 20.5l3 13h345l-3 -13q-54 -3 -73.5 -17.5t-17.5 -42.5zM789 769q-26 0 -45.5 18.5t-19.5 49.5q0 43 27.5 71t67.5 28q26 0 45.5 -18.5t19.5 -49.5q0 -43 -27.5 -71t-67.5 -28zM576 769q-26 0 -45.5 18.5t-19.5 49.5q0 43 27.5 71t67.5 28
q26 0 45.5 -18.5t19.5 -49.5q0 -43 -27.5 -71t-67.5 -28z" />
    <glyph glyph-name="wdieresis" unicode="&#x1e85;" horiz-adv-x="777" 
d="M524 -17l-114 12l-11 155l-6 50l-152 -217l-114 12l-11 155l-27 227q-6 33 -22 44.5t-60 12.5v12l220 24l31 -285l6 -129h4l66 107q24 38 51 107l-22 184l150 16l28 -285l6 -129h4l43 61q75 106 100 189q-59 24 -59 83q0 38 22.5 61t62.5 23q33 0 55 -23.5t22 -55.5
q0 -35 -18 -68t-86 -122zM580 529q-26 0 -45.5 18.5t-19.5 49.5q0 43 27.5 71t67.5 28q26 0 45.5 -18.5t19.5 -49.5q0 -43 -27.5 -71t-67.5 -28zM367 529q-26 0 -45.5 18.5t-19.5 49.5q0 43 27.5 71t67.5 28q26 0 45.5 -18.5t19.5 -49.5q0 -43 -27.5 -71t-67.5 -28z" />
    <glyph glyph-name="Ygrave" unicode="&#x1ef2;" horiz-adv-x="696" 
d="M639 538l-185 -235l-66 -248q-7 -26 9.5 -32.5t83.5 -8.5l-3 -14h-375l3 14q67 2 86.5 8.5t26.5 32.5l68 248l-92 309q-11 39 -28.5 51t-75.5 21l3 13h363l-3 -13q-71 -2 -90.5 -18.5t-10.5 -44.5l92 -296l166 217q48 62 43 94.5t-67 47.5l3 13h251l-3 -13
q-51 -8 -98 -42.5t-101 -103.5zM544 764l-92 93q-36 36 -49.5 56t-13.5 39q0 21 17 37.5t42 16.5q27 0 41.5 -24t31.5 -86l37 -132h-14z" />
    <glyph glyph-name="ygrave" unicode="&#x1ef3;" horiz-adv-x="505" 
d="M219 470l44 -239l26 -185h4l35 54q80 123 90 205q-33 8 -53 31t-20 53q0 37 22.5 60.5t60.5 23.5q35 0 56.5 -23t21.5 -56q0 -42 -27.5 -96.5t-110.5 -183.5q-81 -127 -144 -196.5t-111 -93.5t-106 -24q-50 0 -78.5 24.5t-28.5 66.5q0 35 23.5 59.5t58.5 24.5
q33 0 55 -22.5t22 -57.5q0 -43 -36 -68q89 0 149 77l-49 276l-40 197q-6 33 -23 44.5t-61 12.5v12zM312 524l-92 93q-36 36 -49.5 56t-13.5 39q0 21 17 37.5t42 16.5q27 0 41.5 -24t31.5 -86l37 -132h-14z" />
    <glyph glyph-name="enspace" unicode="&#x2002;" horiz-adv-x="500" 
 />
    <glyph glyph-name="emspace" unicode="&#x2003;" horiz-adv-x="1000" 
 />
    <glyph glyph-name="threeperemspace" unicode="&#x2004;" horiz-adv-x="333" 
 />
    <glyph glyph-name="fourperemspace" unicode="&#x2005;" horiz-adv-x="250" 
 />
    <glyph glyph-name="thinspace" unicode="&#x2009;" horiz-adv-x="133" 
 />
    <glyph glyph-name="hairspace" unicode="&#x200a;" horiz-adv-x="75" 
 />
    <glyph glyph-name="endash" unicode="&#x2013;" horiz-adv-x="540" 
d="M60 253l6 22h430l-6 -22h-430z" />
    <glyph glyph-name="emdash" unicode="&#x2014;" horiz-adv-x="790" 
d="M60 253l6 22h680l-6 -22h-680z" />
    <glyph glyph-name="quoteleft" unicode="&#x2018;" horiz-adv-x="273" 
d="M365 708l4 -12q-135 -61 -156 -124l3 -5q33 2 55 -20.5t22 -59.5t-25 -62.5t-61 -25.5q-41 0 -66 28t-25 69q0 72 62.5 127.5t186.5 84.5z" />
    <glyph glyph-name="quoteright" unicode="&#x2019;" horiz-adv-x="273" 
d="M75 405l-4 12q135 61 156 124l-3 5q-33 -2 -55 20.5t-22 59.5t25 62.5t61 25.5q41 0 66 -28t25 -69q0 -72 -62.5 -127.5t-186.5 -84.5z" />
    <glyph glyph-name="quotesinglbase" unicode="&#x201a;" horiz-adv-x="273" 
d="M-61 -152l-4 12q135 61 156 124l-3 5q-33 -2 -55 20.5t-22 59.5t25 62.5t61 25.5q41 0 66 -28t25 -69q0 -72 -62.5 -127.5t-186.5 -84.5z" />
    <glyph glyph-name="quotedblleft" unicode="&#x201c;" horiz-adv-x="496" 
d="M588 708l4 -12q-135 -61 -156 -124l3 -5q33 2 55 -20.5t22 -59.5t-25 -62.5t-61 -25.5q-41 0 -66 28t-25 69q0 72 62.5 127.5t186.5 84.5zM365 708l4 -12q-135 -61 -156 -124l3 -5q33 2 55 -20.5t22 -59.5t-25 -62.5t-61 -25.5q-41 0 -66 28t-25 69q0 72 62.5 127.5
t186.5 84.5z" />
    <glyph glyph-name="quotedblright" unicode="&#x201d;" horiz-adv-x="496" 
d="M75 405l-4 12q135 61 156 124l-3 5q-33 -2 -55 20.5t-22 59.5t25 62.5t61 25.5q41 0 66 -28t25 -69q0 -72 -62.5 -127.5t-186.5 -84.5zM298 405l-4 12q135 61 156 124l-3 5q-33 -2 -55 20.5t-22 59.5t25 62.5t61 25.5q41 0 66 -28t25 -69q0 -72 -62.5 -127.5
t-186.5 -84.5z" />
    <glyph glyph-name="quotedblbase" unicode="&#x201e;" horiz-adv-x="496" 
d="M162 -152l-4 12q135 61 156 124l-3 5q-33 -2 -55 20.5t-22 59.5t25 62.5t61 25.5q41 0 66 -28t25 -69q0 -72 -62.5 -127.5t-186.5 -84.5zM-61 -152l-4 12q135 61 156 124l-3 5q-33 -2 -55 20.5t-22 59.5t25 62.5t61 25.5q41 0 66 -28t25 -69q0 -72 -62.5 -127.5
t-186.5 -84.5z" />
    <glyph glyph-name="dagger" unicode="&#x2020;" horiz-adv-x="596" 
d="M180 -108q27 118 40.5 251t9.5 184l65 56q30 26 30 49q0 15 -10 24.5t-28 9.5q-30 0 -78.5 -19t-67.5 -19q-23 0 -40 14t-17 36q0 27 24 46t63 19q42 0 80 -20.5t83 -58.5l4 3l-3 115q-2 83 8 120q7 25 25 40t40 15q28 0 43.5 -17t15.5 -46q0 -40 -55 -130l-60 -97l2 -3
q97 53 172 53q39 0 63 -16.5t24 -43.5q0 -26 -19.5 -40.5t-49.5 -14.5q-26 0 -71.5 28t-76.5 28q-23 0 -38 -14.5t-15 -36.5q0 -13 7 -27l36 -73q-39 -65 -97.5 -185t-95.5 -233z" />
    <glyph glyph-name="daggerdbl" unicode="&#x2021;" horiz-adv-x="616" 
d="M401 311l-59 -52q-30 -26 -30 -49q0 -15 10 -24.5t28 -9.5q30 0 78.5 19t67.5 19q23 0 40 -14t17 -36q0 -27 -24 -46t-63 -19q-42 0 -80 20.5t-83 58.5l-4 -3l3 -115q2 -82 -7 -115q-7 -25 -25 -40t-40 -15q-28 0 -43.5 17t-15.5 46q0 37 54 125l60 97l-2 3
q-97 -53 -172 -53q-39 0 -63 16.5t-24 43.5q0 26 19.5 40.5t49.5 14.5q26 0 71.5 -28t76.5 -28q23 0 38 13.5t15 35.5q0 18 -7 33l-31 73l59 49q30 25 30 49q0 15 -10 24.5t-28 9.5q-30 0 -78.5 -19t-67.5 -19q-23 0 -40 14t-17 36q0 27 24 46t63 19q42 0 80 -20.5t83 -58.5
l4 3l-3 115q-2 82 7 115q7 25 25 40t40 15q28 0 43.5 -17t15.5 -46q0 -37 -54 -125l-60 -97l2 -3q97 53 172 53q39 0 63 -16.5t24 -43.5q0 -26 -19.5 -40.5t-49.5 -14.5q-26 0 -71.5 28t-76.5 28q-23 0 -38 -13.5t-15 -35.5q0 -19 6 -32z" />
    <glyph glyph-name="bullet" unicode="&#x2022;" horiz-adv-x="480" 
d="M264 191q-61 0 -101 40.5t-40 99.5t40 99.5t101 40.5t101 -40.5t40 -99.5t-40 -99.5t-101 -40.5z" />
    <glyph glyph-name="ellipsis" unicode="&#x2026;" horiz-adv-x="803" 
d="M100 -17q-38 0 -63.5 25t-25.5 61t26.5 62t64.5 26t63.5 -25t25.5 -61t-26.5 -62t-64.5 -26zM365 -17q-38 0 -63.5 25t-25.5 61t26.5 62t64.5 26t63.5 -25t25.5 -61t-26.5 -62t-64.5 -26zM630 -17q-38 0 -63.5 25t-25.5 61t26.5 62t64.5 26t63.5 -25t25.5 -61t-26.5 -62
t-64.5 -26z" />
    <glyph glyph-name="guilsinglleft" unicode="&#x2039;" horiz-adv-x="310" 
d="M201 27l-147 175q-21 25 -21 36q0 9 35 32l239 157l10 -11l-156 -186l55 -194z" />
    <glyph glyph-name="guilsinglright" unicode="&#x203a;" horiz-adv-x="310" 
d="M13 26l-10 11l155 190l-55 198l15 9l149 -177q22 -26 22 -36t-37 -34z" />
    <glyph glyph-name="fraction" unicode="&#x2044;" horiz-adv-x="606" 
d="M-29 -32l341 359l336 357h32l-336 -357l-341 -359h-32z" />
    <glyph glyph-name="Euro" unicode="&#x20ac;" horiz-adv-x="702" 
d="M475 276h-190q1 -97 45 -157t129 -60q106 0 189 106l14 -10q-110 -172 -282 -172q-119 0 -190.5 77t-71.5 206v10h-96l6 21h91q3 45 15 87h-88l6 21h89q42 122 145.5 199t240.5 77q87 0 139.5 -38.5t52.5 -99.5q0 -41 -26.5 -68.5t-66.5 -27.5q-36 0 -60 23t-24 59
q0 34 21 59t51 32q-38 44 -95 44q-83 0 -140 -75t-80 -184h206l-6 -21h-205q-8 -45 -9 -87h196z" />
    <glyph glyph-name="published" unicode="&#x2117;" horiz-adv-x="838" 
d="M213 156l3 12q26 1 36.5 2.5t16.5 6t9 14.5l86 324q2 7 -0.5 11t-14 7t-34.5 4l2 11h182q80 0 114.5 -27t34.5 -66q0 -52 -47 -91.5t-150 -39.5h-43l-36 -133q-3 -9 3 -14t17 -6.5t28 -2.5h6l-3 -12h-210zM412 339h32q58 0 83.5 43.5t25.5 95.5q0 32 -16 44t-47 12h-26z
M409 -34q-147 0 -240.5 92t-93.5 233q0 118 51.5 218t147.5 161t217 61q147 0 240.5 -92t93.5 -233q0 -118 -51.5 -218t-147.5 -161t-217 -61zM410 -17q116 0 207 58.5t139.5 154.5t48.5 209q0 134 -88 221.5t-227 87.5q-116 0 -207 -58.5t-139.5 -154.5t-48.5 -209
q0 -134 88 -221.5t227 -87.5z" />
    <glyph glyph-name="servicemark" unicode="&#x2120;" horiz-adv-x="627" 
d="M117 467l23 85h11q25 -72 76 -72q22 0 33 11t11 27q0 14 -12 25t-43 24q-54 23 -54 62q0 34 27 56.5t69 22.5q34 0 66 -15l19 17h8l-20 -76h-12q-22 62 -65 62q-17 0 -29.5 -9t-12.5 -24q0 -14 11.5 -23.5t39.5 -22.5q19 -9 30 -16t19.5 -20t8.5 -30q0 -33 -25.5 -58
t-74.5 -25q-41 0 -74 18l-22 -19h-8zM323 481q23 4 33 14.5t17 35.5l36 133q8 29 -27 30l3 10h107l15 -158h4l92 158h117l-3 -10q-22 -2 -30 -5t-10 -11l-49 -180q-2 -8 4.5 -11t27.5 -4l-3 -11h-135l3 11q30 1 34 15l44 163h-9l-110 -189h-33l-20 190h-7l-35 -131
q-7 -25 -2 -35.5t25 -14.5l-3 -9h-89z" />
    <glyph glyph-name="trademark" unicode="&#x2122;" horiz-adv-x="672" 
d="M359 472l3 9q23 4 33 14.5t17 35.5l36 133q8 29 -27 30l3 10h107l15 -158h4l92 158h117l-3 -10q-22 -2 -30 -5t-10 -11l-49 -180q-2 -8 4.5 -11t27.5 -4l-3 -11h-135l3 11q30 1 34 15l44 163h-9l-110 -189h-33l-20 190h-7l-35 -131q-7 -25 -2 -35.5t25 -14.5l-3 -9h-89z
M144 472l3 11q38 0 42 15l52 194h-5q-29 0 -88 -79h-12l29 91h230l-22 -91h-11q-13 79 -47 79h-4l-52 -194q-2 -8 5 -11.5t29 -3.5l-3 -11h-146z" />
    <glyph glyph-name="minus" unicode="&#x2212;" horiz-adv-x="536" 
d="M505 317h-428l5 22h428z" />
    <glyph glyph-name="registered.alt" horiz-adv-x="838" 
d="M409 -34q-147 0 -240.5 92t-93.5 233q0 118 51.5 218t147.5 161t217 61q147 0 240.5 -92t93.5 -233q0 -118 -51.5 -218t-147.5 -161t-217 -61zM410 -17q116 0 207 58.5t139.5 154.5t48.5 209q0 134 -88 221.5t-227 87.5q-116 0 -207 -58.5t-139.5 -154.5t-48.5 -209
q0 -134 88 -221.5t227 -87.5zM418 361h24q37 0 61.5 13t34.5 34t13 36.5t3 31.5q0 31 -12.5 44.5t-43.5 13.5h-34zM414 347l-42 -156q-4 -14 5.5 -18t36.5 -5h5l-3 -12h-203l3 12q26 1 36.5 2.5t16.5 6t9 14.5l86 324q2 7 -0.5 11t-14 7t-34.5 4l2 11h191q140 0 140 -82
q0 -95 -157 -112l-1 -3q65 -3 87.5 -24t16.5 -69l-4 -33q-4 -38 3.5 -47t42.5 -11l-3 -11q-27 -3 -54 -3q-60 0 -78.5 18.5t-10.5 59.5l10 51q7 38 -3.5 51.5t-44.5 13.5h-38z" />
    <glyph glyph-name="percent.alt" horiz-adv-x="866" 
d="M313 681q73 0 114.5 -41.5t41.5 -111.5q0 -79 -58 -145t-158 -66q-73 0 -114.5 41.5t-41.5 111.5q0 79 58 145t158 66zM81 -8l375 349l354 334h36l-375 -349l-354 -334h-36zM244 332q49 0 86.5 87t37.5 180q0 67 -46 67q-49 0 -86.5 -87t-37.5 -180q0 -67 46 -67z
M674 350q73 0 114.5 -41.5t41.5 -111.5q0 -79 -58 -145t-158 -66q-73 0 -114.5 41.5t-41.5 111.5q0 79 58 145t158 66zM605 1q49 0 86.5 87t37.5 180q0 67 -46 67q-49 0 -86.5 -87t-37.5 -180q0 -67 46 -67z" />
    <glyph glyph-name="NUL" horiz-adv-x="0" 
 />
    <glyph glyph-name="hfjslug" horiz-adv-x="694" 
d="M644 -200h-208l-8 14h-163l-8 -14h-207v303q14 0 23 9.5t9 22.5t-9.5 22.5t-22.5 9.5v554h100l30 79h334l29 -79h101v-921zM400 563v-172h15v78h38v14h-38v66h43v14h-58zM184 563v-172h15v79h47v-79h15v172h-15v-79h-47v79h-15zM460 394q10 -4 21 -4q31 0 31 36v137h-16
v-137q0 -22 -16 -22q-8 0 -20 5v-15zM371 465l-13 3q-4 -18 -8 -30h-1l-16 31q23 21 23 42q0 12 -7 21.5t-20 9.5q-12 0 -20 -9.5t-8 -21.5q0 -13 14 -39q-23 -18 -23 -47q0 -16 8 -26.5t21 -10.5q19 0 29 24h1l12 -24l12 6l-17 32q6 14 13 39zM523 323v-46h8v12l8 8l15 -20
h10l-20 26l18 20h-10l-20 -24h-1v24h-8zM488 292l10 -15h9l-12 17q10 4 10 14q0 15 -17 15h-20v-46h8v15h12zM426 276q10 0 17 7t7 17q0 9 -7 16.5t-17 7.5t-17 -7.5t-7 -16.5q0 -10 7 -17t17 -7zM370 301l-13 22h-9l18 -29v-17h8v17l18 29h-9zM193 323v-46h34v7h-26v13h23
v7h-23v12h26v7h-34zM132 323v-46h8v32l25 -32h7v46h-8v-32l-25 32h-7zM241 323l14 -47h8l11 34h1l11 -34h8l14 47h-8l-10 -35h-1l-11 35h-7l-11 -35h-1l-10 35h-8zM327 479q-12 22 -12 32q0 19 14 19q13 0 13 -19q0 -15 -15 -32zM342 423q-8 -21 -20 -21q-16 0 -16 25
q0 19 16 35zM487 299h-11v17h11q10 0 10 -8q0 -9 -10 -9zM426 283q-16 0 -16 17q0 6 4.5 11.5t11.5 5.5t11.5 -5.5t4.5 -11.5q0 -17 -16 -17z" />
    <glyph glyph-name="i.dot" horiz-adv-x="332" 
d="M185 605q0 45 29.5 75t71.5 30q28 0 48.5 -19.5t20.5 -52.5q0 -45 -29.5 -75t-71.5 -30q-28 0 -48.5 19.5t-20.5 52.5zM295 36v-12q-75 -32 -146 -32q-104 0 -104 74q0 18 8 47l81 272q8 25 -13 38t-68 16v12l254 16l-106 -356q-8 -26 -8 -40q0 -24 23 -31.5t79 -3.5z
" />
    <glyph glyph-name="caron.alt" horiz-adv-x="146" 
d="M124 528l27 174q6 39 19.5 54.5t38.5 15.5q20 0 35.5 -12.5t15.5 -32.5q0 -25 -46 -93l-74 -106h-16z" />
    </font>
</defs>
</svg>
